<svg width="647" height="231" viewBox="0 0 647 231" fill="none" xmlns="http://www.w3.org/2000/svg">
<g filter="url(#filter0_d)">
<circle cx="201.519" cy="158.708" r="45.3231" fill="#ED8E93"/>
<circle cx="275.128" cy="158.708" r="45.3231" fill="#ED8E93"/>
<rect x="313" y="43" width="102" height="161" rx="8" fill="#73D6FF"/>
<rect x="4" y="54" width="161" height="150" rx="8" fill="#F7AE3F"/>
<circle cx="615.023" cy="27.9772" r="27.9772" fill="#40AB3D"/>
<rect x="466.184" y="42.8827" width="91.2058" height="161.149" rx="8" fill="#85D483"/>
<path fill-rule="evenodd" clip-rule="evenodd" d="M555.822 196.527C556.58 197.35 557 198.427 557 199.545C557 202.005 555.005 204 552.545 204H474C469.582 204 466 200.418 466 196V51C466 46.5817 469.582 43 474 43H552.565C555.014 43 557 44.9856 557 47.4349C557 48.5479 556.582 49.6202 555.828 50.4389L515.937 93.7601C513.117 96.8225 513.117 101.536 515.937 104.598L528.339 118.067C531.159 121.129 531.159 125.843 528.339 128.905L515.937 142.374C513.117 145.436 513.117 150.149 515.937 153.212L555.822 196.527Z" fill="#40AB3D"/>
<path fill-rule="evenodd" clip-rule="evenodd" d="M91.523 85.8395C88.5128 80.1862 80.4106 80.1862 77.4003 85.8395L65.6402 107.926C62.6299 113.579 54.5277 113.579 51.5175 107.926L25.1449 58.3968C23.7554 55.7872 21.0399 54.1567 18.0835 54.1567H12C7.58172 54.1567 4 57.7385 4 62.1567V132.411C4 132.417 4.00824 132.418 4.01042 132.413C4.01221 132.408 4.01867 132.408 4.02046 132.413L30.0865 198.919C32.4196 204.872 40.4476 205.818 44.1005 200.57L77.9779 151.908C81.1609 147.336 87.9261 147.336 91.1091 151.908L124.867 200.398C128.52 205.646 136.548 204.7 138.881 198.747L164.799 132.62C164.829 132.541 164.94 132.541 164.971 132.62C165.008 132.715 165.149 132.688 165.149 132.586V62.1567C165.149 57.7385 161.567 54.1567 157.149 54.1567H150.84C147.883 54.1567 145.168 55.7872 143.778 58.3968L117.406 107.926C114.396 113.579 106.293 113.579 103.283 107.926L91.523 85.8395Z" fill="#F39413"/>
<path d="M227.911 185.1C231.035 188.224 231.066 193.359 227.442 195.886C222.335 199.447 216.524 201.935 210.361 203.161C201.57 204.909 192.457 204.012 184.175 200.581C175.893 197.151 168.815 191.342 163.834 183.889C158.854 176.435 156.196 167.672 156.196 158.708C156.196 149.744 158.854 140.982 163.834 133.528C168.815 126.075 175.893 120.266 184.175 116.835C192.457 113.405 201.57 112.507 210.361 114.256C216.524 115.482 222.335 117.969 227.442 121.53C231.066 124.057 231.035 129.193 227.911 132.317L207.176 153.052C204.052 156.176 204.052 161.241 207.176 164.365L227.911 185.1Z" fill="#CF2029"/>
<path d="M301.519 185.1C304.644 188.224 304.675 193.359 301.051 195.886C295.943 199.447 290.133 201.935 283.97 203.161C275.178 204.909 266.065 204.012 257.784 200.581C249.502 197.151 242.423 191.342 237.443 183.889C232.463 176.435 229.805 167.672 229.805 158.708C229.805 149.744 232.463 140.982 237.443 133.528C242.423 126.075 249.502 120.266 257.784 116.835C266.065 113.405 275.178 112.507 283.97 114.256C290.133 115.482 295.943 117.969 301.051 121.53C304.675 124.057 304.644 129.193 301.519 132.317L280.785 153.052C277.661 156.176 277.661 161.241 280.785 164.365L301.519 185.1Z" fill="#CF2029"/>
<path fill-rule="evenodd" clip-rule="evenodd" d="M362.075 127.865C359.706 124.932 359.706 120.744 362.075 117.811L412.072 55.9094C416.298 50.6774 412.574 42.8827 405.849 42.8827H357.159L356.159 42.8827L320.869 42.8827C316.45 42.8827 312.869 46.4644 312.869 50.8827V196.032C312.869 200.45 316.45 204.032 320.869 204.032H357.159L406.849 204.032C413.574 204.032 417.298 196.237 413.072 191.005L362.075 127.865Z" fill="#3DABE1"/>
<circle cx="615.023" cy="27.9772" r="11.1909" fill="#85D483"/>
</g>
<defs>
<filter id="filter0_d" x="0" y="0" width="647" height="230.381" filterUnits="userSpaceOnUse" color-interpolation-filters="sRGB">
<feFlood flood-opacity="0" result="BackgroundImageFix"/>
<feColorMatrix in="SourceAlpha" type="matrix" values="0 0 0 0 0 0 0 0 0 0 0 0 0 0 0 0 0 0 127 0"/>
<feOffset dy="4"/>
<feGaussianBlur stdDeviation="2"/>
<feColorMatrix type="matrix" values="0 0 0 0 0 0 0 0 0 0 0 0 0 0 0 0 0 0 0.25 0"/>
<feBlend mode="normal" in2="BackgroundImageFix" result="effect1_dropShadow"/>
<feBlend mode="normal" in="SourceGraphic" in2="effect1_dropShadow" result="shape"/>
</filter>
</defs>
</svg>
