<svg xmlns="http://www.w3.org/2000/svg" viewBox="0 0 473.41 129.91">
  <defs>
    <style>
      .cls-1 {
        fill: #e51e25;
      }

      .cls-2 {
        fill: #fff;
      }
    </style>
  </defs>
  <title>weeke0-logo</title>
  <g id="flower_2">
    <path class="cls-1" d="M137.55,228c-5.05,3.15-4.12,10.36-10.86,11.93-5.18,4.05-12.43,2.48-18.52,2.14-6.83-.76-13.59-2.59-19.29-6.52-3.67-.25-10.56-6-2.88-5.84,4.07-.73,11.45,2,13.77-1.23-5-3-13,2.12-16.36-1.21,5.54-3.35,12.62-3.66,18.94-4.82,4,1.54,5.87-3.68,1-2.59-5,.14-11.37,5-15.63,2.6,5.25-4.32,12.39-5.16,18.69-7.3-3-5.16-12.61.66-16.84,4-2.47,1.83-12.1,7.17-7.4.51,7.45-8.55,16.12-16.59,26.63-21.23,6.3-2.51,14.37-2,19.27,3.08,5.71.44,7.5,6.21,6.24,11,.54,3.7,5.52,6.29,4.55,10.72C138.71,224.86,138.64,226.68,137.55,228Zm-7.48,36.9c-3.75,2.76-9.81,6.72-10.22,11.77-3.56,3.36-8.16-4.2-10.37,1.24-5.62,3.86-11.68.73-17.72,7.27C81.69,281,77.17,269.8,74.64,259.93c-1.59-7.55-2.79-15.88-.09-23.25,4.52-.68,2.94,9.59,3.94,13.29-.86,3.1,1.8,9.74,2.74,3,0-2.37-3-12.75,1.46-7.55,2,3.26,3.78,12.72,8,11-2.13-5.37-6.91-9.62-8.77-15.32-2.71-7,3.94-.73,4.52,2.43,1,2.85,8.48,10.31,5.9,3-.85-3.65-9.53-8.41-6.37-11,4.69,3.46,9.57,6.92,15.25,8.7,4.14,1.77,8.88.72,13.24,1.5,6.65-.11,14.37,2.05,13.55,10.05,2.62,2.37,4,5.77,2,9.08ZM98.79,196.26c-4.82,8.37-14.17,13-19.3,21.06-4.2,0,1.68-8.63,3.66-10.59,4.93-3.55-1.77-7.77-2.78-1.76-2.36,2.37-2.13,12.75-5.9,10-.71-7.07,2.9-13.91,2.46-20.94-5.9,1.54-5.16,11.26-4.64,16.64,1.56,4.46-2.06,5.23-2.58.68-1.64-2.52-.66-14.49-4.4-8.74-1.71,3.28,5.64,12.52.09,11.47-9-8.28-16.59-20.35-14-33,.66-5.61,4.79-10.82,11.08-10.08,6.16-.07,11.68-6.61,18.3-2.64,2.79,3.21,8.26.2,11.23,2.38,2.65,4.24,6,8.32,4.89,13.7,3.36,3.39,4.12,7.66,1.89,11.83ZM73,280.61c-1.57,5.86-8.14,11.26-13.86,9.42-3.65-1.64-6.32,1.44-10.11.14-5-1.55-6.92-7.53-13.09-5.41-6.48-1.57-7.51-8.9-8.22-14.2-3-5.94-.87-13.79,3.45-18.55,2-2.23,8.89-7.82,1.86-5.26-7.25,4.22-18.08.77-21.49-6.87C11.78,233.29,1.88,229,7,222.25c6.4-3.4,4.28-13,11.41-15.38,6.59-2.76,13.85-.46,20.49.9A30.19,30.19,0,0,1,56.22,223c-4.16,3.95-8-7.49-12.43-3.88,2.06,4.41,12.08,5.38,11.6,9.11-5.85.23-13.47-6.46-17.85-2.63,3,4.55,12.44.21,14.46,4.48-2.38,1.36-12.9-1.33-9.92,3.32,4.92,2.08,12.54-3.36,15.68,0-1.94.51-12.52,4.82-6.57,5.09,3.19.08,10-5.56,10.79-1.87-4,2.55-14.71,4.67-13,10.2,4.87,1,10.45-9.56,12.69-6.18-3,4.28-9.26,7.57-10.64,12.16,6.38-1.15,9.58-7.95,13-12.79.76-3.71,6-4.7,2.85-.12-.61,3.23-7.28,8.83-3.66,10.7,4.19-2.4,3.94-13.23,8-12.4-.61,6.45-4,13.05-1.52,19.6.71,6.22,6,11.32,4.3,17.8-.28,1.7-.58,3.4-1,5.07Zm2.9-49.89c-5.15,4.25-12.28-1.78-14.74-6.64-6.89-8.41-12.13-18.22-19.91-25.84-3.94,4.56-6.79.38-8.05-3.5-7.33.7-3.34-5.68-.49-6.7-7.16-2.07-.41-7.54,3.85-4.13,2.29-6.74,9.6-3.69,6.31,2.51,6.9.52,3.38,7.45,3.12,10.57,5.86,7.25,12.08,14.37,19.65,19.91,3.83,3.82,13.4,7.09,10.26,13.82Z" transform="translate(-5.53 -167.07)"/>
  </g>
  <g id="title">
    <g>
      <path class="cls-2" d="M280.49,179.16a5.72,5.72,0,0,1,.87,2.37,5.21,5.21,0,0,1-.41,2.56,1,1,0,0,0-.09.46,2.79,2.79,0,0,1-.09.64l-.82.32a.64.64,0,0,0-.37.68c0,.25-.21.43-.63.55a.52.52,0,0,1-.28-.13.41.41,0,0,1-.18-.32,3.29,3.29,0,0,0-.37-1.88,4.77,4.77,0,0,1-.55-1.87,10.48,10.48,0,0,0-.46-2.42c-.24-.76-.52-1.54-.82-2.33a3.91,3.91,0,0,0-.69-1.18,1.69,1.69,0,0,0-1.33-.46,8.28,8.28,0,0,1-1.23-.09l-1.23-.18a2.36,2.36,0,0,0-1.56.37,2.25,2.25,0,0,1-1.41.36,6,6,0,0,1-1.6-.18,5.23,5.23,0,0,0-1.37,0c-1.64.49-3.29,1-4.93,1.56a24.24,24.24,0,0,0-4.66,2.11,34.89,34.89,0,0,1-3.24,1.78l-3.24,1.61a5.38,5.38,0,0,0-1.05.68,11.42,11.42,0,0,1-1.05.78c-1,.61-2.07,1.2-3.1,1.78a14.56,14.56,0,0,0-2.83,2.06,5.74,5.74,0,0,1-1.42,1.05q-.78.42-1.5.87a3.13,3.13,0,0,0-1.15,1,2.28,2.28,0,0,1-1.14.87c-.06,0-.15.22-.27.64a8,8,0,0,0,1.28-.42,2.64,2.64,0,0,0,1-.8,1.79,1.79,0,0,1,.69-.7,5.89,5.89,0,0,0,.86-.62,1.19,1.19,0,0,1-.41,1.15,8.32,8.32,0,0,1-1,.69q-1.92,1.47-3.93,2.8a38.69,38.69,0,0,0-3.83,2.88,42.51,42.51,0,0,0-3.43,2.89l-3.14,3c-1.1.92-2.1,1.84-3,2.76s-1.72,1.71-2.6,2.56-1.72,1.71-2.51,2.57-1.44,1.74-2.14,2.66-1.45,1.83-2.24,2.75a1.14,1.14,0,0,1-.54.27,7.6,7.6,0,0,1,1.14-1.69,3.4,3.4,0,0,0,.77-2,9.71,9.71,0,0,1-1.28,1.23,3.72,3.72,0,0,0-1,1.23,2.23,2.23,0,0,1-.59.83,6.08,6.08,0,0,0-.78.82c-.18.24-.38.49-.59.73a2.78,2.78,0,0,0-.5.82.41.41,0,0,0-.09.28,12.58,12.58,0,0,0-2.28,3.06,20.58,20.58,0,0,1-2.19,3.25,15.8,15.8,0,0,0-1.78,2.56c-.52.91-1.05,1.8-1.6,2.65-.36.55-.71,1.1-1.05,1.64a14.47,14.47,0,0,0-.86,1.65c-.43.67-.86,1.34-1.28,2a11.77,11.77,0,0,0-1.09,2.19,4.84,4.84,0,0,1-.87,1.65,10.06,10.06,0,0,0-1.05,1.55,18,18,0,0,0-1.5,3.25c-.4,1.13-.78,2.27-1.14,3.43a.15.15,0,0,0-.05.18.14.14,0,0,1,0,.18,9.62,9.62,0,0,1-1,1.19,2.73,2.73,0,0,0-.72,1.28c-.19.49-.34.94-.46,1.37a4,4,0,0,1-.64,1.28,14.69,14.69,0,0,0-.82,1.51,14.69,14.69,0,0,1-.82,1.51,3.69,3.69,0,0,1-.41.64,6.42,6.42,0,0,0-.41.54l-.27.28a1.58,1.58,0,0,1-.32,1.42,4.39,4.39,0,0,0-.78,1.32c-.12.37-.26.73-.41,1.1a2,2,0,0,1-.77.91.08.08,0,0,0-.09.09.09.09,0,0,1-.09.1,1.23,1.23,0,0,1-.46,1.32,2.25,2.25,0,0,0-.82,1.14l-.27,1.37a8.38,8.38,0,0,0-.32.92,1.72,1.72,0,0,1-.41.73,6.85,6.85,0,0,0-1.46,2.38,16.73,16.73,0,0,1-1.19,2.56q-.27.45-.18.54a3.24,3.24,0,0,1-.41,2.24c-.39.64-.77,1.3-1.14,2a1.61,1.61,0,0,0-.13.45,1.38,1.38,0,0,1-.23.55,17,17,0,0,1-1.55,4,12.79,12.79,0,0,0-.82,1.56,5.79,5.79,0,0,0-.46,1.83,11.5,11.5,0,0,1-.81,3.65,3.93,3.93,0,0,1-.73.87c-.31.27-.61.53-.92.78a3,3,0,0,1-2.19.46,7.15,7.15,0,0,0-1.37-.05c-.42,0-.88.05-1.37.05a17,17,0,0,1-2.47,0,8.46,8.46,0,0,1-2.37-.54,6.57,6.57,0,0,1-3.38-2.83,12.59,12.59,0,0,1-1.38-4.2,17.84,17.84,0,0,1-.37-6.21c.24-2.07.51-4.18.81-6.31.18-1.58.43-3.14.75-4.66s.63-3.07.93-4.66c.17-1.15.38-2.31.61-3.47s.47-2.32.71-3.47c.49-2.32,1-4.63,1.46-6.95s1-4.63,1.56-6.94,1-4.48,1.51-6.67,1.06-4.39,1.61-6.58q.72-2.83,1.55-5.58l1.65-5.48c.25-.91.52-1.81.83-2.7s.58-1.75.82-2.6c.37-1.16.71-2.32,1-3.47A31.78,31.78,0,0,0,173,206a2.07,2.07,0,0,1-.45.73,15.34,15.34,0,0,0-1.28,1.65A9.33,9.33,0,0,1,170,210a7.18,7.18,0,0,0-1.73,2.93,5.3,5.3,0,0,1-.86,1.69,16.6,16.6,0,0,0-1.14,1.69,1.57,1.57,0,0,1-.28.37.52.52,0,0,0-.18.36,2.26,2.26,0,0,1-.87,1.51,8.77,8.77,0,0,1-1.69,1c.61.61.61,1.1,0,1.46a1.56,1.56,0,0,0-.82,1.47,1,1,0,0,1-.28.73c-.42.49-.83.94-1.23,1.37a15.33,15.33,0,0,0-1.14,1.37c-.24.55-.47,1.13-.68,1.74s-.44,1.22-.69,1.83a.8.8,0,0,0-.22.45,1.94,1.94,0,0,1-.14.46,2.13,2.13,0,0,1-1.1,1.74,1,1,0,0,0-.54.82,14.82,14.82,0,0,1-1.73,4.34c-.79,1.31-1.62,2.64-2.47,4-.67,1.16-1.32,2.3-2,3.43s-1.29,2.27-2,3.42c-.54,1-1.11,1.92-1.68,2.84s-1.17,1.83-1.78,2.74c-.67,1.22-1.34,2.39-2,3.52s-1.34,2.27-2,3.43c-.49.85-1,1.66-1.42,2.42s-.92,1.54-1.41,2.33-.93,1.57-1.32,2.33-.84,1.54-1.32,2.33-.86,1.41-1.28,2c-.12.37-.31.55-.55.55a2.7,2.7,0,0,0-1,.19c-.31.12-.63.26-1,.41a4.7,4.7,0,0,1-1,.32,1.59,1.59,0,0,1-1-.18.74.74,0,0,0-.32-.09.78.78,0,0,1-.32-.09c-.12-.25-.22-.49-.32-.73s-.2-.58-.32-1a7.32,7.32,0,0,1,.64-.36c.24-.13.52-.28.82-.46-.49-.31-.91-.6-1.28-.87l-1.19-.87a2.81,2.81,0,0,0-.73.19,16.62,16.62,0,0,0-1.41-1.92,9.16,9.16,0,0,0-1.88-1.65,3.18,3.18,0,0,1-.27-.87.9.9,0,0,0-.74-.68c-.12-.06-.19-.22-.22-.46a5.42,5.42,0,0,1-.05-.64c.12-.79.26-1.57.41-2.33s.32-1.54.5-2.34l.82-4.11a6.68,6.68,0,0,1,.45-1.19,9.21,9.21,0,0,0,.46-1.1c.67-1.95,1.3-3.94,1.91-5.95s1.24-4,1.91-6c.55-1.65,1.14-3.29,1.78-4.94s1.19-3.3,1.68-4.94q1.18-3.66,2.32-7.32c.76-2.44,1.47-4.92,2.14-7.42a18.88,18.88,0,0,0,.64-3.11c.12-1,.24-2.1.36-3.2-.43-.18-.82-.37-1.19-.55s-.76-.36-1.19-.54c-1-.43-1.49-1-1.37-1.74a2.43,2.43,0,0,1,1-1.42,3.1,3.1,0,0,1,1.5-.69H139a5,5,0,0,1,.27.64,4,4,0,0,0,.28.64,11.1,11.1,0,0,1,1.37-.09c.42,0,.88,0,1.37-.1v.31l-.6.21a7.27,7.27,0,0,0-.77.31,1.15,1.15,0,0,0,1.14.5,2.09,2.09,0,0,1,1.14,0l1,.41c.36.15.73.29,1.1.41l-.46.6a4.91,4.91,0,0,1-.46.5,2.66,2.66,0,0,1,.78.45,2.87,2.87,0,0,0,.69.46,1.7,1.7,0,0,1,.82,1.46,11.88,11.88,0,0,0,.28,1.6c.12.52.24,1,.36,1.6.12.3.12.52,0,.64a1.85,1.85,0,0,0-.27,1.46,3,3,0,0,1,0,1.46c0,.37,0,.73,0,1.1a1.41,1.41,0,0,1-.69,1,.33.33,0,0,0-.18.32.88.88,0,0,1-.09.41,5.74,5.74,0,0,1,0,2.15c-.15.7-.32,1.39-.5,2.06a6.75,6.75,0,0,0-.32,1,1.57,1.57,0,0,1-.69.87c-.18.12-.27.39-.27.82-.24.91-.52,1.81-.82,2.69A6.78,6.78,0,0,1,142,232.3a.69.69,0,0,0-.09.27.69.69,0,0,1-.09.27c-.3.86-.61,1.67-.91,2.43a15.14,15.14,0,0,0-.73,2.42,16.38,16.38,0,0,1-.77,2.88c-.34.88-.66,1.81-1,2.78s-.59,1.71-.86,2.56-.57,1.71-.87,2.56c-.48,1.4-.94,2.82-1.36,4.25s-.79,2.88-1.1,4.34a12.92,12.92,0,0,1-.45,1.46,4.49,4.49,0,0,0-.27,1.56c0,.67,0,1.31-.05,1.92s-.07,1.28-.13,2a1.63,1.63,0,0,0,.64-.64q1.36-2.39,2.73-4.62t2.74-4.62c1-1.7,1.94-3.29,2.92-4.75l2.37-3.84,2.37-3.84c.42-.67.87-1.33,1.32-2a17.75,17.75,0,0,0,1.23-2c.43-.79.85-1.55,1.28-2.29s.88-1.49,1.37-2.28q1.28-2.1,2.5-4.21c.83-1.4,1.66-2.8,2.51-4.2l2.33-3.93q1.14-1.92,2.41-3.93c.43-.67.87-1.34,1.33-2s.89-1.34,1.32-2c.24-.36.47-.71.68-1.05s.41-.68.6-1q1.28-1.83,2.46-3.56t2.46-3.57c.79-1.1,1.63-2.19,2.51-3.29s1.75-2.16,2.6-3.2c.24-.31.47-.61.68-.92a7.74,7.74,0,0,1,.78-.91,2.75,2.75,0,0,1,.59-.59c.21-.16.5-.08.87.22a2.08,2.08,0,0,0,1.55.55,1.06,1.06,0,0,1,1,.36,4.41,4.41,0,0,1,.42.92.91.91,0,0,1-.83-.05q-.45-.22-.54.69c.67.3,1.29.61,1.87.91s1.2.64,1.87,1a9.08,9.08,0,0,1,1.28,1c.37.33.74.68,1.1,1.05l.73.91a8,8,0,0,1,.64.91,3,3,0,0,1,.55,2.24,3.72,3.72,0,0,1-.82,2.33,2.16,2.16,0,0,0-.36.46,2.14,2.14,0,0,0-.41,1.42,1.45,1.45,0,0,1-.87,1.32,2.49,2.49,0,0,0-.86,1.1c-.22.49-.41,1-.59,1.46a6.53,6.53,0,0,0-.55,1.51,7,7,0,0,1-.55,1.51,1.14,1.14,0,0,1-.36.82,4.27,4.27,0,0,0-.91,2c-.13.73-.25,1.43-.37,2.1a10.06,10.06,0,0,0-.32,1,7.87,7.87,0,0,1-.31,1,5.31,5.31,0,0,1-.6,1.42c-.27.46-.53.93-.77,1.42a1,1,0,0,0-.18.59,1,1,0,0,1-.19.59,5.8,5.8,0,0,1-.41.87c-.15.28-.28.57-.41.87.31.12.45.31.42.55a4,4,0,0,1-.23.82c-.31.67-.58,1.3-.82,1.87s-.52,1.21-.82,1.88a5,5,0,0,0-.73,1.74c-.12.3-.23.57-.32.82l-.32.82q-.18.64-.36,1.23a4.28,4.28,0,0,0-.18,1.24,23.05,23.05,0,0,1-1.18,6.12.35.35,0,0,0-.1.41.49.49,0,0,1,0,.41c-.18.73-.37,1.45-.59,2.15s-.44,1.48-.68,2.33a.26.26,0,0,0,.09.18l.28.28a2.83,2.83,0,0,0-.82.55,2.41,2.41,0,0,1,.27,1.41,5.14,5.14,0,0,1-.36,1.33,25.6,25.6,0,0,0-1,3.29,17.89,17.89,0,0,0-.5,3.38.61.61,0,0,1-.18.45,4.5,4.5,0,0,0-1,2.84,7.37,7.37,0,0,1-.64,3,.08.08,0,0,0,.09.09l.19.09c.3-.6.62-1.21,1-1.82s.65-1.22,1-1.83a15.87,15.87,0,0,1,1-2.24,18.46,18.46,0,0,0,1.05-2.24,34.05,34.05,0,0,1,2.14-4.71q1.23-2.24,2.41-4.61c.61-1.28,1.26-2.53,2-3.75s1.38-2.47,2.05-3.75c.49-.85,1-1.74,1.42-2.65s.92-1.8,1.41-2.65l2.74-4.39a2.4,2.4,0,0,0,.13-.32.92.92,0,0,1,.23-.32l1.64-2.74c.55-.92,1.1-1.8,1.64-2.65a6.41,6.41,0,0,0,.64-1,6.17,6.17,0,0,1,.64-1c.37-.67.74-1.31,1.14-1.92s.81-1.25,1.23-1.92H195a2.58,2.58,0,0,1,.55-1.69c.36-.46.72-.9,1.09-1.33a4.55,4.55,0,0,0,1-1.14l.82-1.33,1.78-2.47c.58-.79,1.2-1.58,1.87-2.37.85-1,1.72-1.92,2.6-2.84s1.75-1.86,2.6-2.83,1.59-1.74,2.38-2.66,1.61-1.79,2.46-2.65q2.19-1.92,4.34-3.9a42.29,42.29,0,0,1,4.51-3.62q.56-.47,1.05-1c.34-.34.69-.66,1-1l4.52-3.25,4.52-3.26c2-1.41,3.91-2.72,5.89-4s4-2.39,6.16-3.49q2.19-1.19,4.47-2.16l4.66-2a28.76,28.76,0,0,1,3.24-1.29c1.13-.36,2.21-.73,3.24-1.1a8.16,8.16,0,0,1,1.65-.37,13.07,13.07,0,0,0,1.64-.28,6.86,6.86,0,0,1,.69-.13,5.51,5.51,0,0,1,.77-.05,1.44,1.44,0,0,1,.83-.09,13.87,13.87,0,0,0,2.51.34,4.17,4.17,0,0,1,2.33.84,2.28,2.28,0,0,0,.78.23c.27,0,.56.07.86.13.49.13,1,.23,1.42.32s.9.2,1.33.32a3.35,3.35,0,0,0,.77.27c.28.06.41.31.41.73,0,.19.13.28.37.28a5.76,5.76,0,0,1,2.74,3,8,8,0,0,0,.69,1.37C279.9,178.21,280.18,178.67,280.49,179.16Zm-154,76.45c1-2,1.46-3.44,1.27-4.48l-.32.64a10.32,10.32,0,0,0-.45,1.1c-.15.42-.29.84-.41,1.23a3.54,3.54,0,0,0-.18,1C126.3,255.06,126.33,255.24,126.46,255.61Zm1.91-5.85a3.61,3.61,0,0,0,.36-1.37.52.52,0,0,0-.36-.09,3.7,3.7,0,0,0-.32.59C128,249.11,128.06,249.4,128.37,249.76Zm.55-2.19c.12-.31.22-.6.31-.87a5.83,5.83,0,0,0,.23-.87.37.37,0,0,0-.27-.09,2.74,2.74,0,0,1-.5.82,1.05,1.05,0,0,0-.23.92.64.64,0,0,1,.27,0A.41.41,0,0,0,128.92,247.57Zm1-3.2q.27-.47.54-1a1.39,1.39,0,0,0,0-1.23,4.56,4.56,0,0,0-.68,1.18A2.82,2.82,0,0,0,129.92,244.37Zm27.2-17.66a4.78,4.78,0,0,0,1.23-.87c.1-.15.05-.47-.13-1q-.47.45-.87.78C157.07,225.87,157,226.22,157.12,226.71ZM161,268.38a.84.84,0,0,1,.23.73c0,.31.2.5.69.56.18-.5.35-1,.5-1.48s.29-1,.41-1.47-.12-.73-.73-.73l-.27,1.65-.6-.27a1.25,1.25,0,0,1-.41-.28,5.2,5.2,0,0,1,.46-.41c.18-.16.33-.29.45-.42a7.32,7.32,0,0,0-.36-.64,1.86,1.86,0,0,1-.28-.64c.12-.12.26-.24.41-.37a5,5,0,0,0,.41-.36,5.23,5.23,0,0,1,.28.64l.18.55a7.23,7.23,0,0,0,1-2.93,8.27,8.27,0,0,0,.23-1.41c0-.46,0-.93,0-1.42a1.64,1.64,0,0,0-.59.87,5.84,5.84,0,0,0-.18,1l-.09,1a1.42,1.42,0,0,1-.41.87,1,1,0,0,1-.46.09,4.06,4.06,0,0,0-.73.09c.18-.37.35-.72.5-1.05s.29-.65.41-1a.63.63,0,0,0,.19-.46,6.23,6.23,0,0,1,.08-1.87,7,7,0,0,1,.55-1.69,4.09,4.09,0,0,0,.37-.82,15.47,15.47,0,0,1,.77-2.79,7,7,0,0,0,.41-2.88.37.37,0,0,1,.09-.27,2,2,0,0,0,.09-2.47c.3-.85.57-1.64.82-2.38s.51-1.46.82-2.19a2.53,2.53,0,0,1-.32-.68c-.1-.28-.36-.38-.78-.32-.18.67-.37,1.34-.55,2l-.54,2a2,2,0,0,1-.32.77,1.35,1.35,0,0,0-.23.78,29.65,29.65,0,0,1-.54,3.15c-.25,1.07-.46,2.12-.64,3.16a9.2,9.2,0,0,1-.59,2,6.28,6.28,0,0,0-.5,2,13.61,13.61,0,0,1-.87,3.6,8.9,8.9,0,0,0-.59,3.61.18.18,0,0,1,0,.14.2.2,0,0,0-.05.14,24.06,24.06,0,0,1-.5,2.69,27.3,27.3,0,0,0-.5,2.7c-.12.91-.33,1.46-.63,1.64a16,16,0,0,0-.37,2.11c-.06.12-.12.26-.18.41a.49.49,0,0,0,0,.41,7.1,7.1,0,0,1,.1,2.51c-.13.82-.25,1.63-.37,2.42q-.18.73.09.87a3.16,3.16,0,0,0,.83.23,7.56,7.56,0,0,1,.18-1.49,1,1,0,0,1,.18-.71,1,1,0,0,1,.5,0,2.1,2.1,0,0,0,.41,0c.12-.61.23-1.21.32-1.79s.2-1.21.32-1.88c-.24.12-.44.21-.59.27l-.69.28.27-.55a.89.89,0,0,0,.1-.37,11.18,11.18,0,0,1,.36-2.12c.18-.67.39-1.35.64-2a2.18,2.18,0,0,0,0-2.12,3.69,3.69,0,0,1,.41-.64A6.52,6.52,0,0,0,161,268.38Zm-3.09,15.15a1.31,1.31,0,0,0,.19-.55l-.37-.18a1.52,1.52,0,0,1-.18.64.38.38,0,0,1,.23,0A.17.17,0,0,0,157.91,283.53Zm1.56-1.74a1.49,1.49,0,0,0-.05-.36.49.49,0,0,1,.05-.37h-.37a.54.54,0,0,0-.18.37.8.8,0,0,1-.09.36Zm-.43-58.1a.73.73,0,0,1,.18-.14.45.45,0,0,0,.18-.23l-.18-.36a.69.69,0,0,1-.23.27c-.09.07-.14.13-.14.19S158.91,223.57,159,223.69Zm.54-1.1c.67-.06,1-.26,1-.59a4.89,4.89,0,0,1,.09-1c-.43.12-.67.34-.73.64A2.69,2.69,0,0,1,159.58,222.59Zm1.1-1.64.77-.6.87-.68-.55-.82a11.22,11.22,0,0,0-.82.91A1.55,1.55,0,0,0,160.68,221ZM162,284.44c.24-.73-.1-1-1-.91a.79.79,0,0,1,.37.63,3.12,3.12,0,0,1-.09.74,5.88,5.88,0,0,0-.14.73.91.91,0,0,0,.32.73c.12-.37.23-.7.32-1S162,284.74,162,284.44Zm.36-1.92q-.09,0,0-.09l.37-.18a3.83,3.83,0,0,0-.46-.55l-.46-.46a.26.26,0,0,0-.18.09c-.12.13-.18.22-.18.28C161.48,282.15,161.78,282.46,162.39,282.52Zm1.48-66.12a.56.56,0,0,0,0-.38.48.48,0,0,1,0-.37.33.33,0,0,1-.27-.1,9.46,9.46,0,0,0-1.83,3.3,3.31,3.31,0,0,0,.55,0c.18,0,.28-.08.28-.14a1.93,1.93,0,0,1,.4-1.27Zm-1.21,61.37a.37.37,0,0,1-.23,0,.2.2,0,0,0-.14,0,1.48,1.48,0,0,1-.09.45,1.59,1.59,0,0,0-.09.46h.28Zm0,1.28a6.59,6.59,0,0,0-.55.46.5.5,0,0,0,.19.36.26.26,0,0,1,.18-.09q.09,0,.27-.18C162.81,279.54,162.78,279.35,162.66,279.05Zm1.27-5.67a.86.86,0,0,0-.64-1.28,3.84,3.84,0,0,0-.59,2.47,4.54,4.54,0,0,1-.5,2.56c.92-.06,1.28-.43,1.1-1.1a3.06,3.06,0,0,1,.09-1.28,4.51,4.51,0,0,1,.22-.68Zm3.18-14.53a3.29,3.29,0,0,0,.28-1.37,12,12,0,0,1,.09-1.46,1.54,1.54,0,0,0-1,.64,1.68,1.68,0,0,0-.27.82,22.84,22.84,0,0,0-.41,2.33,13.31,13.31,0,0,1-.5,2.33,2.75,2.75,0,0,0-.18,1,2.7,2.7,0,0,1-.18,1,33.06,33.06,0,0,0-.91,3.52c-.24,1.19-.46,2.42-.64,3.7a4,4,0,0,0,1.1-1.37,8.13,8.13,0,0,0,.45-1.46,11.65,11.65,0,0,0,.09-1.42,1.87,1.87,0,0,1,.64-1.32.35.35,0,0,0,0-.55.76.76,0,0,1-.09-.78,6.29,6.29,0,0,0,.36-.77,1.2,1.2,0,0,0,.09-.51.65.65,0,0,1,.19-.5,4.13,4.13,0,0,0,.4-2A3.35,3.35,0,0,1,167.11,258.85Zm-3.38-.54-.18.46.37.36.18-.37C164.1,258.71,164,258.55,163.73,258.31Zm1.55-4.94a2.17,2.17,0,0,0-.91,2.65,3.09,3.09,0,0,1,.73-.18ZM164.51,215a2.07,2.07,0,0,0,1.18-1.92,5.66,5.66,0,0,0-.95.82A1.34,1.34,0,0,0,164.51,215ZM165.82,241c-.37.43-.55.68-.55.78s.18.29.55.59Zm-.18,10.6a1.64,1.64,0,0,0,.64-1.33A10.14,10.14,0,0,0,166,249a1.58,1.58,0,0,1-.37,1.23A1.09,1.09,0,0,0,165.64,251.55Zm3.16-42.67a2.12,2.12,0,0,0,.95-1.19,9,9,0,0,1,.6-1.46,3.4,3.4,0,0,0-1.42,1.28,16.15,16.15,0,0,1-1.05,1.55,17.35,17.35,0,0,1-1,1.51,5.09,5.09,0,0,0-.86,1.88,4.34,4.34,0,0,0,1.41-1.06,6.42,6.42,0,0,0,.87-1.32A2.32,2.32,0,0,1,168.8,208.88Zm-1.51,44.67a2.07,2.07,0,0,0,1.14-1.18,2.53,2.53,0,0,0-.05-1.83A3.8,3.8,0,0,0,167.29,253.55Zm1.91-6.48a1.45,1.45,0,0,0,.46-.19,1.44,1.44,0,0,1-.28-.45,1,1,0,0,0-.45.36A.25.25,0,0,0,169.2,247.07ZM172.88,267c.24-.49.44-.93.59-1.33s.32-.8.5-1.23A2.47,2.47,0,0,0,172.88,267Zm4.83-10.24a2.14,2.14,0,0,1,.27-1.1c.18-.3.4-.64.64-1q1.09-1.92,2.1-3.93c.24-.43.18-.73-.19-.92a2.14,2.14,0,0,1,.83-.27c.3-.55.57-1,.82-1.42a4.8,4.8,0,0,0,.54-1.23,7.91,7.91,0,0,1,1.1-1.65,2.5,2.5,0,0,0,.63-1.73,1.76,1.76,0,0,1,.46-.64,13.82,13.82,0,0,1,1-1.56,4,4,0,0,0,.73-1.73,1.72,1.72,0,0,1,.55-.74,3.19,3.19,0,0,0,.68-1c.16-.33.29-.65.41-1a1.65,1.65,0,0,1,.28-.73,17.76,17.76,0,0,0,1.55-2.37c.3-.43.59-.83.87-1.19a2.18,2.18,0,0,0,.4-1.37.27.27,0,0,1,.1-.19,1,1,0,0,0,.18-.27c.48-.79,1-1.55,1.46-2.29s1-1.46,1.46-2.19,1.08-1.72,1.59-2.61a10.13,10.13,0,0,1,1.87-2.33,5.44,5.44,0,0,1,1.32-2.46,11.9,11.9,0,0,0,1.69-2.29,9.83,9.83,0,0,1,1.87-2.33A15.27,15.27,0,0,0,205,212a3.47,3.47,0,0,1,.59-.78,2.23,2.23,0,0,0,.5-.78,4.37,4.37,0,0,0,.32-.55.69.69,0,0,1,.41-.36,1.88,1.88,0,0,0,.82-.78,10.36,10.36,0,0,0,.46-1,.74.74,0,0,0,.09-.32.32.32,0,0,1,.09-.23,2.77,2.77,0,0,0,1.55-1,4.25,4.25,0,0,1,1.37-1.19,1,1,0,0,0,.55-.87,1.85,1.85,0,0,0-.37-1.33,1.66,1.66,0,0,0-.09.51.91.91,0,0,1-.09.41,4.56,4.56,0,0,1-.73.73,3,3,0,0,0-.64.64c-.37-.3-.64-.33-.82-.09a6.07,6.07,0,0,1-.55.64,21.84,21.84,0,0,0-1.73,1.74L202.87,212q-1.37,1.83-2.69,3.57t-2.78,3.56a10.85,10.85,0,0,1-1.09,1.46L195,222.1v.36c-.37.61-.75,1.21-1.14,1.79s-.78,1.17-1.14,1.78c-.91,1.52-1.79,3.05-2.64,4.57s-1.74,3-2.65,4.48c-1.09,1.77-2.16,3.56-3.19,5.39s-2,3.66-3,5.49c-.61,1.15-1.18,2.3-1.73,3.42s-1.13,2.27-1.73,3.43c.36.25.53.49.5.73a4.14,4.14,0,0,1-.32,1,10.07,10.07,0,0,1-.73.82,1.57,1.57,0,0,1-1.28.28c.55.36.83.71.83,1a2.3,2.3,0,0,1-.28,1.05,13.11,13.11,0,0,0-1.55,3,4,4,0,0,0-.41,1,1.49,1.49,0,0,0,.05,1l.55-1.1c.36-.67.73-1.29,1.09-1.87s.73-1.17,1.1-1.78a3.38,3.38,0,0,0,.31-.6A.77.77,0,0,0,177.71,256.74Zm1.27-4.11v-.87c0-.27.24-.47.73-.59A8.65,8.65,0,0,0,179,252.63Zm1,2.37a1.35,1.35,0,0,0,.23-.27,1.66,1.66,0,0,1,.23-.28l-.19-.18a1.35,1.35,0,0,1-.27.23,1.35,1.35,0,0,0-.27.23Zm.09,1.83a2.26,2.26,0,0,0,1.56-2.38,1.65,1.65,0,0,0-1,1A7.67,7.67,0,0,1,180.08,256.83Zm.36-7.13c-.18-.48,0-.94.64-1.37-.12.31-.23.57-.32.78A3.7,3.7,0,0,1,180.44,249.7Zm0,0a.08.08,0,0,1,.09.09h-.09Zm1.92.55a1.83,1.83,0,0,0-.87,1c-.09.37-.19.74-.31,1.1a1.94,1.94,0,0,0,.86-.87A4.23,4.23,0,0,0,182.36,250.25Zm.63-5.94a3,3,0,0,1-.45,1.28,4.13,4.13,0,0,0-.55,1.28,1.58,1.58,0,0,1-.45-.18,7,7,0,0,0,.77-1.15C182.52,245.15,182.75,244.74,183,244.31Zm58.13-58.44a.3.3,0,0,0,.19-.27.52.52,0,0,1,.18-.37,6.33,6.33,0,0,0-1.19.09,1.32,1.32,0,0,1,.27-.64c.19-.3.4-.62.64-1a11.42,11.42,0,0,0,.64-1,1.4,1.4,0,0,0,.37-.82c0-.24-.19-.42-.55-.55-.49.37-1,.77-1.42,1.19a5.86,5.86,0,0,1-1.41,1,6,6,0,0,0-2.06,1.33,3.66,3.66,0,0,1-2.14,1.05,7.4,7.4,0,0,1-2.28,2c-.86.45-1.71,1-2.56,1.51a.81.81,0,0,0-.23.36.84.84,0,0,1-.23.37,5.91,5.91,0,0,0,1.37-.1.34.34,0,0,0,.1.28l-.92.55c-.3.18-.64.36-1,.55-.31-.31-.58-.41-.82-.32a4.68,4.68,0,0,0-1.28,1.14,2.57,2.57,0,0,1,.59-.09,2.72,2.72,0,0,0,.6-.09,10.6,10.6,0,0,1-1.19,1,2.83,2.83,0,0,1-1.1.32,1.33,1.33,0,0,1,.28-.23,1.35,1.35,0,0,0,.27-.23c-.37-.12-.61-.06-.73.18q-2.37,1.74-4.47,3.39c-.13.12-.34.31-.64.55s-.31.58,0,1c.12.13.06.31-.18.55l-1.1.92c-.36.3-.76.61-1.18.91l.36-.8a8.54,8.54,0,0,0,.36-.94,7,7,0,0,0-.59.51l-.41.41a16.54,16.54,0,0,0-1.51,1.34,4.52,4.52,0,0,0-1,1.8c0,.12-.11.24-.32.37a6.83,6.83,0,0,0-.6.37.68.68,0,0,1-.5.18.68.68,0,0,0-.5.18c-.55.68-1.1,1.31-1.64,1.9a6.07,6.07,0,0,0-1.28,2.07c-.12.43-.24.65-.37.65a1.41,1.41,0,0,0-.91.83,8.49,8.49,0,0,1-.45,1.1,6.5,6.5,0,0,1-.46-.82c-.31.3-.58.56-.82.77a2,2,0,0,0-.55.78,21.91,21.91,0,0,1-1.41,2.42,14.52,14.52,0,0,1-1.78,2.15,14,14,0,0,0-1.28,1.47l-1.09,1.46a2.31,2.31,0,0,1-.23.18.26.26,0,0,0-.14.19.82.82,0,0,1-.23.82,5,5,0,0,0-.68.73,13.53,13.53,0,0,1-1.1,1.33,1.87,1.87,0,0,0-.45,1.69,8.43,8.43,0,0,1-1,.64,6.49,6.49,0,0,0-1.05.73,9.14,9.14,0,0,0,.92.82,1.31,1.31,0,0,0-.92.14,2.47,2.47,0,0,0-.59.5,3.35,3.35,0,0,0-.41.64,1.22,1.22,0,0,1-.55.55c.12.18.21.33.28.46a1.41,1.41,0,0,0,.27.36,1.08,1.08,0,0,0-.46.28c-.3.3-.62.61-.95.91a3.35,3.35,0,0,0-.78,1c-.18.36-.35.73-.5,1.09a3,3,0,0,1-.69,1v.36l-.18.37a.29.29,0,0,1-.27.18.83.83,0,0,0-.55.51,4,4,0,0,1-.27.68,2.18,2.18,0,0,1-.37.91,9.64,9.64,0,0,0-1.82,2.79,22.85,22.85,0,0,1-1.46,2.88c.3.12.52.11.64,0a3.51,3.51,0,0,0,.36-.6,10.34,10.34,0,0,0,.78-1.23c.21-.4.47-.84.78-1.33l.18.64a2.91,2.91,0,0,0-.82,1.42,2.28,2.28,0,0,1-.91,1.32.67.67,0,0,0-.19.51,1.87,1.87,0,0,1-.09.59c-.12.31-.24.64-.36,1a1.19,1.19,0,0,1-.55.73,1.08,1.08,0,0,0-.45,1.19c-.31.36-.58.67-.83.91a2.44,2.44,0,0,0-.54.82,2.36,2.36,0,0,1-.69.83,5.18,5.18,0,0,1-1,.18,2.44,2.44,0,0,1,.55.91,7,7,0,0,1-.41.87,7,7,0,0,0-.41.87,4.42,4.42,0,0,1-.23.82,1.67,1.67,0,0,1-.59.73c-.49.43-.45.92.09,1.46.19-.3.34-.56.46-.77s.24-.44.36-.69A16.4,16.4,0,0,0,184,251a16.58,16.58,0,0,1,.87-1.56c.24-.36.48-.71.73-1s.51-.68.82-1.05a15,15,0,0,0,1.55-2.79,7.77,7.77,0,0,1,1.91-2.69.39.39,0,0,0,.09-.28,1.45,1.45,0,0,1,.46-1.32,3.21,3.21,0,0,0,.82-1.24c.18-.42.38-.83.59-1.23a11,11,0,0,0,.6-1.33.68.68,0,0,0,.13-.18,1.35,1.35,0,0,1,.23-.27c.12-.19.24-.38.36-.6s.25-.41.37-.59l1.23-2,1.23-2a.54.54,0,0,1,.37-.19,1.08,1.08,0,0,0,1.18-.82c.61-.85,1.19-1.68,1.74-2.47s1.09-1.61,1.64-2.47a2.65,2.65,0,0,1-.18-.64l-.6.74c-.15.18-.32.39-.5.64-.12-.67-.11-1.09,0-1.24a4.76,4.76,0,0,1,1.51-.59,3.32,3.32,0,0,1,0-1.42,1.78,1.78,0,0,1,.86-.5,3.06,3.06,0,0,1,.1.82,6.52,6.52,0,0,0,1.23-1.37,2.12,2.12,0,0,0,.13-1.19c1.22.12,1.71-.73,1.46-2.56a5.15,5.15,0,0,1,1.1.18,16.4,16.4,0,0,0,1-1.74l-.68.28a4.14,4.14,0,0,0-.41.18c.66-.85,1.3-1.72,1.91-2.6a9,9,0,0,1,2.19-2.24c-.43.61-.87,1.2-1.32,1.78l-1.42,1.78a1.44,1.44,0,0,0,.37.28,6.52,6.52,0,0,1,.55-.51,4,4,0,0,0,.55-.59l1.68-2.1c.58-.74,1.14-1.47,1.69-2.2a5.2,5.2,0,0,0,.41-.46c.15-.18.2-.33.14-.45a.74.74,0,0,1,.18-.87,2.36,2.36,0,0,0,.55-.69,3.34,3.34,0,0,1,1-1.09,1.74,1.74,0,0,0,.73-1.28c0-.06.12-.16.37-.28a2.87,2.87,0,0,0,1.18-.69,2,2,0,0,1,1.37-.5.31.31,0,0,0,.28-.18.66.66,0,0,1,.27-.28l-.55-.36c.37-.37.7-.72,1-1s.64-.69,1-1.05l-.69-.14-.68-.14.64-.5c.18-.15.39-.32.64-.5.12.48.32.73.59.73a.63.63,0,0,0,.59-.46,1.41,1.41,0,0,1,.87-.92,2.45,2.45,0,0,0,1-.64,6,6,0,0,1,.87-.73,11.19,11.19,0,0,0,1-.73,3.85,3.85,0,0,0-.32-.3.62.62,0,0,1-.23-.29c-.13-.13-.19-.23-.19-.3a.91.91,0,0,0-.09-.3,1,1,0,0,0,.32,0,.42.42,0,0,1,.32,0,.57.57,0,0,1,.32.09,3.54,3.54,0,0,0,.5.28,2.46,2.46,0,0,1-.22-.59.88.88,0,0,0-.23-.39,11.92,11.92,0,0,1,2.1-1.4,1.94,1.94,0,0,0-.19.69.91.91,0,0,1-.09.41,2.76,2.76,0,0,0,1.46-.23q.73-.33,1.65-.78l-1.1-.32c-.3-.09-.61-.2-.91-.32l4.11-3c.3-.18.6-.35.91-.5s.42-.47.36-1h1a1.07,1.07,0,0,0,.64,1l.09-1.82a1,1,0,0,1,.59.27.4.4,0,0,1,.05.41c-.06.15-.12.34-.18.55a.85.85,0,0,0,0,.59l.82-1a9.69,9.69,0,0,1,.82-.92h.41a.93.93,0,0,0,.5-.18c.49-.31,1-.58,1.46-.83A14.19,14.19,0,0,0,241.12,185.87Zm-58,58.35H183l.1-.09Zm0,0c-.07,0-.1,0-.1.09v-.09Zm0-.09a20.28,20.28,0,0,1,1-2.1,9.88,9.88,0,0,1,1.37-1.93,6.83,6.83,0,0,0-1.05,2.11A4,4,0,0,1,183.09,244.13Zm2,1.55a.39.39,0,0,0-.28-.09c-.12.24-.24.47-.36.68a7.22,7.22,0,0,0-.37.78.2.2,0,0,1,.14,0,.16.16,0,0,0,.14,0A1.31,1.31,0,0,0,185.1,245.68Zm0-.92a7.5,7.5,0,0,0,.73-.22.8.8,0,0,0,.45-.33,6,6,0,0,0,.37-1.37c.06-.42.15-.88.27-1.37a9.27,9.27,0,0,0-1.23,1.51A3.8,3.8,0,0,0,185.1,244.76Zm3.27-10a13.43,13.43,0,0,1-.59,1.37,14.68,14.68,0,0,0-.59,1.38.37.37,0,0,1-.23-.05.2.2,0,0,0-.14-.05,9.56,9.56,0,0,0,.6-1.46A2.19,2.19,0,0,1,188.37,234.8Zm.19-.09a.28.28,0,0,0-.19.09l.1-.09Zm.09-.82.36.18a1.88,1.88,0,0,0-.45.64,2.1,2.1,0,0,1,0-.41A2.17,2.17,0,0,0,188.65,233.89Zm2.1,2.55a1.38,1.38,0,0,0,.23-.59,3.23,3.23,0,0,1,.23-.78l.82.83a.47.47,0,0,1-.18.22.25.25,0,0,0-.09.23,2.27,2.27,0,0,0-.42.05A3.2,3.2,0,0,1,190.75,236.44Zm2.73-9.68-.41.59c-.15.22-.29.41-.41.6a.26.26,0,0,0-.14-.09s-.07,0-.13-.1a4.8,4.8,0,0,0,.82-1.18c.06.06.1.09.13.09A.26.26,0,0,1,193.48,226.76Zm-.45,6,.09.27a3.67,3.67,0,0,1-.64.28v-.28Zm8.48-17.73a4.77,4.77,0,0,1-.5.59,2.57,2.57,0,0,0-.51.69l-.18-.19.5-.68.5-.69C201.45,214.9,201.51,215,201.51,215.06Zm.28,4.65.18.19a2.25,2.25,0,0,0-.46.27l-.18-.18Zm.18-1,.18-.18a.51.51,0,0,1,.23.18,1.07,1.07,0,0,0,.23.27c-.12.13-.22.19-.28.19a.51.51,0,0,0-.18-.23A.51.51,0,0,1,202,218.71Zm.92,10.23a2,2,0,0,0,.37-.55.17.17,0,0,1,.13.05.2.2,0,0,0,.14,0,2,2,0,0,1-.36.55.2.2,0,0,1-.14,0A.2.2,0,0,0,202.89,228.94Zm4.82-18a.26.26,0,0,1-.09-.14s0-.07-.09-.14a1.68,1.68,0,0,1,.46-.13,1.78,1.78,0,0,0,.46-.14,1.64,1.64,0,0,1-.37.27A2.12,2.12,0,0,0,207.71,210.94Zm5-8.41c-.18.12-.36.26-.55.41s-.12.44.19.87c.12-.25.22-.46.32-.64a1.61,1.61,0,0,1,.31-.46c-.06-.06-.1-.09-.13-.09A.26.26,0,0,1,212.73,202.53Zm.74,3.65c0-.61.33-.91,1-.91l-.59.55A3.76,3.76,0,0,0,213.47,206.18Zm1.81-7.22a6.19,6.19,0,0,1-.5,1.14c-.21.4-.41.81-.59,1.24a1.51,1.51,0,0,0,.73-.09c.49-.55,1-1.12,1.55-1.7l1.64-1.69v-.36a4,4,0,0,0-1.37.64,6,6,0,0,1-1.36.73Zm1.56,2.38q.18-.37.36-.69c.13-.21.37-.29.74-.23a10.45,10.45,0,0,1-1,1.19A.37.37,0,0,1,216.84,201.34Zm.91.63a3,3,0,0,1,.46-.64c.06,0,.09,0,.09,0s0,.05.09.05l-.18.36a1.45,1.45,0,0,1-.27.37Zm.55-6.12a5.56,5.56,0,0,1-.05.78,6.88,6.88,0,0,1-.14.68,1.45,1.45,0,0,0,.64-.18c.61-.49,1.19-1,1.74-1.51s1.09-1,1.64-1.51,1.1-.82,1.64-1.19,1.1-.76,1.65-1.19a1.13,1.13,0,0,0,.27-.45,1.1,1.1,0,0,1,.27-.46,2.47,2.47,0,0,1-.54,0,3,3,0,0,0-.46,0,11.74,11.74,0,0,0-1.46,1.55,5.29,5.29,0,0,1-1.64,1.38,4.79,4.79,0,0,0-1.69,1.23A3,3,0,0,1,218.3,195.85Zm.83,11.88c.06-.06,0-.34-.18-.82-.13.24-.22.41-.28.5a.57.57,0,0,0-.09.32.26.26,0,0,0,.09.18.12.12,0,0,0,.19,0Q219.13,207.91,219.13,207.73Zm5.29-12.8c0-.06-.07-.15-.19-.27a8,8,0,0,0,.73-.6c.24-.21.49-.41.73-.59.06.49-.07.79-.41.91A2.49,2.49,0,0,0,224.42,194.93Zm1.74-4.64c-.13.06-.19.14-.19.23a.29.29,0,0,1-.09.22.82.82,0,0,0,1-.09,6.47,6.47,0,0,1,.88-.63c.62-.48,1.22-1,1.81-1.48l1.71-1.49a10,10,0,0,0,1-.81.66.66,0,0,0-.73-.09c-.31.3-.62.62-.93.95a3.32,3.32,0,0,1-1,.76,5.12,5.12,0,0,0-1.72,1.22A5,5,0,0,1,226.16,190.29Zm-.19,5c.42.24.7.09.82-.46C226.3,194.72,226,194.87,226,195.3Zm6.3-3.48a9.74,9.74,0,0,1,1-.69c.37-.21.73-.44,1.1-.68-.73-.31-1.19-.25-1.37.18a1.35,1.35,0,0,1-.91.82Zm2.91-7.77a12.59,12.59,0,0,0-1.55.64,2.34,2.34,0,0,0-1.09,1.46l1.55-.87A2.53,2.53,0,0,0,235.18,184.05Zm-.81,10.51a7.63,7.63,0,0,0,.73-.42l.73-.41a.26.26,0,0,1-.09-.18,7.71,7.71,0,0,1-.73.32l-.82.32A.54.54,0,0,1,234.37,194.56Zm1.64-7.22-.18-.37a5.88,5.88,0,0,0,.63-.36c.19-.13.43-.28.74-.46a1.93,1.93,0,0,1-.46,1A1.12,1.12,0,0,1,236,187.34Zm4-6.58-1.64.91a3,3,0,0,0-1.28,1.46c.49-.3,1-.58,1.42-.82s.92-.52,1.41-.82c.12,0,.18-.06.18-.19a.5.5,0,0,1,.19-.36c-.07-.06-.11-.09-.14-.09A.26.26,0,0,1,240,180.76Zm-1.18,4.47a.37.37,0,0,1,.41.09,2.4,2.4,0,0,0,.69.37c-.55.43-1,.79-1.46,1.1a2.25,2.25,0,0,1-.19-.87C238.29,185.64,238.47,185.42,238.84,185.23Zm3.29,4.77a4,4,0,0,1-1,.6,1.36,1.36,0,0,1-1,0c.79-.48,1.56-1,2.29-1.46s1.52-1,2.37-1.46a5.56,5.56,0,0,1,.91-.46l-.55.55a2.07,2.07,0,0,1-.73.45A17.49,17.49,0,0,1,242.13,190ZM246,177.46c-.92.49-1.8,1-2.65,1.51s-1.8,1.05-2.83,1.6a1,1,0,0,0,1.19,0,2.87,2.87,0,0,1,.91-.6,10.46,10.46,0,0,0,1-.46,5.24,5.24,0,0,0,1-.64,3.81,3.81,0,0,0,.73-.5,6,6,0,0,1,.82-.6Q246,177.55,246,177.46Zm-4.38,7.68a2.38,2.38,0,0,0,2-1.28,1.84,1.84,0,0,0-1.1.27,2,2,0,0,0-.5.51A4.08,4.08,0,0,1,241.58,185.14Zm11.87-8a3.54,3.54,0,0,1,.54-.37,1.63,1.63,0,0,0-.68,0,.7.7,0,0,1-.59-.14c-.31-.3-.6-.35-.87-.14a1.28,1.28,0,0,1-.78.32h-.64a2.39,2.39,0,0,0-1.92.83c-.18.18-.38.36-.59.55a2.8,2.8,0,0,0-.59.73c-.55-.61-1-.64-1.46-.09a11.23,11.23,0,0,1-2.83,2.38q-.09,0-.09.36a8.27,8.27,0,0,0,1.41.73c.46.18.93-.15,1.42-1,0-.06.09-.1.27-.1a2.18,2.18,0,0,0,1.42-.77,1.57,1.57,0,0,1,1.59-.51,6.34,6.34,0,0,1,2.24-1.33A5,5,0,0,0,253.45,177.09Zm-7.67,10.15v.09h-.09Zm.1,0-.1.09v-.09Zm.17-4.48a.56.56,0,0,0,.73-.19c.19-.24.37-.45.55-.64a.21.21,0,0,1-.09-.13.26.26,0,0,0-.09-.14,3.41,3.41,0,0,1-.6.32l-.68.32a.26.26,0,0,1,.09.18A.68.68,0,0,0,246.05,182.76Zm3.39,2.28c0,.24,0,.36-.09.36a9.82,9.82,0,0,1-1.56,1.28,3.38,3.38,0,0,1-1.91.56c.48-.37,1-.75,1.41-1.15A15.27,15.27,0,0,1,248.8,185C248.86,184.89,249.07,184.92,249.44,185Zm2.27-5.39a2.4,2.4,0,0,1,.51-.28c.15-.06.35-.15.59-.27a2.54,2.54,0,0,0-2.24.46,4,4,0,0,1-1.87.91.56.56,0,0,0-.37.18L248,181a.56.56,0,0,0,.18.37c.37-.13.61-.22.73-.28a15.71,15.71,0,0,1,1.42-.78Zm-.72,4.47a6,6,0,0,1-.73.87,1.28,1.28,0,0,1-.82,0c.24-.12.48-.26.73-.41Zm3.27-10.41a7.64,7.64,0,0,1-.95.22,3.87,3.87,0,0,1-.69,0,.43.43,0,0,1,0,.32c0,.09,0,.17.13.23C253.17,174.77,253.66,174.5,254.26,173.71Zm9.87-.75c.12,0,.3-.12.55-.36a.26.26,0,0,1-.09-.18h-.78a4.23,4.23,0,0,0-.78.09,6.45,6.45,0,0,0,.37-.82,2.43,2.43,0,0,0-1.92,1,2.27,2.27,0,0,1-.64.46,6.48,6.48,0,0,1-.82.27c-.24.07-.52.16-.82.28a5.23,5.23,0,0,1-.28-.64c-.18.61-.5.95-.95,1a4,4,0,0,0-1.24.36,3,3,0,0,1-.87.23c-.27,0-.56.08-.86.14a2.33,2.33,0,0,0-1.19.55c-.12.18,0,.61.37,1.28a4.68,4.68,0,0,1,1.69-.64,2.4,2.4,0,0,0,1.59-1.19c.61.55,1.31.48,2.1-.19a4.7,4.7,0,0,1,1.19-.64l1.74-.5C263,173.32,263.58,173.15,264.13,173Zm-10,5.4a3.49,3.49,0,0,1,.45-.18A3.16,3.16,0,0,0,255,178v-.18a.62.62,0,0,1-.27,0,.35.35,0,0,0-.28,0l-.27.13a1.66,1.66,0,0,0-.28.23Zm9.31-6.67a2.75,2.75,0,0,0,1.6.22c.51-.09,1.11-.23,1.78-.41a4.67,4.67,0,0,0-1.65-.32A7.1,7.1,0,0,0,263.4,171.69Z" transform="translate(-5.53 -167.07)"/>
      <path class="cls-2" d="M242.12,260.32a2.19,2.19,0,0,1,1-.68,1.67,1.67,0,0,1,1.41.22l-1.55,1.56c-.67.67-1.29,1.31-1.87,1.92s-1.17,1.22-1.78,1.83a.81.81,0,0,1-.41.23.74.74,0,0,0-.41.23,3.45,3.45,0,0,0-.32.36,3.52,3.52,0,0,1-.32.37l-.82.82q0-.09-.27.18a6.18,6.18,0,0,1-2,2.34,17.28,17.28,0,0,0-2.33,2c-.73.67-1.49,1.36-2.28,2.06s-1.59,1.39-2.38,2.06l-.32.18-.32.18c-.36.19-.85.46-1.46.83s-1.23.76-1.87,1.19-1.26.84-1.87,1.23-1.07.69-1.37.87a7.56,7.56,0,0,1-2.1,1.1,14,14,0,0,1-2.28.55,15.91,15.91,0,0,1-2.38.19,3.43,3.43,0,0,1-2.19-.82c-.49-.37-.88-.31-1.19.18s-.44.64-.77.64a6.38,6.38,0,0,1-1-.09,1.85,1.85,0,0,1-1-.23,1.16,1.16,0,0,1-.51-.95.17.17,0,0,0-.13,0,.22.22,0,0,1-.14.05,2.17,2.17,0,0,1,0,.41,3.2,3.2,0,0,0,0,.59,5.31,5.31,0,0,1-.73-.86c-.19-.28-.4-.57-.64-.87a.28.28,0,0,0-.1-.18.28.28,0,0,0-.09-.19v-.09l-.27-.55a5.76,5.76,0,0,0-1.38-2.55,1.42,1.42,0,0,1-.5-.69c-.09-.27-.2-.56-.32-.86s-.38-.61-.59-.92-.42-.61-.6-.91a4.06,4.06,0,0,1-.41-.91c-.09-.31-.2-.64-.32-1a24.6,24.6,0,0,1-.6-2.51,7.82,7.82,0,0,1-.05-2.51c.06-.61.14-1.19.23-1.74s.17-1.12.23-1.73a.39.39,0,0,0,.09-.28,6.43,6.43,0,0,1,.45-2.88c.37-.88.7-1.75,1-2.6a.88.88,0,0,1,.55-.46c-.55-.73-.37-1.25.55-1.55a.82.82,0,0,0,.27-.55,1,1,0,0,1,.55-1.37l.18-.73a2.38,2.38,0,0,0,.68-.28c.22-.12.17-.42-.13-.91-.07-.06,0-.23.22-.5a2.59,2.59,0,0,1,.6-.6,1.76,1.76,0,0,1,.32-.27c.09-.06.07-.19,0-.37l.82-.55a4.42,4.42,0,0,0-.55-.64c.85,0,1.13-.24.82-.73a7.44,7.44,0,0,0,.78-.87l.68-.86c.13-.25.26-.49.41-.74a4.18,4.18,0,0,0,.41-.82.2.2,0,0,0,.14,0,.2.2,0,0,1,.14-.05,4.11,4.11,0,0,0,1.19-.69c.12-.15.12-.53,0-1.14a1,1,0,0,1,.42-.09,1,1,0,0,0,.41-.09,3.7,3.7,0,0,1-.37-.41c-.12-.15-.24-.32-.37-.51q1.38-1.72,3-3.84a7.55,7.55,0,0,1-.27.74.2.2,0,0,1,.14,0,.18.18,0,0,0,.14.05l.36-.55c.12-.18.27-.43.46-.73.48-.12.67-.52.54-1.19-.06-.37.15-.79.64-1.28a3.29,3.29,0,0,1,1.46-.92h.37c-.19-.54-.11-.94.22-1.18a2.77,2.77,0,0,0,.78-.83,13.32,13.32,0,0,1,1.64-2q.91-.92,1.83-1.92a20.07,20.07,0,0,1,2-2.06,9.89,9.89,0,0,0,1.78-2.15,14.6,14.6,0,0,1,2-2.42c.73-.7,1.52-1.39,2.37-2.06a1.72,1.72,0,0,1,.45-.32,3.41,3.41,0,0,0,.55-.32.66.66,0,0,1,.55-.09l2.47,1.09a.41.41,0,0,1,.18.05.39.39,0,0,0,.18,0l.83.37a1.63,1.63,0,0,1,.64.64,3.23,3.23,0,0,0,.64.64,4.36,4.36,0,0,0,.73.45A4.15,4.15,0,0,1,239,223c.31.55.61,1.16.92,1.83a.26.26,0,0,0,.09.18,4.92,4.92,0,0,1,.23,1.19,4,4,0,0,0,.32,1.28,12.45,12.45,0,0,1,.69,1.92,9.2,9.2,0,0,0,.68,1.82,2.56,2.56,0,0,1,.1,2,2.79,2.79,0,0,0,0,2,.45.45,0,0,1-.09.23,3,3,0,0,0-.18.32c.54.36.7.72.45,1.05a4,4,0,0,0-.54,1q-.09.56-.18,1.05a9.12,9.12,0,0,1-.28,1,3.47,3.47,0,0,0-.22.87,1.25,1.25,0,0,1-.51.78.57.57,0,0,0-.18.41.91.91,0,0,1-.09.41,16.4,16.4,0,0,1-1,1.74,17.31,17.31,0,0,1-1.74,2.56l-1.09,1.64c-.36.55-.73,1.07-1.09,1.56a9.7,9.7,0,0,1-1,1.28,7.77,7.77,0,0,0-1,1.28,4.34,4.34,0,0,0-.64,1.18.84.84,0,0,1-.45.55,3.52,3.52,0,0,0-1.42,1.24,12.21,12.21,0,0,1-1.14,1.51,8.73,8.73,0,0,1-1.09.91c-.43.31-.83.61-1.19.92s-.59.49-.87.73-.56.49-.87.73a8.21,8.21,0,0,1-1.14.82c-.39.25-.8.52-1.23.83a.37.37,0,0,0-.27.09,8.07,8.07,0,0,1-2.74,1.42c-1,.27-1.95.56-2.92.87a3,3,0,0,1-.83.18h-.09a17.74,17.74,0,0,1-3.19.37,12.51,12.51,0,0,1-3.2-.18l-.09-.09-.55.28a1.3,1.3,0,0,1-.82,1.46.41.41,0,0,0-.23.27,1.66,1.66,0,0,1-.14.37.87.87,0,0,0-.22.32,1.08,1.08,0,0,1-.23.32c-.31.3-.35.5-.14.59a1.6,1.6,0,0,1,.5.32,5.33,5.33,0,0,0-.27.92l-.18.91a1,1,0,0,1-.37.46,1.45,1.45,0,0,0-.18,1.92.85.85,0,0,1-.09,1,.78.78,0,0,0,.19,1.1c.18.06.33.3.45.73l.28.54a9.64,9.64,0,0,1,.14,1,2.18,2.18,0,0,0,1.87,2,10.29,10.29,0,0,0,4.11-.33,13.33,13.33,0,0,0,3.84-1.6l2-1.33,2.46-1.65c.85-.58,1.66-1.15,2.42-1.73s1.41-1.06,2-1.42q2-1.56,3.93-3.2l3.83-3.3c1.1-1,2.16-1.95,3.2-2.92s2.06-2,3.1-3c.91-.79,1.81-1.59,2.69-2.38s1.75-1.62,2.6-2.47a3.23,3.23,0,0,0,.64-.64c.18-.24.36-.49.55-.73a.73.73,0,0,0,.18.14.47.47,0,0,1,.18.22c-1.46,1.59-2.93,3.14-4.42,4.67s-2.94,3.05-4.34,4.57l-.32.5a1.62,1.62,0,0,1-.32.41c-.36.43-.74.84-1.14,1.24s-.77.78-1.14,1.14a.73.73,0,0,1-.18.14.73.73,0,0,0-.18.14.51.51,0,0,0-.23.18,1.35,1.35,0,0,1-.23.27,1.39,1.39,0,0,1,.41.09.43.43,0,0,0,.41,0,2.87,2.87,0,0,0,.51-.41,3.31,3.31,0,0,1,.5-.41c.91-.73,1.79-1.49,2.65-2.29A31.53,31.53,0,0,0,242.12,260.32Zm-38.46-1c0-.06,0-.09,0-.09s.05,0,.05-.09a9.17,9.17,0,0,0-.37-.92.41.41,0,0,0-.27-.09.81.81,0,0,1-.09.37.4.4,0,0,0,0,.37C203,259,203.23,259.12,203.66,259.36Zm.31-1.92c.22-.12.48-.27.78-.46-.49-.48-.43-1,.18-1.46a.27.27,0,0,0,0-.27.54.54,0,0,1,0-.37.17.17,0,0,1-.13,0,.22.22,0,0,0-.14-.05c-.31.49-.58,1-.82,1.42s-.52.93-.82,1.42l.18.18C203.53,257.69,203.76,257.57,204,257.44Zm.79,8.41a.89.89,0,0,0,.32-.69,1.64,1.64,0,0,0-.14-.87,5.68,5.68,0,0,0-.27.64,3.67,3.67,0,0,1-.28.64.67.67,0,0,0,.05.19.41.41,0,0,1,.05.18Q204.76,265.94,204.76,265.85Zm0-11.7a1.52,1.52,0,0,0,.45.32,4.37,4.37,0,0,1,.55.32,4.37,4.37,0,0,0,.32-.55,3,3,0,0,0,.23-.64.79.79,0,0,0,0-.5,4.18,4.18,0,0,1,0-.59,1.2,1.2,0,0,1,.23.13.85.85,0,0,0,.23.14,8.3,8.3,0,0,0,.77-.87l.69-.87a1.66,1.66,0,0,1,.13-.23.92.92,0,0,0,.14-.22.26.26,0,0,0-.14-.19.17.17,0,0,0-.23,0,.72.72,0,0,0-.45.28,2.61,2.61,0,0,0-.14.32,2.61,2.61,0,0,1-.14.32q-.09,0-.27-.18c.12-.25.26-.49.41-.74a1.46,1.46,0,0,1,.59-.54,3.2,3.2,0,0,0,1-.55c.09-.13,0-.46-.32-1l.55-.27.77-.37a1,1,0,0,0,.51-.37,1.48,1.48,0,0,1,.64-1.23,4.91,4.91,0,0,0,1-.78,11.14,11.14,0,0,0-.28-1.18,5.28,5.28,0,0,0,1.1-.83,3,3,0,0,0,.64-.64l.54-.73c.43-.49.31-.88-.36-1.19a34.11,34.11,0,0,0-5,6.4Q206.75,250.59,204.75,254.15Zm.92,9a15.36,15.36,0,0,0,.78-1.65,12.78,12.78,0,0,1,.77-1.64c-.12,0-.18-.06-.18-.19-.25.13-.37.25-.37.37a4.81,4.81,0,0,1-.5,1.05c-.21.34-.41.69-.59,1.05a2,2,0,0,0-.18,1Zm2.64-10.33a2,2,0,0,1,.82-.73c.37-.19.46-.55.27-1.1a.94.94,0,0,0-.54.09,4.2,4.2,0,0,0-.6.73c-.15.25-.32.49-.5.74s-.15.27.09.27C208,253.05,208.13,253.05,208.31,252.87Zm1,2.74c.36-.49.7-.93,1-1.33s.64-.83,1-1.32a2.21,2.21,0,0,0-1.46.87A2.35,2.35,0,0,0,209.32,255.61Zm10.86-8.23a19.77,19.77,0,0,0-1.19,1.69c-.36.58-.76,1.14-1.18,1.69a1.13,1.13,0,0,1-.28.18q-.18.09-.27,0c-.31-.06-.49,0-.55.14a4.78,4.78,0,0,0-.18.59,3,3,0,0,1-.18.83c-.12.24-.25.47-.37.68s-.24.44-.36.69l-.46.45a3.2,3.2,0,0,1-.45.55,2.42,2.42,0,0,0-.46.64,15.85,15.85,0,0,0-.77,1.83,4.1,4.1,0,0,1-1.14,1.65l-.19.18L211,260.91a7.31,7.31,0,0,1,1.55.18,2.62,2.62,0,0,0,1.55-.1,6.58,6.58,0,0,1,.83-.27,5.71,5.71,0,0,0,.82-.28l.82-.13a2.51,2.51,0,0,0,.64-.23,2.13,2.13,0,0,1,.59-.28,4.42,4.42,0,0,0,.69-.27.5.5,0,0,0,.36-.19l2.74-1.92c.3-.18.61-.35.91-.5a4.81,4.81,0,0,0,.92-.6,17.78,17.78,0,0,0,2.32-2,13.65,13.65,0,0,0,1.87-2.33l.37-.37c.42-.49.83-1,1.23-1.46s.78-1,1.14-1.47,1-1.21,1.46-1.82l1.46-1.83a.63.63,0,0,0,.18-.46,1.57,1.57,0,0,0,.14-.46.75.75,0,0,1,.23-.45,36.4,36.4,0,0,0,2.37-4.48,18.38,18.38,0,0,0,1.36-4.94,7.49,7.49,0,0,0,.14-1.82c0-.61,0-1.22,0-1.83a1.12,1.12,0,0,0-.14-.46c-.09-.18-.2-.27-.32-.27a1.14,1.14,0,0,0-.82.36l-.73.74a4.28,4.28,0,0,1-.73.64c-.24.24-.47.45-.68.64l-.69.55a6.07,6.07,0,0,0-1,.82,5.25,5.25,0,0,1-1.1.82,4.81,4.81,0,0,0-1.28,1.19,12,12,0,0,1-1.18,1.37,3.68,3.68,0,0,1-.64.51c-.25.15-.49.29-.73.41a2.44,2.44,0,0,0-.46.55,9.05,9.05,0,0,0-.77,1.28,10.46,10.46,0,0,1-.78,1.28,9.8,9.8,0,0,1-1.05,1.23l-1.14,1.14a19.42,19.42,0,0,0-1.37,1.74,3.3,3.3,0,0,1-1.82,1.28,2.6,2.6,0,0,0,0,.5A.66.66,0,0,1,220.18,247.38Zm-4.58-8.31c-.61-.06-1.09.3-1.46,1.1a9.92,9.92,0,0,1,.92.54,1.34,1.34,0,0,1-.14-.36c0-.12-.08-.28-.14-.46a1.64,1.64,0,0,1,.37.05.51.51,0,0,0,.36-.05c.12,0,.31-.14.55-.41a.47.47,0,0,1-.23-.26A.21.21,0,0,0,215.6,239.07Zm.73-1.37a1.48,1.48,0,0,0-.41.32l-.41.41a6.39,6.39,0,0,0,.82.64c0,.12.06.18.19.18l.32-.5c.09-.16.19-.35.31-.6a1,1,0,0,0-.27-.18l-.32-.18A.45.45,0,0,0,216.33,237.7Zm1.64-1.38-.41.46c-.15.18-.29.34-.41.46a.33.33,0,0,0,.1.27.8.8,0,0,1,.36-.09.29.29,0,0,0,.27-.18.54.54,0,0,0,.19-.41,1,1,0,0,1,.09-.42A.33.33,0,0,0,218,236.32ZM225,256.87a1,1,0,0,0,.23-.59,4.51,4.51,0,0,1,.14-.78,1,1,0,0,0-1,.73,3.19,3.19,0,0,1-.46.55,3.63,3.63,0,0,0-.45.55l-1.1.82.28.28,1.23-.74A8.21,8.21,0,0,0,225,256.87Zm1.28-1.55c.12,0,.24-.13.36-.37a.11.11,0,0,0,0-.18.26.26,0,0,0-.18-.09.51.51,0,0,0-.64.09.92.92,0,0,0-.23.32.87.87,0,0,1-.22.32A3.24,3.24,0,0,0,226.31,255.32ZM257,243.86v.37a10.14,10.14,0,0,0-.54,1.05,1.42,1.42,0,0,1-.74.78,1.76,1.76,0,0,0-.77.66,6,6,0,0,1-.59.8c-.31.37-.61.76-.92,1.19l-.91,1.28a5.52,5.52,0,0,0-.32.78,2.53,2.53,0,0,1-.32.68,5.75,5.75,0,0,1-1,1.28,6.26,6.26,0,0,0-1,1.28c-.31.31-.6.58-.87.82a4.84,4.84,0,0,0-.78.92,2,2,0,0,1-.64.82,6.35,6.35,0,0,0-.82.82l-.27.28a1.58,1.58,0,0,1-.78,1.14l-1.23.69c-.36-.37-.55-.59-.55-.69s.22-.28.64-.59a3.21,3.21,0,0,0,.37-.46,1.61,1.61,0,0,1,.45-.45,8,8,0,0,1,.6-.55c.21-.19.44-.37.68-.55a9.88,9.88,0,0,1,1-1,11.15,11.15,0,0,0,1-1.06c.3-.36.59-.71.86-1l.87-1.05c.31-.49.58-1,.82-1.42a13.09,13.09,0,0,1,.82-1.32,5.3,5.3,0,0,1,.82-.82,11.49,11.49,0,0,0,.92-.83l-.28-.18a1.45,1.45,0,0,0,.14-.49c0-.22.07-.33.14-.33.67,0,1-.2.91-.6a2,2,0,0,1,.09-1,1.49,1.49,0,0,0,.18-.64.2.2,0,0,1,.14.05.18.18,0,0,0,.14,0,1.52,1.52,0,0,1-.28-.32,2.87,2.87,0,0,0-.27-.32c-1,1.47-2.07,2.88-3.11,4.26a44.54,44.54,0,0,1-3.37,4l-.18-.18a.78.78,0,0,0,.22-.36.79.79,0,0,1,.23-.37l2-2.51c.64-.82,1.3-1.63,2-2.43.48-.73.91-1.43,1.27-2.1a3.83,3.83,0,0,1,.5-.87c.22-.27.41-.53.6-.78l.73-.73.55.55c.12.12.27.26.45.41s.34.29.46.41a1.58,1.58,0,0,0,.05.41A2.1,2.1,0,0,1,257,243.86Z" transform="translate(-5.53 -167.07)"/>
      <path class="cls-2" d="M286.24,260.28a2.24,2.24,0,0,1,1-.69,1.67,1.67,0,0,1,1.42.23l-1.55,1.55c-.67.67-1.3,1.31-1.87,1.92s-1.18,1.22-1.78,1.83a.85.85,0,0,1-.41.23.77.77,0,0,0-.41.23,2.59,2.59,0,0,0-.32.36,3.68,3.68,0,0,1-.32.37l-.82.82c0-.06-.1,0-.28.19a6.23,6.23,0,0,1-2,2.33,17.92,17.92,0,0,0-2.33,2c-.73.68-1.49,1.36-2.28,2.06s-1.58,1.39-2.37,2.06l-.32.18a3,3,0,0,1-.32.19c-.37.18-.85.45-1.46.82s-1.23.76-1.87,1.19-1.27.84-1.88,1.23-1.06.69-1.36.87a7.56,7.56,0,0,1-2.1,1.1,13.19,13.19,0,0,1-2.29.55,14.57,14.57,0,0,1-2.37.19,3.4,3.4,0,0,1-2.2-.82.71.71,0,0,0-1.18.18c-.19.43-.45.64-.78.64a6.57,6.57,0,0,1-1-.09,2,2,0,0,1-1-.22,1.2,1.2,0,0,1-.5-1,.2.2,0,0,0-.14,0,.2.2,0,0,1-.14.05,2.1,2.1,0,0,1,0,.41,3.09,3.09,0,0,0-.05.59,5.87,5.87,0,0,1-.73-.86,10.65,10.65,0,0,0-.64-.87.26.26,0,0,0-.09-.18.3.3,0,0,0-.09-.19v-.09l-.28-.54a5.64,5.64,0,0,0-1.37-2.56,1.38,1.38,0,0,1-.5-.69c-.1-.27-.2-.56-.32-.86s-.39-.61-.6-.92-.41-.6-.59-.91a4.11,4.11,0,0,1-.42-.91c-.09-.31-.2-.64-.32-1-.24-.85-.44-1.69-.59-2.51a7.54,7.54,0,0,1-.05-2.51c.06-.61.13-1.19.22-1.74s.17-1.12.23-1.73a.38.38,0,0,0,.09-.28,6.43,6.43,0,0,1,.46-2.88c.36-.88.69-1.75,1-2.6a.88.88,0,0,1,.55-.46c-.55-.73-.37-1.24.54-1.55a.81.81,0,0,0,.28-.55,1,1,0,0,1,.54-1.37l.18-.73a2.44,2.44,0,0,0,.69-.28c.21-.12.17-.42-.14-.91-.06-.06,0-.23.23-.5a2.8,2.8,0,0,1,.59-.6,2.18,2.18,0,0,1,.32-.27c.09-.06.08-.18,0-.37l.83-.55a5.32,5.32,0,0,0-.55-.63c.85,0,1.12-.25.82-.74a8.3,8.3,0,0,0,.77-.87l.69-.86c.12-.25.26-.49.41-.74a4.82,4.82,0,0,0,.41-.82.2.2,0,0,0,.14,0,.17.17,0,0,1,.13-.05,3.75,3.75,0,0,0,1.19-.69q.18-.22,0-1.14a.91.91,0,0,1,.41-.09.91.91,0,0,0,.41-.09,7,7,0,0,1-.73-.91l3-3.84a7.07,7.07,0,0,1-.27.73.17.17,0,0,1,.13,0,.2.2,0,0,0,.14,0c.12-.18.24-.37.37-.55s.27-.43.45-.73c.49-.12.67-.52.55-1.19-.06-.37.15-.79.64-1.28a3.13,3.13,0,0,1,1.46-.91h.36c-.18-.54-.11-.94.23-1.18a2.86,2.86,0,0,0,.77-.83,13.38,13.38,0,0,1,1.65-2c.6-.61,1.21-1.25,1.82-1.92a21.2,21.2,0,0,1,2-2.06,9.79,9.79,0,0,0,1.78-2.14,14.28,14.28,0,0,1,2-2.43c.73-.7,1.52-1.38,2.37-2.06a2.07,2.07,0,0,1,.46-.32,4.57,4.57,0,0,0,.55-.32.66.66,0,0,1,.55-.09l2.46,1.1a.34.34,0,0,1,.19,0,.41.41,0,0,0,.18.05c.3.12.58.24.82.36a1.63,1.63,0,0,1,.64.64,3.23,3.23,0,0,0,.64.64,4.81,4.81,0,0,0,.73.45,4.36,4.36,0,0,1,1.47,1.46c.3.55.61,1.16.91,1.83a.26.26,0,0,0,.09.18,4.57,4.57,0,0,1,.23,1.19,4,4,0,0,0,.32,1.28,10.66,10.66,0,0,1,.69,1.92,8.46,8.46,0,0,0,.69,1.82,2.6,2.6,0,0,1,.09,2,2.9,2.9,0,0,0,0,2,.45.45,0,0,1-.09.23,3,3,0,0,0-.18.32c.55.37.7.72.46,1.05a4.07,4.07,0,0,0-.55,1.05q-.09.55-.18,1a7.38,7.38,0,0,1-.27,1.05,3.13,3.13,0,0,0-.23.87,1.19,1.19,0,0,1-.5.78.57.57,0,0,0-.18.41.91.91,0,0,1-.09.41,37.32,37.32,0,0,1-2.74,4.3l-1.09,1.64c-.37.55-.73,1.07-1.1,1.56a8.22,8.22,0,0,1-1,1.28,9.08,9.08,0,0,0-1,1.28,4.26,4.26,0,0,0-.63,1.19.88.88,0,0,1-.46.54A3.49,3.49,0,0,0,275,255.4a14.58,14.58,0,0,1-1.14,1.51,8.88,8.88,0,0,1-1.1.91c-.43.31-.82.61-1.19.92s-.59.49-.86.73-.57.49-.87.73a9.61,9.61,0,0,1-1.14.82c-.4.25-.81.52-1.23.83a.38.38,0,0,0-.28.09,7.89,7.89,0,0,1-2.74,1.42c-1,.27-2,.57-2.92.87a2.91,2.91,0,0,1-.82.18h-.09a17.75,17.75,0,0,1-3.2.37,11.66,11.66,0,0,1-3.2-.18l-.09-.09-.55.28a1.29,1.29,0,0,1-.82,1.46.41.41,0,0,0-.23.27,1.63,1.63,0,0,1-.13.37.92.92,0,0,0-.23.32.92.92,0,0,1-.23.32c-.3.31-.35.5-.13.59a1.8,1.8,0,0,1,.5.32,4.57,4.57,0,0,0-.27.92c-.07.3-.13.61-.19.91a1,1,0,0,1-.36.46,1.43,1.43,0,0,0-.18,1.92.89.89,0,0,1-.09,1,.78.78,0,0,0,.18,1.1c.18.06.34.3.46.73l.27.55a9,9,0,0,1,.14,1,2.23,2.23,0,0,0,.32,1,2.3,2.3,0,0,0,1.56,1,10.32,10.32,0,0,0,4.11-.33,12.88,12.88,0,0,0,3.83-1.6l2-1.33,2.47-1.64c.85-.58,1.65-1.16,2.42-1.74s1.41-1.05,2-1.42c1.34-1,2.64-2.11,3.92-3.2l3.84-3.3c1.09-1,2.15-1.95,3.19-2.92s2.07-2,3.1-3c.92-.79,1.81-1.59,2.69-2.38s1.75-1.61,2.61-2.47a2.94,2.94,0,0,0,.63-.64c.19-.24.37-.49.55-.73a.73.73,0,0,0,.18.14.48.48,0,0,1,.19.22q-2.19,2.39-4.43,4.67c-1.49,1.52-2.93,3.05-4.33,4.57l-.32.5a2.22,2.22,0,0,1-.32.42q-.56.63-1.14,1.23l-1.14,1.14a.55.55,0,0,1-.18.14.62.62,0,0,0-.19.14.51.51,0,0,0-.23.18,1.46,1.46,0,0,1-.22.28,1.13,1.13,0,0,1,.41.09.49.49,0,0,0,.41,0,3.37,3.37,0,0,0,.5-.42,4,4,0,0,1,.5-.41c.92-.73,1.8-1.49,2.65-2.28A35.19,35.19,0,0,0,286.24,260.28Zm-38.46-1c0-.06,0-.09.05-.09s0,0,0-.09a6.63,6.63,0,0,0-.36-.91.39.39,0,0,0-.28-.09.8.8,0,0,1-.09.36.4.4,0,0,0,0,.37C247.14,258.92,247.35,259.07,247.78,259.31Zm.32-1.92.78-.45q-.74-.74.18-1.47a.27.27,0,0,0,0-.27.54.54,0,0,1,.05-.37.2.2,0,0,1-.14,0,.2.2,0,0,0-.14,0c-.3.49-.58,1-.82,1.42s-.51.93-.82,1.42l.18.18A7.37,7.37,0,0,0,248.1,257.39Zm.79,8.41a.87.87,0,0,0,.31-.69,1.64,1.64,0,0,0-.13-.87,4.47,4.47,0,0,0-.28.64,4.47,4.47,0,0,1-.27.64.32.32,0,0,0,0,.19.39.39,0,0,1,0,.18C248.79,265.89,248.89,265.86,248.89,265.8Zm0-11.7a1.57,1.57,0,0,0,.46.32,5.21,5.21,0,0,1,.55.32,4.37,4.37,0,0,0,.32-.55,3,3,0,0,0,.22-.64.85.85,0,0,0,.05-.5,4.27,4.27,0,0,1-.05-.59.93.93,0,0,1,.23.13.77.77,0,0,0,.23.14,9.84,9.84,0,0,0,.78-.87l.68-.87a.92.92,0,0,1,.14-.22,1.2,1.2,0,0,0,.13-.23c0-.06,0-.12-.13-.19a.17.17,0,0,0-.23,0,.78.78,0,0,0-.46.28,2.4,2.4,0,0,0-.13.32c0,.09-.08.2-.14.32s-.15-.06-.28-.18c.13-.25.26-.49.41-.73a1.44,1.44,0,0,1,.6-.55,3.2,3.2,0,0,0,1-.55c.09-.12,0-.46-.32-1l.54-.27.78-.37a1,1,0,0,0,.5-.36,1.5,1.5,0,0,1,.64-1.24,4.65,4.65,0,0,0,1-.78c-.12-.6-.21-1-.27-1.18a5.21,5.21,0,0,0,1.09-.83,2.78,2.78,0,0,0,.64-.64c.18-.24.37-.48.55-.73.42-.49.3-.88-.37-1.19a33.8,33.8,0,0,0-5,6.41C251.58,249.38,250.21,251.73,248.87,254.1Zm.93,9a13.56,13.56,0,0,0,.77-1.65,12.19,12.19,0,0,1,.78-1.64.17.17,0,0,1-.19-.19c-.24.13-.36.25-.36.37a4.6,4.6,0,0,1-.5,1c-.22.34-.41.69-.6,1.05a2,2,0,0,0-.18,1Zm2.63-10.33a2,2,0,0,1,.83-.73c.36-.18.45-.55.27-1.1-.31,0-.49,0-.55.09a4.25,4.25,0,0,0-.59.74c-.16.24-.32.48-.5.73s-.16.27.09.27Q252.16,253.09,252.43,252.82Zm1,2.74,1-1.33,1-1.32a2.17,2.17,0,0,0-1.46.87A2.35,2.35,0,0,0,253.44,255.56Zm10.86-8.23c-.42.55-.82,1.11-1.18,1.69s-.76,1.14-1.19,1.69a1,1,0,0,1-.27.18c-.12.06-.22.06-.28,0-.3-.06-.48,0-.54.14a4.6,4.6,0,0,0-.19.59,3,3,0,0,1-.18.83c-.12.24-.24.47-.36.68s-.25.45-.37.69l-.45.46a4.41,4.41,0,0,1-.46.54,3,3,0,0,0-.46.64,15.85,15.85,0,0,0-.77,1.83,3.91,3.91,0,0,1-1.14,1.65l-.18.18-1.19,1.74a7.33,7.33,0,0,1,1.56.18,2.71,2.71,0,0,0,1.55-.09,5.32,5.32,0,0,1,.82-.28,6.48,6.48,0,0,0,.82-.27l.82-.14a2.27,2.27,0,0,0,.64-.23,2.53,2.53,0,0,1,.6-.28,4,4,0,0,0,.68-.27.56.56,0,0,0,.37-.18l2.74-1.93c.3-.18.6-.35.91-.5a5.2,5.2,0,0,0,.91-.59,18.77,18.77,0,0,0,2.33-2,14.15,14.15,0,0,0,1.87-2.33l.36-.37c.43-.49.84-1,1.24-1.46l1.14-1.46,1.46-1.83,1.46-1.83a.63.63,0,0,0,.18-.46,1.59,1.59,0,0,0,.13-.46.81.81,0,0,1,.23-.45,36.4,36.4,0,0,0,2.37-4.48,18.66,18.66,0,0,0,1.37-4.94,7.41,7.41,0,0,0,.13-1.82c0-.61,0-1.22,0-1.83a1.12,1.12,0,0,0-.13-.46c-.09-.18-.2-.27-.32-.27a1.1,1.1,0,0,0-.82.37l-.73.73a4.2,4.2,0,0,1-.74.64c-.24.24-.47.45-.68.64s-.44.36-.68.55a6.7,6.7,0,0,0-1,.82,4.86,4.86,0,0,1-1.09.82,4.82,4.82,0,0,0-1.28,1.19,12.05,12.05,0,0,1-1.19,1.37,3,3,0,0,1-.64.51,7.53,7.53,0,0,1-.73.41,2.54,2.54,0,0,0-.45.55,8.28,8.28,0,0,0-.78,1.28,10.34,10.34,0,0,1-.77,1.28,10.87,10.87,0,0,1-1.05,1.23l-1.14,1.14a17.76,17.76,0,0,0-1.37,1.74,3.36,3.36,0,0,1-1.83,1.28,2.67,2.67,0,0,0,.05.51A.63.63,0,0,1,264.3,247.33ZM259.73,239c-.61-.06-1.1.3-1.46,1.1a10,10,0,0,1,.91.54,1.78,1.78,0,0,1-.14-.36c0-.12-.07-.28-.13-.46a1.49,1.49,0,0,1,.36,0,.54.54,0,0,0,.37,0c.12,0,.3-.14.54-.41a.45.45,0,0,1-.22-.26A.22.22,0,0,0,259.73,239Zm.73-1.37a1.53,1.53,0,0,0-.41.32c-.16.15-.29.29-.41.41a5.1,5.1,0,0,0,.82.64.16.16,0,0,0,.18.18l.32-.5c.09-.15.2-.35.32-.6a1,1,0,0,0-.28-.18l-.32-.18A.42.42,0,0,0,260.46,237.65Zm1.64-1.38c-.12.13-.26.28-.41.46a5.2,5.2,0,0,1-.41.46.37.37,0,0,0,.09.27.81.81,0,0,1,.37-.09.29.29,0,0,0,.27-.18.57.57,0,0,0,.18-.41.91.91,0,0,1,.09-.41A.28.28,0,0,0,262.1,236.27Zm7.06,20.55a1,1,0,0,0,.22-.59,6,6,0,0,1,.14-.78,1,1,0,0,0-1,.73,3.83,3.83,0,0,1-.46.55,3.73,3.73,0,0,0-.46.55l-1.09.82.27.28,1.24-.73A11,11,0,0,0,269.16,256.82Zm1.27-1.55c.13,0,.25-.12.37-.37a.11.11,0,0,0,0-.18.26.26,0,0,0-.18-.09.51.51,0,0,0-.64.09.81.81,0,0,0-.23.32.92.92,0,0,1-.23.32A3.19,3.19,0,0,0,270.43,255.27Zm30.69-11.46v.37a10.18,10.18,0,0,0-.55,1,1.41,1.41,0,0,1-.73.78,1.8,1.8,0,0,0-.78.66,6,6,0,0,1-.59.8c-.3.37-.61.76-.91,1.19l-.91,1.28a4.55,4.55,0,0,0-.32.78,2.87,2.87,0,0,1-.32.68,6.36,6.36,0,0,1-1.05,1.28,6.24,6.24,0,0,0-1,1.28c-.3.31-.59.58-.87.83a4.44,4.44,0,0,0-.77.91,2,2,0,0,1-.64.82,5,5,0,0,0-.82.83l-.28.27a1.59,1.59,0,0,1-.77,1.14l-1.23.69c-.37-.36-.55-.59-.55-.68s.21-.29.64-.6a2.63,2.63,0,0,0,.36-.46,1.64,1.64,0,0,1,.46-.45,7.81,7.81,0,0,1,.59-.55c.21-.18.44-.37.69-.55a9,9,0,0,1,1-1.05,12.25,12.25,0,0,0,1-1.05c.31-.37.6-.72.87-1.06l.87-1.05c.3-.48.57-1,.82-1.41a10.82,10.82,0,0,1,.82-1.33,4.89,4.89,0,0,1,.82-.82,11.41,11.41,0,0,0,.91-.83l-.27-.18a1.48,1.48,0,0,0,.13-.49c0-.22.08-.33.14-.33.67,0,1-.2.91-.6a2,2,0,0,1,.09-1.05,1.48,1.48,0,0,0,.19-.64.17.17,0,0,1,.13,0,.2.2,0,0,0,.14,0,2.18,2.18,0,0,1-.27-.31,2.45,2.45,0,0,0-.28-.32c-1,1.46-2.07,2.88-3.1,4.25a48.12,48.12,0,0,1-3.38,4l-.18-.19a.81.81,0,0,0,.23-.36.75.75,0,0,1,.23-.37l2-2.51c.64-.82,1.29-1.63,2-2.43.49-.73.91-1.43,1.28-2.1a3.49,3.49,0,0,1,.5-.87l.59-.77.73-.74.55.55a5.2,5.2,0,0,0,.46.41c.18.15.33.29.45.41a2.08,2.08,0,0,0,.05.41A2.27,2.27,0,0,1,301.12,243.81Z" transform="translate(-5.53 -167.07)"/>
      <path class="cls-2" d="M323.13,241.51a8,8,0,0,1,.92.82,1.69,1.69,0,0,0-.6.09.49.49,0,0,1-.41,0,1.72,1.72,0,0,0-2.46.55.74.74,0,0,0,0,.23,1.37,1.37,0,0,1,.05.41c-.31.12-.59.23-.87.32l-.87.32a5.94,5.94,0,0,1-1.14.28,2.25,2.25,0,0,0-1.05.45,2.34,2.34,0,0,1-.68.33q-.22,0-.51-.42a1.53,1.53,0,0,0-.45,1.1,2.07,2.07,0,0,0,.37,1.19c.48.61,1,1.19,1.46,1.73a3.79,3.79,0,0,1,.92,1.83,3.1,3.1,0,0,0,.59,1.32q.4.51.87,1.14c.91,1.47,1.74,2.93,2.47,4.39l.32.32.32.32a5.7,5.7,0,0,0,.55.77,5.84,5.84,0,0,1,.55.78l.87,1.23a12.24,12.24,0,0,0,.87,1.14,49.06,49.06,0,0,0,3,4.2,13.08,13.08,0,0,0,1.19,1.69c.42.52.88,1,1.37,1.6a2.15,2.15,0,0,0,.46.5c.18.15.15.38-.09.68-.07.06,0,.19.18.37a4.13,4.13,0,0,1,1,.91,1.92,1.92,0,0,0,1.14.73,3.76,3.76,0,0,1,.6.27c.21.13.19.37,0,.73,0,.07.06.13.18.19l.37.18a6.23,6.23,0,0,0,.64.55,9.73,9.73,0,0,0,.82.54l1.28.92,1.28.91.55.55a4.42,4.42,0,0,0,2.93,1.36,2.1,2.1,0,0,0,2.46-1.64,6.39,6.39,0,0,1,.73-.83c.3-.12.52-.12.64,0s.24.49.37.73a.85.85,0,0,1,.09.64,9.64,9.64,0,0,0-.14,1,1.16,1.16,0,0,1-.68.87,5.52,5.52,0,0,0-1.05.91,2.52,2.52,0,0,1-1.23.74c-.86.12-1.73.27-2.61.46a10.08,10.08,0,0,1-2.69.18,17.13,17.13,0,0,1-4.25-.86,21.47,21.47,0,0,1-3.7-1.69,23.42,23.42,0,0,1-2.84-2.14c-.85-.76-1.7-1.57-2.56-2.42-1.16-1.28-2.27-2.58-3.34-3.92s-2.12-2.71-3.15-4.11-2-2.66-3-4-1.9-2.63-2.88-4c-.79-1.1-1.56-2.19-2.32-3.29s-1.51-2.22-2.24-3.38c-.24-.3-.45-.59-.64-.86a5.13,5.13,0,0,1-.45-.87c-.06-.37-.4-.46-1-.27s-.94.59-1.37.87a2.18,2.18,0,0,1-1.45.32c-.13,0-.25.21-.37.64l.18.36a2.18,2.18,0,0,1,.55-.36,2,2,0,0,0,.46-.46.21.21,0,0,0,.13.09.26.26,0,0,1,.14.09,1.67,1.67,0,0,0-.14.46,1.61,1.61,0,0,1-.13.45,5.71,5.71,0,0,1-.41.69,1.81,1.81,0,0,0-.32.69,2.44,2.44,0,0,1-.46,1.05c-.12.09-.51.07-1.18-.05a3.45,3.45,0,0,0,.36.32,2.73,2.73,0,0,1,.37.32,1.44,1.44,0,0,0-.55.37l-.31.13-.32.14a1.47,1.47,0,0,0,.36.28l.37.18c-.55,1.58-1.09,3.17-1.64,4.75s-1.06,3.2-1.54,4.84l.09.1c.06.06.09.1.09.13a.26.26,0,0,0,.09.14c-.12.24-.24.47-.36.68a1.34,1.34,0,0,1-.46.51,1.48,1.48,0,0,1-.68.23c-.27,0-.56.07-.86.13.18.13.35.23.5.32s.35.2.59.32a3.7,3.7,0,0,1-.41.37c-.15.12-.32.24-.5.36q.74.38.69.78a3.07,3.07,0,0,1-.32,1c-.31.91-.61,1.83-.91,2.74a14.91,14.91,0,0,0-.62,2.93c-.12.61-.23,1.23-.32,1.87a3.15,3.15,0,0,1-.94,1.78,1.32,1.32,0,0,0-.18.73,3.37,3.37,0,0,0,.09.82v2.29a4.86,4.86,0,0,1,.28,1,8.14,8.14,0,0,0,.27,1.05h-.18a5.25,5.25,0,0,1-2.06-1.28,9.72,9.72,0,0,1-2.19-4.29c-.16-.79-.29-1.58-.42-2.38a33.46,33.46,0,0,1-.18-3.47c0-1.15.06-2.34.18-3.56.12-.85.27-1.67.45-2.47s.36-1.61.54-2.46c.25-1.22.53-2.44.87-3.66s.68-2.43,1.05-3.65c.12-.49.25-1,.4-1.51s.32-1.05.51-1.6a2,2,0,0,0,.36-.73,1.67,1.67,0,0,0,.14-.46,1.79,1.79,0,0,1,.13-.46.37.37,0,0,1,.09-.27c.25-.67.46-1.33.64-2s.37-1.29.55-2h-1.51a4.23,4.23,0,0,1-.78-.09,3.24,3.24,0,0,1-.91-.09,9.28,9.28,0,0,1-1.19-.5,8.78,8.78,0,0,1-1.28-.78c-.42-.42-.85-.82-1.28-1.18a8.62,8.62,0,0,1-1.19-1.28,5.51,5.51,0,0,1-1.1-2.1,13.49,13.49,0,0,1-.46-2.37c-.06-.37-.1-.75-.13-1.15a4.8,4.8,0,0,1,0-1.14.87.87,0,0,1,.41-1l-.25-.28a2.15,2.15,0,0,1,.46-.5.8.8,0,0,0,.29-.69h.34a.39.39,0,0,1,.11.46,1.6,1.6,0,0,0-.17,1.46,1.65,1.65,0,0,1,0,.69,4.88,4.88,0,0,0,0,.68,1,1,0,0,1-.09.46,1,1,0,0,0,.18.27.41.41,0,0,1,.09.28c-.06.49,0,.77.1.87a3.23,3.23,0,0,1,.55.77,1.73,1.73,0,0,0,.54.64c.25.18.46.34.65.46a7,7,0,0,0,3.93.72,14.35,14.35,0,0,0,2.43-.41c.82-.21,1.63-.44,2.42-.68l.37-.18a3.7,3.7,0,0,0,.18-.46,3.49,3.49,0,0,1,.18-.45.87.87,0,0,0,.23-.5,1.43,1.43,0,0,1,.23-.59,12.33,12.33,0,0,1,.77-2.18q.51-1.1,1-2.1c.37-.84.73-1.71,1.1-2.58s.76-1.75,1.18-2.6.87-1.83,1.33-2.77.93-1.87,1.41-2.78c1-1.83,1.95-3.69,2.93-5.58.6-1.1,1.17-2.21,1.69-3.33a34.3,34.3,0,0,1,1.68-3.25l3-5.16q1.46-2.52,3-5.08c.54-1,1.12-2,1.73-3s1.24-1.9,1.91-2.88c.43-.67.84-1.35,1.23-2.06a21.69,21.69,0,0,1,1.33-2,2.69,2.69,0,0,1,1.14-.92,2.24,2.24,0,0,1,1.51-.18,8.47,8.47,0,0,1,3.65,1.73l.73.73a10.28,10.28,0,0,0,.83.73,3,3,0,0,1,1.23,1.64c.15.61.29,1.25.41,1.92,0,.06,0,.09,0,.09s.05,0,.05.09v.1a3.11,3.11,0,0,0-.64,1.14c-.12.39-.25.81-.37,1.23a8.72,8.72,0,0,1-.45,1.24,2.79,2.79,0,0,1-.91,1.05,8.7,8.7,0,0,0-1.6,1.37,6.19,6.19,0,0,0-1.23,1.92,1.48,1.48,0,0,1-.41.68,7.8,7.8,0,0,0-.6.69c-.48.61-.94,1.19-1.36,1.74s-.89,1.09-1.37,1.64a7.47,7.47,0,0,0-.69,1,1.94,1.94,0,0,0-.22,1.28c.06.12,0,.26-.14.41l-.41.41-1,.69a1.72,1.72,0,0,0-.63,1.05,1.23,1.23,0,0,1-.37.5,2.34,2.34,0,0,0-.45.5.67.67,0,0,0-.1.28.26.26,0,0,1-.09.18l-.32.5a1.87,1.87,0,0,1-.32.42,6.78,6.78,0,0,1-.77.5c-.28.15-.59.35-1,.59l.59.32c.16.09.32.2.51.32a1.07,1.07,0,0,0-.23.28.15.15,0,0,1-.14.09,1.78,1.78,0,0,0-1.46,1.74,1.34,1.34,0,0,1-.27.82,4.89,4.89,0,0,0-.46.73,6,6,0,0,1-.54.64c-.19.18-.37.36-.55.55s-.25.36-.37.36c-.49.07-.7.19-.64.37a2.6,2.6,0,0,0,.28.55l-.55.55a.92.92,0,0,1-.32.23.87.87,0,0,0-.32.22h1.1a.47.47,0,0,1,.09.33,3.24,3.24,0,0,1-.78.25,2.31,2.31,0,0,0-.7.25c-.12.3-.25.61-.38.91l-.37.91.18.19a7.23,7.23,0,0,0,1.37-1.19l3.06-3.07a25.35,25.35,0,0,1,3.33-2.79,17.68,17.68,0,0,0,1.87-1.55,19.08,19.08,0,0,1,1.87-1.56,11.17,11.17,0,0,1,1.42-.91c.45-.24.86-.49,1.23-.73a5.31,5.31,0,0,0,1-.87,2.67,2.67,0,0,1,.77-.69l4.2-2.38a45.68,45.68,0,0,1,4.2-2.1c1.34-.49,2.68-.93,4-1.33a11,11,0,0,1,4.11-.42c.49.06,1,.11,1.42.14s.93.07,1.41.13a7,7,0,0,0,1.51,1.28,2.4,2.4,0,0,1,1.05,1.83.89.89,0,0,0,.05.63,3.42,3.42,0,0,1,.23.64,2.71,2.71,0,0,1,0,1.88,17.89,17.89,0,0,1-.78,1.78,13.57,13.57,0,0,1-2.5,4.07q-1.61,1.78-3.33,3.61a.84.84,0,0,1-.42.23.81.81,0,0,0-.41.23,2.22,2.22,0,0,0-.73.55c-.3.3-.61.59-.91.86s-.61.57-.91.87a11.15,11.15,0,0,1-1.6,1,3.77,3.77,0,0,0-1.41,1.28,2,2,0,0,1-.78.73,7.63,7.63,0,0,0-1,.64q-.64.47-1.32.87l-1.42.87a1.15,1.15,0,0,1-.59.19,4.23,4.23,0,0,0-.78.09,1.24,1.24,0,0,1-.45.82,5.08,5.08,0,0,1-1,.55,10.55,10.55,0,0,0-1.87,1.1c-.58.43-1.17.85-1.78,1.28a3.94,3.94,0,0,1-3.2.92Zm-28.32,7c.8.12,1.19-.21,1.19-1-.18.07-.38.13-.59.19a.73.73,0,0,1-.51,0,2.12,2.12,0,0,0-1-.09,4.84,4.84,0,0,0-1,.27h-.73l-1-.18-1.06-.18v.27a5.64,5.64,0,0,0,1.61.69,4.18,4.18,0,0,0,1.87,0A2,2,0,0,1,294.81,248.48Zm.3,13.52c.79.06,1.18-.24,1.18-.91,0-.13.14-.34.42-.64-.42-.06-.79-.12-1.09-.19a4.68,4.68,0,0,0-.91-.09.66.66,0,0,0-.64.46,4.05,4.05,0,0,0-.63,1,6.26,6.26,0,0,0-.14.73c0,.24-.08.52-.14.82q-.27.92-.45,1.83t-.45,1.83a3.35,3.35,0,0,0-.27.77c-.07.28-.31.35-.73.23-.06,0-.18.09-.37.28.19.18.31.27.37.27h.54q-.63,2.84-1.13,5.57a14,14,0,0,0,.14,5.58.53.53,0,0,0,.19-.37.87.87,0,0,1,.09-.37c.12-.85.23-1.7.32-2.55a24.79,24.79,0,0,1,.41-2.56c.12-.49.25-1,.37-1.46s.24-1,.37-1.47a1.59,1.59,0,0,0,0-.64,1.11,1.11,0,0,1,0-.54c0-.37.15-.55.45-.55a3.76,3.76,0,0,0,1.1-.78c.42-.4.58-.75.46-1.05a1.75,1.75,0,0,1,.27-1.28l.36-.73c.12-.24.24-.52.37-.82l-.69.27-.5.18a.64.64,0,0,1-.37-.13c-.12-.09-.18-.17-.18-.23.06-.31.11-.6.14-.87a2.4,2.4,0,0,1,.22-.78c.13-.18.26-.36.41-.54S295,262,295.11,262Zm-.83-5.84c-.18.3-.37.62-.55.95a6.41,6.41,0,0,0-.46,1.15.53.53,0,0,0,.55.18c.25-.06.43-.28.55-.64s.26-.73.41-1.1a10.32,10.32,0,0,0,.41-1.19c-.24-.12-.43-.09-.55.1Zm-.72,9.95a1.74,1.74,0,0,0,.13-.36,2.13,2.13,0,0,1,.14-.37.41.41,0,0,1,.18.05.41.41,0,0,0,.19,0c-.06.43-.13.84-.19,1.24s-.12.8-.18,1.23a.22.22,0,0,1-.18.23,1.78,1.78,0,0,0-.36.14v-.64a2.25,2.25,0,0,1,.09-.73C293.44,266.69,293.5,266.42,293.56,266.11Zm2.55-8.22c.12-.37.06-.59-.19-.69a1.75,1.75,0,0,1-.64-.41,8.46,8.46,0,0,0-.41,1.19,6.66,6.66,0,0,1-.32,1c-.12.49.07.67.55.54s.75-.27.78-.64A3.18,3.18,0,0,1,296.11,257.89Zm-.36,4.93a.38.38,0,0,1-.28-.09.38.38,0,0,1-.23,0,.17.17,0,0,0-.13-.05l-.46,1.46a.41.41,0,0,1,.18,0,.69.69,0,0,0,.28,0c.12-.24.23-.47.32-.68S295.62,263.07,295.75,262.82Zm.7,3.93a2.2,2.2,0,0,0,.22-.69,3.53,3.53,0,0,1,.23-.77,2,2,0,0,0-1,.36c-.09.13,0,.46.23,1a.2.2,0,0,1,.14,0S296.38,266.75,296.45,266.75Zm-.44-10.6a.75.75,0,0,0,.46.09h.27a3.49,3.49,0,0,0,.23-1,9.12,9.12,0,0,1,.14-1q0,.09-.39-.27a.46.46,0,0,1-.19.23.59.59,0,0,0-.19.23l-.24,1.09a1.08,1.08,0,0,0-.09.46Zm.19,3.47a1,1,0,0,0,1-.59,6.46,6.46,0,0,0,.37-2.15A3.73,3.73,0,0,0,296.2,259.62Zm2.32-4.29a.4.4,0,0,0-.18-.32.91.91,0,0,1-.27-.32c-.13.18-.26.36-.41.55a5.25,5.25,0,0,0-.51.73,1.81,1.81,0,0,1,.28.32.69.69,0,0,0,.27.23A3.69,3.69,0,0,0,298.52,255.33Zm-.23-1.37a2.67,2.67,0,0,1,.62-.28l.89-.27c-.75-.55-1.26-.55-1.51,0C298.17,253.53,298.17,253.72,298.29,254Zm2,3c0-.06,0-.09-.05-.09s0,0,0-.09a.24.24,0,0,1-.1-.18,1.61,1.61,0,0,1-.45.13.48.48,0,0,0-.37.23,1.64,1.64,0,0,1-.41.82c-.21.25-.17.52.14.83h.18c.19,0,.28,0,.28-.1a5.8,5.8,0,0,0,.82-1.46Zm2.88-19.55a6.76,6.76,0,0,1,.51-1.1,5.18,5.18,0,0,0,.51-1.1c-.07,0-.1,0-.1,0s0-.05-.1-.05c-.33,0-.49.06-.49.19-.43.85-.9,1.69-1.42,2.51a7.7,7.7,0,0,0-1,2.7c-.24.61-.42,1-.54,1.28a.28.28,0,0,1,.18.09,1,1,0,0,0-.28.18,1,1,0,0,1-.27.18l.18.37a.84.84,0,0,1,.37-.23.41.41,0,0,0,.27-.23c.31-.55.62-1.07.93-1.55a5,5,0,0,0,.65-1.74,1.14,1.14,0,0,1,.23-.69A3.69,3.69,0,0,0,303.19,237.42Zm1.57-3.84a6.47,6.47,0,0,0,.73-.87,3.51,3.51,0,0,1,.73-.78.52.52,0,0,1-.09-.36,1.08,1.08,0,0,1-.46.09.38.38,0,0,0-.37.18,1.88,1.88,0,0,1-.59.69C304.44,232.74,304.45,233.09,304.76,233.58Zm1.73-2.47c.55-.3.49-.67-.18-1.1a7.7,7.7,0,0,0-.64,1.1,1.13,1.13,0,0,1,.41.09A.36.36,0,0,0,306.49,231.11Zm.39,5.66a10.79,10.79,0,0,0,.59-1.18c.16-.37.35-.8.6-1.28a1.8,1.8,0,0,0-.92.27c-.12.12-.12.43,0,.91-.48.25-.74.45-.77.6S306.52,236.47,306.88,236.77Zm.79-10a1.54,1.54,0,0,0-.68.86,4.09,4.09,0,0,0-.14,1,.2.2,0,0,1,.14.05.2.2,0,0,0,.14.05,5.85,5.85,0,0,1,.59-.83,5.22,5.22,0,0,0,.59-.82.26.26,0,0,1-.09-.18c0-.06,0-.09,0-.09s-.05,0-.05-.09a.8.8,0,0,1-.23,0A.21.21,0,0,0,307.67,226.82Zm1.84,4.93c.06,0,.06-.1,0-.28s-.13-.33-.19-.45h-.27a5.41,5.41,0,0,1-.37.64,5.22,5.22,0,0,0-.36.64,1.59,1.59,0,0,1-.46.13,2,2,0,0,0-.45.14,2.79,2.79,0,0,1,.09.64,1.76,1.76,0,0,0,.09.55,1.1,1.1,0,0,0,.78-.23,1.64,1.64,0,0,0,.36-.55,6.36,6.36,0,0,1,.32-.64A2.55,2.55,0,0,1,309.51,231.75Zm.54-8c.06-.06.06-.15,0-.28s-.13-.18-.19-.18a1.47,1.47,0,0,0-.55.18,2.59,2.59,0,0,1-.36.32l-.37.32c.31.19.4.38.28.6a2.55,2.55,0,0,1-.46.59,2.19,2.19,0,0,0-.36.69c-.06.21.09.47.46.77l.86-1.55A11.28,11.28,0,0,0,310.05,223.71ZM312.26,239a.81.81,0,0,1,.09.37,2.71,2.71,0,0,1,.64-.1,1.7,1.7,0,0,0,.54-.09,2.74,2.74,0,0,0,0-.45,4.06,4.06,0,0,1-.05-.64l-.68.54C312.6,238.72,312.44,238.84,312.26,239Zm5.57.73a.53.53,0,0,1,.09-.37,4.4,4.4,0,0,1-.45-.27A.45.45,0,0,0,317,239c-.55.3-1.11.59-1.69.87a15.93,15.93,0,0,0-1.6.86,1.15,1.15,0,0,0-.41.51,1.6,1.6,0,0,1-.32.5c0,.12.06.18.19.18Q315.37,240.79,317.83,239.69Zm-3.75-1.83a.63.63,0,0,0,.18.46c.55-.24,1.07-.49,1.56-.73l1.46-.74a.41.41,0,0,0,0-.18.39.39,0,0,1,0-.18l-1.6.69C315.07,237.39,314.57,237.62,314.08,237.86Zm3.65-3.11,4.66-2.52q2.28-1.23,4.56-2.6c1.4-.92,2.79-1.86,4.16-2.84s2.72-2,4.06-3a28.89,28.89,0,0,0,3.42-2.79q1.61-1.51,3.33-3.06a7.36,7.36,0,0,0,1.19-1.33,5.7,5.7,0,0,0,.82-1.78c-.79.12-1.54.21-2.24.27a4,4,0,0,0-2,.74c-.49.24-.91.47-1.28.68a9.45,9.45,0,0,1-1.19.6,8.56,8.56,0,0,1-1.23.59,11.9,11.9,0,0,0-1.14.51q-.18.09-.18.18a.28.28,0,0,1-.1.18,2.13,2.13,0,0,1-.72.74c-.68.3-1.31.58-1.92.82s-1.22.52-1.83.82a16.82,16.82,0,0,0-2.37,1.74,9.63,9.63,0,0,0-1.19,1.42,8.83,8.83,0,0,1-1.09,1.33,24.13,24.13,0,0,1-2,1.64,12,12,0,0,0-1.83,1.65c-1,.91-1.91,1.84-2.83,2.79s-1.82,1.9-2.73,2.88a1.83,1.83,0,0,0-.5.5c-.16.22-.29.41-.41.6l.18.18,1.19-.41A10.73,10.73,0,0,0,317.73,234.75Zm2.75,3.2a4.63,4.63,0,0,0,2-.83c.58-.42,1.2-.85,1.87-1.28a5.48,5.48,0,0,1,1.14-.73,7.94,7.94,0,0,0,1.14-.64,1,1,0,0,1,.32-.23.84.84,0,0,0,.32-.23l-.18-.27a3.09,3.09,0,0,0-.73.18q-1,.56-1.92,1.14c-.61.4-1.25.78-1.91,1.15l-1.6.87c-.52.27-1,.56-1.51.87v.27h.46a1,1,0,0,0,.27-.18A.38.38,0,0,1,320.48,238Zm4.33,32.15a2.22,2.22,0,0,1-.42.32c-.15.09-.19.17-.13.23a10.53,10.53,0,0,0,.91,1l.18-.18A10.88,10.88,0,0,1,324.81,270.1Zm7.25-52a3.05,3.05,0,0,0-1.6.87,1.9,1.9,0,0,1-1.6.6,2.3,2.3,0,0,0,0,.91l1.64-1,1.74-1a.24.24,0,0,1-.09-.18A.26.26,0,0,0,332.06,218.11Zm7-2.75c-.19-.49-.32-.74-.41-.77a2.16,2.16,0,0,0-.87.22,2.17,2.17,0,0,0,.41.6C338.37,215.56,338.66,215.54,339.09,215.36Zm4.84-2.38-1.46.37q-.74.18-1.65.36a1.4,1.4,0,0,0,1.56.46A2.94,2.94,0,0,0,343.93,213Z" transform="translate(-5.53 -167.07)"/>
      <path class="cls-2" d="M452.05,255.51q2.28,1,.55,3a2.56,2.56,0,0,1-1.24.63l-1.5.36c-1.1.3-2.19.58-3.29.82l-3.29.72a7.75,7.75,0,0,0-1.78.59,1.79,1.79,0,0,1-1.78-.13,1.16,1.16,0,0,0-.73.09c-1.59.55-3.12,1.11-4.61,1.69s-3,1.15-4.52,1.7a5.33,5.33,0,0,1-.92.27l-.91.19-4.61,1.05c-1.5.34-3,.66-4.62,1a2.06,2.06,0,0,0-1,.64,4.93,4.93,0,0,1-4.29,1.65,1.73,1.73,0,0,0-1.05.18c-.4.18-.78.37-1.15.55a17.25,17.25,0,0,0-1.55.78,9.86,9.86,0,0,1-1.55.69,13.5,13.5,0,0,1-2,.55,19.29,19.29,0,0,0-2.06.46.31.31,0,0,1-.27,0c-.07,0-.16,0-.28.14l-1.5,1.14a2.61,2.61,0,0,1-.46.28l-.5.18q-.37.13-1.65.78a10.2,10.2,0,0,0-1.18.73,3.27,3.27,0,0,0-.6.55,4,4,0,0,1-.59.55,4.59,4.59,0,0,1-1.28.55,11.74,11.74,0,0,0-2.92,1.51,20,20,0,0,1-2.92,1.69,3.93,3.93,0,0,0-1.6,1.28,6.9,6.9,0,0,0-1,1.92,12.49,12.49,0,0,1-.73,2c-.3.67-.6,1.34-.91,2s-.45,1.21-.64,1.79-.36,1.17-.54,1.78-.35,1-.5,1.46-.35,1.06-.59,1.74l-.6-1.05a8.65,8.65,0,0,1-.41-.87.39.39,0,0,0-.18,0,.41.41,0,0,1-.18.05v1a5.27,5.27,0,0,1-.09,1,7.94,7.94,0,0,1-.46,1.74,1.11,1.11,0,0,1-.54-.73c-.06-.31-.13-.58-.19-.83a30.42,30.42,0,0,1-.55-3.33c-.12-1.13-.25-2.27-.37-3.43a12.52,12.52,0,0,1,0-2.37,21.11,21.11,0,0,0,.14-2.38.35.35,0,0,0-.19-.54,3.67,3.67,0,0,1-1.82-2.19c-.13-.74-.31-1.71-.56-2.93a5.42,5.42,0,0,1,.18-2.74c.31-1,.58-1.95.82-2.92a1.15,1.15,0,0,1,.82-.64c.61-.19,1.21-.35,1.78-.51a15.43,15.43,0,0,0,1.78-.59,1.64,1.64,0,0,0,1.09-1.19q.74-2.28,1.41-4.53c.46-1.49.93-3,1.41-4.52s1-3.12,1.5-4.61a45.58,45.58,0,0,0,1.32-4.62q.18-.73-.69-1.32a2.87,2.87,0,0,1-1.14-1.33,2.67,2.67,0,0,0-.59-1.14c-.15-.09-.29-.47-.41-1.14a1.64,1.64,0,0,1,.13-1,5.24,5.24,0,0,0,.32-1.1,7.27,7.27,0,0,0,.27-1.14,7.72,7.72,0,0,0,.09-1.15,2.8,2.8,0,0,1,.59-1.41,3.74,3.74,0,0,1,1.32-1.24q1-.45,2.37-1.14l2.28-1.15A2.24,2.24,0,0,0,395,236c.24-.67.47-1.36.68-2.06s.44-1.42.69-2.15a35.23,35.23,0,0,0,1-4.29,35.25,35.25,0,0,1,1-4.3c.3-.85.58-1.73.82-2.65s.51-1.79.82-2.65a13.21,13.21,0,0,0,.27-1.37c.06-.42.15-1,.27-1.64-1,.49-2.17,1-3.42,1.51s-2.32,1-3.23,1.42a2.15,2.15,0,0,1-1.51.14,5.32,5.32,0,0,1-2-2.1,4.62,4.62,0,0,1-.27-.82,7.9,7.9,0,0,1-.14-.87c0-.3-.08-.7-.14-1.19a2,2,0,0,1,0-1,9.78,9.78,0,0,1,.31-1,2,2,0,0,1,.32-.68,1.19,1.19,0,0,0,.23-.69,3.47,3.47,0,0,1,1.51-3.06l2.78-1.69a30.25,30.25,0,0,1,3.37-1.79l3.56-1.6c2.13-.92,4.24-1.8,6.34-2.66l6.35-2.56,1.51-.64a2.43,2.43,0,0,1,.73-.23,4.48,4.48,0,0,0,.77-.19c.31-.09.83-.23,1.56-.41q2.37-.74,4.79-1.37t4.8-1.11q2.93-.45,5.8-.78a41.5,41.5,0,0,1,5.8-.23,43.28,43.28,0,0,1,6.07.4A12.89,12.89,0,0,1,452,194a7.46,7.46,0,0,1,3.39,4.11,5,5,0,0,0,.32.68c.09.16.17.28.23.37a3.43,3.43,0,0,0,.23.32,3.16,3.16,0,0,1,.32.73,1.73,1.73,0,0,1,.09,1l-.18,1a4.78,4.78,0,0,0-.92-.09,1.26,1.26,0,0,1-.73-.19l-1.28-.86a3,3,0,0,0-1-.46,6.12,6.12,0,0,0-1.18-.18c-.46,0-1.09,0-1.88,0a3.09,3.09,0,0,0,0,.59,2.6,2.6,0,0,1,0,.5l-.36.19a14.63,14.63,0,0,0-7.67-.54,6.94,6.94,0,0,0-1.1.46,3.93,3.93,0,0,1-1.1.36c-1.52.25-3,.46-4.47.65s-3,.43-4.48.73q-1.54.28-3.06.69l-3.06.87c-.85.31-1.66.58-2.42.83s-1.54.52-2.33.82a2.54,2.54,0,0,0-.5.23,2.15,2.15,0,0,0-.41.32l-.55.18-.45.19a4.71,4.71,0,0,0-1.14.41,9.19,9.19,0,0,1-1.15.5,1,1,0,0,0-.36.51c-.12.27-.21.5-.27.68q-.74,2.1-1.55,4.8c-.55,1.8-1.13,3.65-1.73,5.57s-1.18,3.83-1.73,5.72-1,3.62-1.37,5.2a5.31,5.31,0,0,1,.55.23.71.71,0,0,0,.55.05,7,7,0,0,0,1.55-.55c.67-.31,1.39-.61,2.15-.92s1.49-.61,2.19-.91l1.51-.65a22.72,22.72,0,0,0,2.28-.82,9.42,9.42,0,0,1,2.28-.64c1.52-.25,3.05-.45,4.57-.6s3.05-.29,4.57-.42a9.56,9.56,0,0,1,2.28.09l2.19.36c.74.19,1.48.35,2.24.5a7.69,7.69,0,0,1,2.15.78,24.89,24.89,0,0,1,2.06,1.64,5,5,0,0,1,1.14,2.37.84.84,0,0,1,0,.55c-.06.25-.12.52-.18.83-.49-.06-.94-.11-1.37-.14s-.88-.05-1.37,0c-.73.06-1.48.13-2.24.23a7.91,7.91,0,0,1-2.23,0,5.14,5.14,0,0,0-3.75,1.47,2.84,2.84,0,0,1-1.6.64,7.59,7.59,0,0,0-1.78.37,37.73,37.73,0,0,1-4.15,1.19,14,14,0,0,0-4.16,1.74,13.67,13.67,0,0,1-3.06,1.28l-3.15.92a11,11,0,0,0-2.87,1.1c-.89.49-1.78,1-2.7,1.46-.24.13-.59.29-1,.51s-.94.43-1.46.64-1,.43-1.51.64-.85.38-1.09.5a5.09,5.09,0,0,0-.37.55c-.3.86-.62,1.72-1,2.61s-.69,1.75-1,2.6a20.68,20.68,0,0,0-1.09,3.25,15.36,15.36,0,0,1-1.18,3.15c-.43.91-.85,1.83-1.28,2.74s-.85,1.86-1.27,2.83a7.32,7.32,0,0,0-.55,1.47c-.12.48-.3,1.06-.54,1.73q5.65-2.28,10-3.89c2.89-1.07,5.68-2,8.39-2.75s5.5-1.44,8.39-2,6.21-1.21,10-1.88a.33.33,0,0,0,.05.22.41.41,0,0,1,0,.23,6.16,6.16,0,0,1-1.28.73l-7.94,1.93c-.79.19-1.55.34-2.28.46a14.45,14.45,0,0,0-2.2.55c-.79.25-1.55.52-2.28.83l-2.19.91V262l2.83-.69,2.83-.68q1.56-.37,3.06-.69l3.06-.69a19.8,19.8,0,0,1,2.88-.51,5.1,5.1,0,0,0,2.69-1.14c.24.06.46.1.65.13a3.1,3.1,0,0,0,.63.05l.18-.55a.61.61,0,0,0,0-.46c-.18-.91.18-1.4,1.09-1.46,1.59-.17,3.17-.35,4.75-.54s3.17-.33,4.75-.38,3.19,0,4.8.08A12.29,12.29,0,0,1,452.05,255.51Zm-64.77,13.33c.48-1.09,1-2.13,1.45-3.11a4.36,4.36,0,0,0,.27-3.19,6.19,6.19,0,0,0-.77,1.41,14.69,14.69,0,0,0-.68,1.92,10.07,10.07,0,0,0-.37,1.83A1.87,1.87,0,0,0,387.28,268.84Zm49.51-11.65a2.25,2.25,0,0,0,.27-.46,2.64,2.64,0,0,1-.32-.41.38.38,0,0,0-.32-.23,8.28,8.28,0,0,0-1.5,0c-.52,0-1,.07-1.51.13-.06,0-.15.13-.27.37s-.16.43-.09.55.27.3.63.36a7.47,7.47,0,0,0,1.19.09,7.29,7.29,0,0,0,1.19-.09A1.38,1.38,0,0,0,436.79,257.19Zm5.85-.92A1.44,1.44,0,0,0,443,256l.32-.32a1.29,1.29,0,0,1-.28-.37.29.29,0,0,0-.27-.18,5.5,5.5,0,0,0-.83.23l-.82.32a1.3,1.3,0,0,1-.09.55Z" transform="translate(-5.53 -167.07)"/>
      <path class="cls-2" d="M468.43,202.82a.38.38,0,0,1-.19.06.35.35,0,0,0-.18.05c-.25.07-.38.13-.4.19s0,.16.19.34.17.29.1.32l-.26.16-.4.19-.46.19s-.14,0-.31-.06a1.12,1.12,0,0,1-.22-.26l-.1.1c0,.07.08.22.16.43-.86.67-1.68,1.39-2.48,2.13a13.33,13.33,0,0,0-2.1,2.51c0,.32-.27.53-.69.64-.07,0-.13.05-.16.16a.76.76,0,0,1-.16.26.38.38,0,0,0,0,.16.14.14,0,0,1-.06.11q-.32.48-.66,1c-.23.32-.45.66-.67,1s-.43.57-.66.85a7.58,7.58,0,0,0-.61.86,4.25,4.25,0,0,0-.37.53l-.32.53a6.37,6.37,0,0,0-.48.94,6.78,6.78,0,0,1-.48.93.67.67,0,0,0-.11.37.64.64,0,0,1-.1.37.79.79,0,0,1-.37.48s0,.06-.08.06-.07,0,0,.05a.78.78,0,0,1-.37.75,1,1,0,0,0-.48.58,2,2,0,0,1-.35.75,3.36,3.36,0,0,0-.4.69.23.23,0,0,0,0,.11.32.32,0,0,1,0,.16.25.25,0,0,0,.05.16.06.06,0,0,1,0,.1,2.54,2.54,0,0,0-.34.56,1.93,1.93,0,0,1-.4.56l-.38.4a.61.61,0,0,0-.05.56.68.68,0,0,1-.05.27c-.22.46-.43.91-.65,1.33s-.41.87-.59,1.33a.93.93,0,0,0-.1.46,1.33,1.33,0,0,1-.11.5,5.7,5.7,0,0,1-.24.62c-.09.19-.17.38-.25.56a4.66,4.66,0,0,1-.34.74,2.56,2.56,0,0,0-.3.75,9.73,9.73,0,0,0-.35,1.2,9.58,9.58,0,0,1-.35,1.19.36.36,0,0,1-.05.19,1.6,1.6,0,0,0-.11.19,3.49,3.49,0,0,0-.75,1.76c-.07.39-.15.76-.24,1.12a7.55,7.55,0,0,0-.19,1.11,3.89,3.89,0,0,0-.05,1.12c0,.36.05.73.05,1.12a1.19,1.19,0,0,1-.05.32,1.86,1.86,0,0,1-.11.27.9.9,0,0,1,0,.18.58.58,0,0,0,0,.19,5.16,5.16,0,0,1-.05.8v.29a1.29,1.29,0,0,0,.05.35.57.57,0,0,1,0,.48.31.31,0,0,0,.16.42s.06.06.06.16a.15.15,0,0,1-.06.11c.07.18.13.32.16.42s.07.22.11.32a5.16,5.16,0,0,0,.86,2.35,1.05,1.05,0,0,0,.58.56,2.76,2.76,0,0,0,.85.13,1.75,1.75,0,0,1,.56,0,1.73,1.73,0,0,0,.56,0,2.71,2.71,0,0,0,.56,0,2.77,2.77,0,0,1,.56-.05,6.64,6.64,0,0,0,3.62-1.07c.71-.43,1.41-.87,2.1-1.31a8.73,8.73,0,0,0,1.84-1.57,13.19,13.19,0,0,1,1.33-1.36c.46-.41.92-.87,1.38-1.36a9.24,9.24,0,0,0,.8-1c.25-.38.51-.74.8-1.1a2.89,2.89,0,0,0,.37-.48c.39-.6.79-1.19,1.2-1.75s.82-1.14,1.25-1.71.63-1,.95-1.44c.07-.14.14-.27.19-.4a3.52,3.52,0,0,1,.19-.4c.24-.42.48-.85.71-1.28s.47-.83.72-1.22a4,4,0,0,1,.24-.51l.24-.45a.59.59,0,0,0,.05-.14.53.53,0,0,1,.06-.13.08.08,0,0,1,.07,0,.11.11,0,0,0,.08,0,5.57,5.57,0,0,1-.21.7,19.89,19.89,0,0,0-1.06,1.84q-.48.93-.9,1.83a6,6,0,0,1-.64,1q-.37.48-.69,1a5.21,5.21,0,0,0-.32.58,3.47,3.47,0,0,1-.37.59.54.54,0,0,0,.21.05,6.21,6.21,0,0,0,.9-1.17l.11.19.16.23q.27-.36.48-.69l.42-.64a.2.2,0,0,1,.16.06,1.15,1.15,0,0,1-.1.58c-.32.71-.68,1.42-1.07,2.13l-.15.14a.49.49,0,0,0-.16.13l-.32.32.21.11a.54.54,0,0,0,.21,0,.1.1,0,0,1,.08,0,.33.33,0,0,0,.14,0,.41.41,0,0,0-.14.22c0,.07-.06.08-.13,0-.39-.07-.56,0-.51.13l.19.51a1.49,1.49,0,0,0-.88,1,1,1,0,0,0,.35,1,5.33,5.33,0,0,0-.69.85c-.18-.28-.29-.42-.32-.42s-.14.12-.32.37a1.59,1.59,0,0,1-.27.21l-.32.22a1.76,1.76,0,0,1,.3.24,2.26,2.26,0,0,0,.29.23,2.49,2.49,0,0,0-.11.27,2,2,0,0,1-.1.27,2.93,2.93,0,0,0,.56.13,4.71,4.71,0,0,1,.5.08l-.1.32a.83.83,0,0,0,0,.13.58.58,0,0,1,0,.19.23.23,0,0,1,.16-.13.14.14,0,0,0,.11-.14c0-.21,0-.34.16-.4a2.77,2.77,0,0,1,.48-.13.67.67,0,0,0,.53-.43,1.4,1.4,0,0,1,.37-.58.48.48,0,0,0,.08-.16c0-.08,0-.11.08-.11.25,0,.41,0,.48-.19s.14-.31.21-.45l.35-.37.29-.38c.32-.39.63-.75.93-1.09s.61-.7.93-1.09c-.07.18-.13.34-.18.5a2,2,0,0,1-.24.46c-.29.42-.58.84-.88,1.25s-.6.84-.88,1.31a3.06,3.06,0,0,0-.45.71,6.06,6.06,0,0,1-.45.78c-.22.28-.43.55-.64.8l-.69.8-.72.72a8.61,8.61,0,0,0-.67.77,1.08,1.08,0,0,0-.31.37,1.74,1.74,0,0,1-.27.38,4.45,4.45,0,0,1-.69.74c-.25.22-.52.43-.8.64a11.54,11.54,0,0,1-1,.78q-.51.35-1,.72c-.28.17-.58.34-.88.5a5.43,5.43,0,0,1-.93.4,3.8,3.8,0,0,1-1,.4,8.9,8.9,0,0,0-1.07.35,1.38,1.38,0,0,0-.23.16l-.3.21-.16.19a.18.18,0,0,1-.16.08,1.32,1.32,0,0,0-.85.08,1.38,1.38,0,0,1-.9.08.36.36,0,0,1-.27-.1,1.26,1.26,0,0,0-.32-.22c-.07.39-.21.62-.43.67a1.58,1.58,0,0,1-.74,0h-.48a2.23,2.23,0,0,1-1,.09,1.78,1.78,0,0,1-.69-.62c-.29.25-.52.31-.69.16l-.64-.47a16.83,16.83,0,0,0-1.58-1.2,16.7,16.7,0,0,1-1.57-1.2,4.21,4.21,0,0,1-1.17-1.49,5.44,5.44,0,0,1-.46-.9c-.12-.32-.26-.62-.4-.91a2,2,0,0,0-.29-.48,1.47,1.47,0,0,1-.29-.48l-.54-.85a2.75,2.75,0,0,1-.37-.85,13.54,13.54,0,0,1-.48-3.19,16.31,16.31,0,0,1,0-3.2c.07-.67.17-1.34.29-2s.24-1.3.35-1.94c.24-1.21.56-2.45.95-3.73.18-.57.36-1.13.56-1.68l.56-1.62c.17-.5.34-1,.5-1.44s.33-.93.51-1.39.29-.76.45-1.12l.5-1.12c.14-.39.29-.77.43-1.14a10.59,10.59,0,0,1,.48-1.09,4.53,4.53,0,0,1,.27-.54l.33-.53c.28-.6.59-1.2.93-1.78s.68-1.19,1-1.79a7.83,7.83,0,0,1,.43-.77l.48-.78c.22-.42.45-.85.7-1.27a13,13,0,0,1,.8-1.23c.39-.64.8-1.27,1.22-1.89s.85-1.26,1.28-1.89l1.43-1.92c.14-.18.28-.36.4-.54a2.13,2.13,0,0,0,.29-.53c.15-.07.18-.21.11-.43s0-.48.37-.48a.91.91,0,0,0,1-.8,1,1,0,0,1,1.23-.85,1.52,1.52,0,0,0,.48-.11,12.64,12.64,0,0,1,1.28-.42.94.94,0,0,1,.42-.11.65.65,0,0,0,.37-.11.76.76,0,0,1,.7-.16q.32.1.69.27a2.94,2.94,0,0,0,.64.26,1.93,1.93,0,0,1,.69.37c.29.22.6.44.93.67a1.46,1.46,0,0,1,.62,1,.13.13,0,0,0,0,.08.11.11,0,0,1,0,.08c-.25.36-.26.59-.05.7A1.46,1.46,0,0,1,468.43,202.82ZM445,238.8a2.6,2.6,0,0,0,.1-.91c0-.1-.18-.19-.42-.26v-1.44l-.16-.05a6.48,6.48,0,0,0-.15.82c0,.27-.08.54-.11.83.26,0,.4.08.4.24a1.64,1.64,0,0,0,.05.45A.63.63,0,0,0,445,238.8Zm-.54-3c.17.15.29.06.35-.26,0-.11,0-.21.07-.3a2.38,2.38,0,0,1,.07-.29c0-.18.05-.35.07-.51a4,4,0,0,0,0-.5c0-.14-.06-.21-.19-.21a1,1,0,0,0-.23.26c0,.29-.06.58-.08.88S444.54,235.44,444.5,235.76Zm.75,4.8a.76.76,0,0,0-.16.26.61.61,0,0,1-.16.27.21.21,0,0,0,.06.16.9.9,0,0,1,.21-.08l.21-.08a.32.32,0,0,0,.08-.14.57.57,0,0,1,.08-.13.5.5,0,0,0-.19-.13.27.27,0,0,1-.13-.13l-.16-.64h-.21a3.14,3.14,0,0,0-.08.4,2.31,2.31,0,0,1-.13.45Zm1.48-12.42s-.06,0-.08,0a.11.11,0,0,0-.08,0c-.29.89-.61,1.76-.94,2.61a9.37,9.37,0,0,0-.6,2.72.36.36,0,0,1,.21.05l.43-1.17.42-1.17a.37.37,0,0,0,.22.05c-.34,1-.63,2.06-.89,3.09a18.56,18.56,0,0,0-.49,3.2l.47-.3a2.27,2.27,0,0,1,.47-.24.14.14,0,0,1-.06-.1.59.59,0,0,1-.22,0,.59.59,0,0,0-.22.05,3.2,3.2,0,0,0,.05-.61,1.55,1.55,0,0,1,.11-.56l.25-.66a3,3,0,0,0,.19-.78,1.39,1.39,0,0,1,.44-.8l.32-.32c.11-.1,0-.23-.26-.37-.11-.07-.11-.16,0-.26.1-.43.21-.85.31-1.26s.23-.8.36-1.2a.78.78,0,0,1,.27-.24,1,1,0,0,0,.26-.18s0-.09.1-.16a.14.14,0,0,0,.05-.11c-.17-.14-.24-.27-.21-.4a1.33,1.33,0,0,1,.16-.34,4.09,4.09,0,0,1,.21-.46,3.22,3.22,0,0,0,.21-.45,13,13,0,0,0,.47-1.71.94.94,0,0,1,.21-.45c.1-.12.29-.15.57-.08-.32-.21-.43-.39-.34-.53a1.74,1.74,0,0,1,.77-.72,3.49,3.49,0,0,0,.54-.35,1.2,1.2,0,0,0-.31,0,.71.71,0,0,1-.26,0,.22.22,0,0,1-.14-.12.52.52,0,0,0-.15-.16,1.47,1.47,0,0,0,.57-.78c.12-.33.42-.46.92-.39a2.92,2.92,0,0,1,.1-.69l-.21-.22c.07-.18.14-.33.21-.48s.14-.3.21-.48a5.19,5.19,0,0,0,.16-.69,1,1,0,0,1,.38-.59l.08-.1a.26.26,0,0,1,.08-.11,4.67,4.67,0,0,1,.23-.5l.24-.46a4.09,4.09,0,0,1,.27-.77,5.59,5.59,0,0,0,.26-.72.27.27,0,0,1-.21-.11l-.56.67c-.19.23-.4.49-.61.77a.35.35,0,0,0-.37-.16.51.51,0,0,0-.32.32c-.07.15-.1.24-.08.27s.07.06.16.08l.24,0a.17.17,0,0,1,.16.1,1.89,1.89,0,0,0-.64.24c0,.06,0,.23.16.51-.46,0-.7-.06-.72-.29a1.8,1.8,0,0,1,.14-.78l-.38.19c-.11.05-.14.12-.11.19a1.78,1.78,0,0,0,.19.5,3.25,3.25,0,0,1,.24.56,1.43,1.43,0,0,0-.42-.16,2.48,2.48,0,0,0-.06.54,3.27,3.27,0,0,1-.05.53l.29.16.24.1c-.07.15-.12.22-.16.22A.28.28,0,0,1,450,221a.41.41,0,0,0-.19-.05.45.45,0,0,0-.32.16s.05,0,.05.08a.16.16,0,0,0,.06.13l.48.11c-.15.14-.26.25-.35.32l-.24.21-.24.24-.24.24c-.14.18-.09.39.16.64a.18.18,0,0,1,.08.21.66.66,0,0,1-.08.27s0,.05-.05.05H449a.76.76,0,0,0-.1-.31.91.91,0,0,1-.11-.32,3.34,3.34,0,0,0-.8,1.43,2.24,2.24,0,0,1-.74,1.23c-.07.25-.14.46-.21.64a2.89,2.89,0,0,0-.16.53,1.17,1.17,0,0,0,0,.46c0,.16.05.32.08.5a1.06,1.06,0,0,0,.11.48.7.7,0,0,1,.05.48c-.07.28-.14.55-.21.8s-.14.51-.21.8l-.13.24a1.55,1.55,0,0,1-.19.24.71.71,0,0,1-.11-.48,7.59,7.59,0,0,1,.24-.8c.09-.25.17-.52.24-.8a.87.87,0,0,0,0-.32A1.48,1.48,0,0,1,446.73,228.14Zm.17,8.26s.05.06.05.08,0,0,.05.08a1.17,1.17,0,0,0-.53.8,1,1,0,0,0,.22.9,4.28,4.28,0,0,0,.32-.37,1.62,1.62,0,0,1,.37-.37q.63-.44.21-1c.21-.07.33-.19.35-.35a1.12,1.12,0,0,0-.08-.5,1.06,1.06,0,0,1-.16-.32.72.72,0,0,0-.16-.27c-.08-.07-.17-.07-.3,0a3.22,3.22,0,0,1-.45.21,5.66,5.66,0,0,0,.59.22l-.16.32a.63.63,0,0,0-.16.26A.72.72,0,0,1,446.9,236.4Zm.11,5.17a.14.14,0,0,1,.11-.06l.16,0a.64.64,0,0,0-.11-.43A.13.13,0,0,0,447,241a.57.57,0,0,1-.24.05Zm.21-1.76a1.09,1.09,0,0,0-.21.58.21.21,0,0,0,.11.19.86.86,0,0,1,.21.24,4.13,4.13,0,0,0,.05-.56,2.14,2.14,0,0,1,.05-.45Zm.9-6.61c0-.17.09-.41.16-.69a.23.23,0,0,1-.16,0,2.42,2.42,0,0,1-.27.32c-.1.1,0,.23.27.37a1.91,1.91,0,0,1-.53.53c-.07.15-.09.25-.06.32l.14.11a.1.1,0,0,0,.13,0,.65.65,0,0,0,.37-.43c0-.07.08-.15.14-.24S448.3,233.27,448.12,233.2Zm.73-9.21q-.21.58-.39,1.14c-.13.38-.26.78-.4,1.2a1.68,1.68,0,0,1-.22-.48c0-.14,0-.28.22-.42s.14-.2.21-.48.14-.35.21-.51a4.71,4.71,0,0,1,.22-.45Zm.22,5.8-.34.46c-.09.12-.19.25-.29.4.24.17.29.31.13.42a.5.5,0,0,0-.24.43l.35-.14a.47.47,0,0,0,.24-.18,5,5,0,0,0,.29-.61A.86.86,0,0,0,449.07,229.79Zm-.05-.26.21.1a2.61,2.61,0,0,0,.22-.24.9.9,0,0,0,.16-.29.47.47,0,0,0,.13-.24.85.85,0,0,1,.08-.24c.07-.18.12-.33.16-.45a3.67,3.67,0,0,1,.16-.46s0-.08-.11-.16-.12-.08-.16-.05a2.24,2.24,0,0,0-.69.32.79.79,0,0,1,0,1.23.34.34,0,0,0-.11.24A.47.47,0,0,1,449,229.53Zm1.28-2.35q.15-.48.21-.48c.21-.18.29-.34.24-.5a1.73,1.73,0,0,0-.3-.51,7,7,0,0,0-.37.64,3.25,3.25,0,0,1-.37.59A4.09,4.09,0,0,0,450.3,227.18Zm2.7-10.92.11.11.34-.24a3.12,3.12,0,0,0,.3-.24.33.33,0,0,0,0-.22.75.75,0,0,1,0-.21l-.27,0c-.11,0-.18,0-.21.08A2.06,2.06,0,0,0,453,216.26Zm1.33-2-.11,0a1.46,1.46,0,0,0-.42.37.85.85,0,0,0-.11.32.16.16,0,0,0,.05.1.17.17,0,0,0,.11.06.57.57,0,0,0,.27-.22A2,2,0,0,0,454.33,214.29Zm10.84,24.17c.67-.57,1-1,.85-1.39a1.42,1.42,0,0,0-.64.59A1.59,1.59,0,0,0,465.17,238.46Zm1.81,3.67a1.24,1.24,0,0,1-.16-.19,1.47,1.47,0,0,0-.1-.13,2.13,2.13,0,0,1,.37-.69l.42-.51.48-.51a.33.33,0,0,1,.24-.1.48.48,0,0,0,.24-.06c-.25.4-.49.76-.72,1.1S467.27,241.74,467,242.13Zm1.72-39a1.08,1.08,0,0,1,.18.24.57.57,0,0,0,.19.19,1.46,1.46,0,0,0,.85.37,1,1,0,0,1,.94.45,2.25,2.25,0,0,0,.72.72,1.54,1.54,0,0,1,.74.64c.22.32.43.62.64.9a1,1,0,0,1,.3.32.81.81,0,0,0,.34.32c.29.25.32.48.11.69a2.21,2.21,0,0,1,.29.22l.24.21a.16.16,0,0,1-.05.1.42.42,0,0,1-.21.06.54.54,0,0,0-.22.05c-.17.14-.29.18-.34.11a1,1,0,0,1-.14-.37,1.89,1.89,0,0,0-.37-.86,3.26,3.26,0,0,1-.48-.9,1.48,1.48,0,0,0-.75-.8,1.58,1.58,0,0,1-.5-.53,2.54,2.54,0,0,0-.51-.59,9.89,9.89,0,0,0-1.71-1,3.89,3.89,0,0,0-.42-.19.76.76,0,0,1-.32-.19c0-.14.09-.31.16-.53Zm1.38-.27c.29.18.58.35.88.51s.6.33.88.5c0,0,0,.07,0,.08a.19.19,0,0,0,0,.08q-.48-.21-.93-.45c-.31-.16-.6-.33-.88-.5A.33.33,0,0,1,470.08,202.87Zm.94,27.8a12.23,12.23,0,0,1,.85-1.43.93.93,0,0,1-.27.85,1.77,1.77,0,0,0-.48.64Zm1.32-5.64c.25-.89.52-1.74.8-2.56a.35.35,0,0,1,.16,0l.11,0a3.58,3.58,0,0,0-.11.35c0,.12-.07.26-.11.4s-.12.55-.16.8a6.91,6.91,0,0,1-.15.8,1.19,1.19,0,0,1-.16.42,3.2,3.2,0,0,0-.22.38c-.14.32-.26.62-.37.9s-.23.59-.37.91a.27.27,0,0,1-.13.13.47.47,0,0,0-.14.08l-.21-.11A10.91,10.91,0,0,0,472.34,225Zm.22,2.61a1.8,1.8,0,0,1-.19.85.74.74,0,0,1-.61.43c.14-.25.28-.47.4-.67S472.42,227.85,472.56,227.64Zm.32,1.43a.74.74,0,0,1,0-.5,1.5,1.5,0,0,1,.62-.35,2.2,2.2,0,0,0-.3.37C473.08,228.74,473,228.9,472.88,229.07Zm.94-18.11a2.73,2.73,0,0,1,.05-.5.63.63,0,0,0-.05-.45,1,1,0,0,0-.27-.35,1.07,1.07,0,0,1-.26-.35c.24.18.47.37.69.56a1.23,1.23,0,0,1,.32.93.62.62,0,0,1-.24.08Zm-.2,9.59a.9.9,0,0,1,.18.8,1.08,1.08,0,0,1-.5.8Zm.82-11.24c-.28.15-.45.19-.5.14a1.79,1.79,0,0,1-.19-.67,2.37,2.37,0,0,0,.37.32Zm-.29,7.94a3.16,3.16,0,0,1,.13.77,4.27,4.27,0,0,1,0,.88,4,4,0,0,1-.15.77c-.08.23-.16.37-.27.4.07-.46.12-.92.16-1.38S474.08,217.75,474.15,217.25Zm.16,5.16a1.39,1.39,0,0,0,.05-.39,1.44,1.44,0,0,1,.06-.4,1.79,1.79,0,0,1,.37.16c0,.1-.07.22-.11.34s-.07.24-.1.35A.41.41,0,0,1,474.31,222.41Zm1.54-1.06a3.49,3.49,0,0,1-.37.13l-.26.08a.67.67,0,0,1-.08-.18.54.54,0,0,0-.14-.19l-.48.11a.1.1,0,0,1,0-.08.11.11,0,0,0,0-.08v0l.32-.22q.15-.12.21-.06a1.14,1.14,0,0,1,.4.21A4.27,4.27,0,0,1,475.85,221.35Zm-1.18-8.58a2,2,0,0,0,.14-.53,3.15,3.15,0,0,1,.13-.64l.24.24c.09.09.13.15.13.19a1.37,1.37,0,0,1-.24.42,2,2,0,0,0-.24.38.11.11,0,0,1-.08,0S474.71,212.77,474.67,212.77Zm.91.43a1.89,1.89,0,0,1-.24.45,3.26,3.26,0,0,0-.24.4l-.19-.37a.22.22,0,0,1,0-.27.25.25,0,0,1,.24-.1A.93.93,0,0,0,475.58,213.2Zm.74-4.63c-.14-.18-.27-.35-.37-.51s-.23-.33-.38-.51a.29.29,0,0,1,.16-.1c.14.18.27.34.38.5a3.11,3.11,0,0,0,.37.46Zm-.21.79a1.82,1.82,0,0,0,.5-.16c.16-.07.28-.07.35,0a.76.76,0,0,1,.32.32c.07.15.14.3.21.48a1.11,1.11,0,0,1,.16.35,3,3,0,0,0,.16.4c.07.28.15.57.24.85s.17.57.24.85a20.06,20.06,0,0,1,.49,2.4c.1,1.06.16,2.13.16,3.19,0,.29,0,.6-.05.93s-.07.67-.11,1-.18.46-.53.21c.39-.32.41-.56.05-.74a4.33,4.33,0,0,0,.16-1c0-.5.06-1,.08-1.55a8.63,8.63,0,0,0-.08-1.54,15.89,15.89,0,0,0-.48-2.88c-.08-.28-.16-.57-.25-.85a1.2,1.2,0,0,0-.56-.69.26.26,0,0,1-.13-.16.76.76,0,0,1,0-.21A1.38,1.38,0,0,0,476.11,209.36Z" transform="translate(-5.53 -167.07)"/>
    </g>
  </g>
</svg>
