<svg xmlns="http://www.w3.org/2000/svg" viewBox="0 0 380.5 136.45">
  <defs>
    <style>
      .cls-1 {
        fill: #f266b2;
      }

      .cls-2 {
        fill: #fff;
      }

      .cls-3 {
        fill: #e51e25;
      }
    </style>
  </defs>
  <title>weeke0-logo</title>
  <g id="flower_2">
    <g>
      <path class="cls-1" d="M69.73,291.65a8.53,8.53,0,0,1-7.86-4.7,2.37,2.37,0,0,1-.31-1c-.2-2.49-2-4.23-4.13-6.26-2.6-2.49-5.84-5.6-5.43-10.66.13-6.89,4.19-12.47,7.77-17.4.58-.79,1.14-1.57,1.69-2.34a1.84,1.84,0,0,1,.17-.22,30,30,0,0,1,6.3-5.38,80.87,80.87,0,0,0-9.12,2.59,5.56,5.56,0,0,1-.69,4c-1.23,2-3.73,3-7.21,3-1.31,2.54-3,3.13-4.35,3.13a5,5,0,0,1-3.68-1.78,9.16,9.16,0,0,1-1.37-2,4.53,4.53,0,0,1-1.57.28,4.42,4.42,0,0,1-4.23-3.62A7.46,7.46,0,0,1,37.19,243a6.41,6.41,0,0,1-.73-5.79,5.44,5.44,0,0,1,5.12-3.49,6.56,6.56,0,0,1,3.6,1.13,5.75,5.75,0,0,1,2.58-1.38,28.12,28.12,0,0,1-5.1-2.81,15.14,15.14,0,0,1-6.41-7.29,11.54,11.54,0,0,1,.7-10.1,17.39,17.39,0,0,0,.69-6c0-4.13.06-9.28,5-12.79a2.5,2.5,0,0,1,.71-.36c1-.31,1.53-1.53,2.29-3.51s1.67-4.32,3.87-5.61a2.48,2.48,0,0,1,.89-.31l1.88-.3a38.69,38.69,0,0,1,6.31-.7,14,14,0,0,1,7,1.71,13.37,13.37,0,0,1,3.8-.57,11.75,11.75,0,0,1,9.44,4.75A31.38,31.38,0,0,1,81.49,194a59.31,59.31,0,0,1-1.14-11.13c.22-7,3.8-15.22,11.3-18.46a9.16,9.16,0,0,1,7.84-4.21,13.32,13.32,0,0,1,7.53,2.55,2.17,2.17,0,0,0,.37,0,13.67,13.67,0,0,0,2.83-.46,18.24,18.24,0,0,1,4.12-.62,7.78,7.78,0,0,1,4.62,1.41l.38.22a9.76,9.76,0,0,1,4.33,3.89,2.3,2.3,0,0,1,.24.77c.28,1.86,1.47,3.29,2.86,4.95,2,2.39,4.46,5.35,3.83,10a14.59,14.59,0,0,1,.13,5.38,11.16,11.16,0,0,1,8.12-3.91,10.63,10.63,0,0,1,4.42,1,11.52,11.52,0,0,1,3.8-.68,8.73,8.73,0,0,1,7.25,3.71,2.41,2.41,0,0,1,.41.91l.26,1.19c.89,4,2.11,9.59,5.19,11.24a2.5,2.5,0,0,1,1.17,1.35c1.34,3.69-1.23,6.1-2.76,7.54a12,12,0,0,0-1.13,1.17,2.6,2.6,0,0,0,.33.39,2.47,2.47,0,0,1,.66,1.28,18.76,18.76,0,0,1-.75,8.76c-.83,3.19-1.55,5.94.17,9.85a2.5,2.5,0,0,1-.56,2.82c-4.53,4.33-10.75,6.74-18.52,7.17a13,13,0,0,1,2.3,1.4c1.42.91,2.92,1.91,4.34,3a16.8,16.8,0,0,1,6,11.37,11.52,11.52,0,0,1-2.58,8.72,1.89,1.89,0,0,1-.2.2c-.85.77-1,1.65-1.29,3.27a10.43,10.43,0,0,1-2.46,5.89,15.88,15.88,0,0,1-5.31,3.68c-2.78,1.4-4,2.12-4.22,4.67a2.57,2.57,0,0,1-.5,1.31,11.42,11.42,0,0,1-9.65,4.47,33.67,33.67,0,0,1-9-1.6h-.42c-6.72,0-13.58-4.68-16.9-11.45a18.76,18.76,0,0,1-4.18,7.82A17.49,17.49,0,0,1,82,291.12h0a2.55,2.55,0,0,1-1.08-.25,5.17,5.17,0,0,0-2.26-.45,21.27,21.27,0,0,0-4.09.58A24.61,24.61,0,0,1,69.73,291.65ZM87.8,241a4.47,4.47,0,0,1,2.29.62A2.53,2.53,0,0,1,91.18,243a5.75,5.75,0,0,1,2.46-1.68,2.47,2.47,0,0,1,.84-.14,2.12,2.12,0,0,1,.5.05,4.36,4.36,0,0,1,1-1.56,3.73,3.73,0,0,1,2.74-1.13h.19a5.28,5.28,0,0,1,.06-2.72,3.29,3.29,0,0,1,2.49-2.31,4.64,4.64,0,0,1,.78-1.71,1.89,1.89,0,0,1,.32-.37h0a2.52,2.52,0,0,1-.74-1.42,9.13,9.13,0,0,1-1.4,2.9c-2.83,4-8.46,6.12-12.62,6.44l-1.25.34a2.09,2.09,0,0,1,.19.4,6.06,6.06,0,0,1,.28,1A4.54,4.54,0,0,1,87.8,241Zm-33.33-5.52c.53.37,1,.75,1.5,1.1l.88.66c1.48-.41,3-.84,4.45-1.29h-.9A35.69,35.69,0,0,1,54.47,235.44Zm40.64-14a7.86,7.86,0,0,1,6.07,2.86,2.43,2.43,0,0,1,.53,1,8.75,8.75,0,0,1,.35,3,4.63,4.63,0,0,1,4.23-2.86,2.75,2.75,0,0,1-.56-1.82,3.1,3.1,0,0,1,1-2.14h0a8,8,0,0,1-3.83,1.21A3.6,3.6,0,0,1,99.75,221a3.67,3.67,0,0,1-.39-.83h-.2a2.5,2.5,0,0,1-2.39-1.76,3.55,3.55,0,0,1-.52.92,3,3,0,0,1-2.39,1.18h0a4.25,4.25,0,0,1-3.24-1.92,3.7,3.7,0,0,1-3,2.15,4.32,4.32,0,0,1-2,2.38,2.64,2.64,0,0,1-.38.18,3.59,3.59,0,0,1-2.48,3.08,3.57,3.57,0,0,1,.14.52c.84-.45,1.75-1,2.7-1.62C88.48,223.48,91.74,221.43,95.11,221.43Z" transform="translate(-32.9 -157.69)"/>
      <path class="cls-2" d="M99.49,162.69a10.75,10.75,0,0,1,6.48,2.4,5.63,5.63,0,0,0,1.42.17c2.22,0,4.63-1.08,7-1.08a5.43,5.43,0,0,1,3.27,1c1.41.83,3,1.62,3.83,3.15.87,5.89,7.85,7.91,6.61,14.72,1.64,6.36-2.69,12.39-5.44,17.83-3.42,6-7.8,11.43-13.68,15.08-1,1.94-4.26,4.15-6.06,4.15-1.21,0-1.75-1-.44-3.84,1-4,6.37-9.7,4.37-13.11-4.78,3.37-3.24,12.75-7.64,14.51-.86-6.41,1.68-13,3.15-19.29,2-2,.9-4.3-.32-4.3-.64,0-1.32.64-1.64,2.32-1.88,4.66.07,12.44-3.86,15.36-1.86-6.53.21-13.42.77-20-5.92.65-4.43,11.83-3.09,17,.53,2.29,1.27,9.27-.31,9.27-.49,0-1.19-.65-2.18-2.28-4.85-10.24-8.77-21.41-8.83-32.89.21-6.78,3.86-14,10.52-16.44a6.64,6.64,0,0,1,6.12-3.72M58.57,186.25a11.21,11.21,0,0,1,6.69,2,11.32,11.32,0,0,1,4.12-.82,9.34,9.34,0,0,1,7.48,3.8c5.75,7.77,6.22,18.17,11.61,26.11-.29.67-.7,1-1.18,1-2.29,0-6.24-6.39-7.07-8.54-.46-2.11-1.58-2.91-2.61-2.91-1.86,0-3.41,2.61-.12,4.76,1.24,3.11,10.84,7,6.84,9.41-6.77-2.18-11.59-8.22-18.21-10.61-.94,6,8.26,9.22,13.4,10.89,4,.29,4.07,2.93,1.36,2.93a6.06,6.06,0,0,1-1.77-.3,2.81,2.81,0,0,1-.43,0c-2.21,0-7-2-9.07-2-1.18,0-1.55.63-.26,2.57,2.32,2.88,13.72-.17,10.54,4.49a49.23,49.23,0,0,1-19.49,4.49A28,28,0,0,1,44,228.58c-4.88-2.84-8-8.7-4.81-14.18,2.39-5.67-1.4-13.35,4.88-17.83,4.06-1.28,3.49-7.49,6.67-9.35a54.23,54.23,0,0,1,7.82-1m80.28.68a8.71,8.71,0,0,1,4.3,1.23,9.74,9.74,0,0,1,3.92-.91,6.19,6.19,0,0,1,5.22,2.67c1,4.54,2.25,11.69,6.71,14.08,1.67,4.6-7.11,5.81-3,10,1.29,6.69-4,11-.41,19.15-5.24,5-12.3,6.55-19.4,6.55a66.74,66.74,0,0,1-10.6-.94c-7.55-1.56-15.67-3.78-21.34-9.2a2.27,2.27,0,0,1,2.51-1.69c3.2,0,8.51,3,11.24,3.38a8.22,8.22,0,0,0,4.59,1.46c1.72,0,2.45-.81-.74-2.77-2.2-.9-12.88-2.37-6.35-4.35a11.71,11.71,0,0,1,1.65-.09c1.56,0,3.5.15,5.34.15,3.27,0,6.25-.46,6.33-3h-.59c-5,0-10.08,2-15.24,2-.57,0-1.14,0-1.71-.08-6.85-.29-.51-3.27,3-3.27a4.07,4.07,0,0,1,1,.1h.27c3.28,0,12.36-3.68,4.86-4.21a3.05,3.05,0,0,0-.62,0c-2.87,0-7.46,2.84-10.1,2.84a1.76,1.76,0,0,1-1.91-1.34c5-2.91,10.17-6,14.07-10.5,3.28-3.09,4.21-7.85,6.66-11.55,2-4.8,5.53-9.64,10.32-9.64m-43.74,37a5.4,5.4,0,0,1,4.2,2c1.85,6.42-6.53,10.55-12,10.86-10.46,3-21.55,3.85-31.64,7.95,2.28,4.74-1.22,6.05-4.84,6.05-.53,0-1.07,0-1.59-.07-.76,2.34-1.74,3.2-2.71,3.2-1.92,0-3.76-3.42-3.62-5.43-1.17,1.41-2.19,2-3,2-2.47,0-2.89-5.23.75-7.15-3.7-3.36-2-7.08.89-7.08a5.23,5.23,0,0,1,3.93,2.3c1.05-2,2.28-2.7,3.56-2.7,2.66,0,5.51,3.05,7.37,4.05,9-2.47,18-5.33,26.1-10.06,3.71-1.47,8.4-5.91,12.57-5.91m9.14,9.26c5.68,3.14,10.38,8.86,17.37,9.22a23.09,23.09,0,0,0,6.79.73h1.29c3.52,0,7,.13,10,2.44,1.45.94,2.89,1.89,4.24,3,4.75,3.79,7.08,12,3.11,16.48-3,2.69-1.2,6.37-3.91,9.32-3.41,4-9.67,3.34-10.19,9.85a9,9,0,0,1-7.65,3.47A32.74,32.74,0,0,1,116.6,286l-.72,0c-6.38,0-12.37-4.94-14.91-10.58-.87-2-2.32-6.81-3.26-6.81-.38,0-.68.82-.82,3,1,8.34-6.51,16.89-14.88,17a7.57,7.57,0,0,0-3.34-.7c-3,0-6.13,1.23-8.94,1.23a6,6,0,0,1-5.68-3.43c-.56-7.22-10.22-9.11-9.55-16.59.1-7.15,5.11-12.89,9-18.44a30.3,30.3,0,0,1,20.85-9.8c2,5.39-10.09,4.39-8.52,9.84,4.38-.11,8.79-7.27,12-7.27a1.94,1.94,0,0,1,1,.27c-2.13,5.46-11.31,9.78-9.54,15.32,5.37-.92,5.16-11.32,9.88-11.47.28,2.6-5.74,10.49-1.62,10.49a3.86,3.86,0,0,0,.71-.07c3.86-3.68,1.92-12.84,6.24-14.37-.25,1.61-.47,9.46.86,9.46.31,0,.7-.41,1.19-1.41,1.29-2.77-.9-10.69,2.16-10.69a1.67,1.67,0,0,1,.43,0c.73,4.7-1.59,15.35,4.17,16,2.88-4.06-4.59-13.4-.6-14.1,2.71,4.5,3.24,11.51,6.91,14.61,1.49-6.3-3.48-11.95-6.55-17-2.18-1.53-2.23-4.59-1-4.59.49,0,1.2.53,2.07,1.94,2.36,1.6,4.54,8.11,7.13,8.11a2,2,0,0,0,1.22-.48c-.53-4.81-10.56-8.9-8.18-12.29m-4.76-75.5a11.55,11.55,0,0,0-9.5,4.72c-8,3.86-11.9,12.77-12.13,20.29a1.09,1.09,0,0,0,0,.18c0,.79,0,1.59.06,2.39a13.93,13.93,0,0,0-8.53-2.88,15.77,15.77,0,0,0-3.51.41,16.6,16.6,0,0,0-7.3-1.55,40.19,40.19,0,0,0-6.72.73l-1.84.3a5.1,5.1,0,0,0-1.78.62c-3,1.73-4.11,4.7-4.94,6.88a15.24,15.24,0,0,1-.93,2.09,5.43,5.43,0,0,0-1.19.63c-6,4.26-6,10.36-6,14.81a16.39,16.39,0,0,1-.47,4.94,13.89,13.89,0,0,0-1.3,10.38,16.86,16.86,0,0,0,6.09,8.9,7.91,7.91,0,0,0-5.33,4.81,8.84,8.84,0,0,0,.17,6.52,10,10,0,0,0-1,7.1,6.93,6.93,0,0,0,6.65,5.52h.37a10.69,10.69,0,0,0,.75.89,7.57,7.57,0,0,0,5.5,2.58,6.93,6.93,0,0,0,5.79-3.18,15.47,15.47,0,0,0,1.66-.23c-2.42,3.88-4.39,8.22-4.5,13.35-.48,6.19,3.37,9.88,6.19,12.59,2,1.92,3.25,3.18,3.36,4.64a5,5,0,0,0,.63,2.07,11,11,0,0,0,10,6,26.73,26.73,0,0,0,5.34-.7,20.2,20.2,0,0,1,3.6-.53,2.8,2.8,0,0,1,1.17.2,5,5,0,0,0,2.17.5h0a20,20,0,0,0,14.62-7.05,21.92,21.92,0,0,0,2.82-4c4.15,5.18,10.3,8.5,16.38,8.5h.1a34.7,34.7,0,0,0,9.27,1.59,13.91,13.91,0,0,0,11.64-5.46,5,5,0,0,0,1-2.62c.08-1.06.1-1.25,2.85-2.63a18.33,18.33,0,0,0,6.08-4.29,12.87,12.87,0,0,0,3-7.11c.22-1.31.31-1.65.51-1.83a5,5,0,0,0,.4-.4A14,14,0,0,0,154,257.7,19.41,19.41,0,0,0,147,244.61c-.41-.32-.82-.63-1.24-.93A27.81,27.81,0,0,0,159,236.76a5,5,0,0,0,1.12-5.62c-1.37-3.12-.84-5.15,0-8.22a21.22,21.22,0,0,0,.79-9.87,5.11,5.11,0,0,0-.25-.87c1.71-1.64,4.81-5,3-9.88a5,5,0,0,0-2.34-2.71c-2.07-1.11-3.27-6.61-3.92-9.57-.1-.41-.18-.82-.27-1.2a5.16,5.16,0,0,0-.82-1.82,11.17,11.17,0,0,0-9.28-4.75,13.79,13.79,0,0,0-3.68.52,13,13,0,0,0-4.54-.84,12.16,12.16,0,0,0-5.64,1.39c0-.15-.05-.31-.08-.46.57-5.53-2.42-9.12-4.44-11.54-1.32-1.58-2.14-2.61-2.3-3.72a5.05,5.05,0,0,0-.5-1.54,12.22,12.22,0,0,0-5.31-4.93l-.28-.16a10.44,10.44,0,0,0-6-1.79,20.09,20.09,0,0,0-4.68.68,18.55,18.55,0,0,1-1.89.38,15.61,15.61,0,0,0-8.28-2.55Z" transform="translate(-32.9 -157.69)"/>
    </g>
  </g>
  <g id="title">
    <rect class="cls-2" x="360.1" y="16.31" width="13" height="31"/>
    <g>
      <g>
        <path class="cls-3" d="M158.12,281.85a5.24,5.24,0,0,1-.56,0,11.2,11.2,0,0,1-4-1l-.13-.06a11.76,11.76,0,0,1-4.69-4.91,40.1,40.1,0,0,1-3.13-7,69.49,69.49,0,0,1-2-6.75,24.39,24.39,0,0,1-.75-4A163,163,0,0,1,141,236a174.19,174.19,0,0,1,.62-17.62,145.22,145.22,0,0,1,2.09-15.75v-1a4.48,4.48,0,0,1,1-3.06,7.08,7.08,0,0,1,.58-1l.09-.13a5.7,5.7,0,0,1,2.68-1.88,1.83,1.83,0,0,1,.25-.06,16.18,16.18,0,0,1,3.1-.22,8.32,8.32,0,0,1,3.78.74l.22.13a12.93,12.93,0,0,1,1.78,1.55,27.75,27.75,0,0,1,2.09,2.37l1.85,2.38a7.37,7.37,0,0,1,1.4,2.57l0,.1a11.24,11.24,0,0,1,.21,2.14,11,11,0,0,1-.43,3.35,109.08,109.08,0,0,0-2.21,12c-.58,3.81-1,8.28-1.3,13.33s-.32,10.64-.09,16.61c.23,4,.49,7.5.78,10.37a50.08,50.08,0,0,0,1.09,6.89l.18.77a.14.14,0,0,1,0-.07c.79-2.27,1.6-5,2.39-8.22s1.57-6.76,2.25-10.47,1.3-7.18,1.89-10.69c-.11-2.13-.17-4.19-.17-6.09v-5.17c0-1.81.06-3.45.18-4.89.12-1.11.24-2.11.36-3.06l.35-2.42a13,13,0,0,1,.38-2,4.25,4.25,0,0,1,1.33-2.12l1.66-1.66a.81.81,0,0,1,.14-.12l2.25-1.91a1.89,1.89,0,0,1,.27-.2c.6-.36,1.18-.68,1.71-.94l.15-.07a5.46,5.46,0,0,1,2-.46,2.78,2.78,0,0,1,2.6,1.56l1.25,2.09c.8,1.32,1,3.22.53,6-.08.46-.23,1.63-.51,4.68-.23,2.46-.43,5.32-.61,8.76s-.23,7-.17,10.71a108.29,108.29,0,0,0,.68,10.92,58.25,58.25,0,0,0,1.78,9.3,16.07,16.07,0,0,0,.81,2.27,111.56,111.56,0,0,0,4.55-23.47,120.91,120.91,0,0,0-.09-21,73.75,73.75,0,0,0-2.45-13.52c-1.67-5.28-1.67-5.71-1.67-6.12a8.35,8.35,0,0,1,1.19-3.64,29,29,0,0,1,1.42-2.54,3.76,3.76,0,0,1,.25-.31,3.2,3.2,0,0,1,2.3-1,3.34,3.34,0,0,1,.82.1,2.1,2.1,0,0,1,.42.15,3.21,3.21,0,0,0,.6.24,2.1,2.1,0,0,1,.76.45c2.85,2.72,4.83,6.63,5.91,11.62a67.59,67.59,0,0,1,1.35,15.6,126,126,0,0,1-1.59,17.24c-.95,5.89-2,11.36-3.28,16.27a104.91,104.91,0,0,1-3.84,12.5c-1.74,4.43-2.73,5.83-3.64,6.48a7.25,7.25,0,0,1-2.5,1.28l-1.7.45-.11,0a10.41,10.41,0,0,1-2,.21c-3.94-.15-6.89-2.59-8.85-7.26a46.72,46.72,0,0,1-1.79-5.21,50.77,50.77,0,0,1-4,10.73C164.2,279.73,161.38,281.85,158.12,281.85Z" transform="translate(-32.9 -157.69)"/>
        <path class="cls-2" d="M189.86,196.67a1.37,1.37,0,0,1,.34,0,6.17,6.17,0,0,0,.88.35q3.84,3.67,5.33,10.59a65.23,65.23,0,0,1,1.31,15.13,123.55,123.55,0,0,1-1.57,17q-1.41,8.75-3.24,16.1a101.45,101.45,0,0,1-3.76,12.25c-1.28,3.26-2.28,5.13-3,5.6a5,5,0,0,1-1.83,1c-.64.18-1.2.32-1.67.44a8.6,8.6,0,0,1-1.57.17c-3-.11-5.37-2.13-7-6a54.2,54.2,0,0,1-3.5-13.92v.18q-2.81,13.47-5.86,19.07c-1.93,3.52-4.13,5.27-6.62,5.27a3.7,3.7,0,0,1-.47,0,9.34,9.34,0,0,1-3.32-.87,9.72,9.72,0,0,1-3.85-4.11,37.94,37.94,0,0,1-3-6.65,67.59,67.59,0,0,1-1.92-6.57,24.06,24.06,0,0,1-.71-3.67A161,161,0,0,1,143,236a169.88,169.88,0,0,1,.61-17.42,140.76,140.76,0,0,1,2.1-15.75v-1.22a2.28,2.28,0,0,1,.7-1.93,4,4,0,0,1,.53-1.05,3.61,3.61,0,0,1,1.75-1.22,14.66,14.66,0,0,1,2.71-.18,6.6,6.6,0,0,1,2.89.53,11.63,11.63,0,0,1,1.48,1.31,25.46,25.46,0,0,1,1.93,2.19l1.84,2.36a5.48,5.48,0,0,1,1,1.84,8.66,8.66,0,0,1,.18,1.75,9.19,9.19,0,0,1-.35,2.8,109.54,109.54,0,0,0-2.28,12.25q-.87,5.78-1.31,13.47t-.09,16.8q.36,6.14.79,10.5a51,51,0,0,0,1.14,7.18,39.19,39.19,0,0,0,1.57,5.42c.82-.7,1.64-2.21,2.46-4.55s1.63-5.13,2.44-8.4,1.58-6.79,2.28-10.58,1.34-7.44,1.92-10.94q-.17-3.33-.17-6.21v-5.17c0-1.75.06-3.32.17-4.72.12-1.05.24-2,.36-3s.23-1.63.35-2.45a11.66,11.66,0,0,1,.34-1.75c0-.23.27-.61.79-1.13l1.66-1.67c.71-.58,1.46-1.22,2.28-1.92.58-.35,1.11-.64,1.57-.88A3.83,3.83,0,0,1,178,212a.8.8,0,0,1,.83.49c.34.58.78,1.31,1.31,2.19s.61,2.42.26,4.63c-.12.7-.29,2.31-.53,4.82s-.43,5.45-.61,8.83-.23,7-.17,10.85a109.65,109.65,0,0,0,.7,11.12,61,61,0,0,0,1.83,9.62q1.23,4.29,3.5,6a118.65,118.65,0,0,0,5.78-27.65,123,123,0,0,0-.09-21.35,75,75,0,0,0-2.53-13.91,45.88,45.88,0,0,1-1.58-5.52,6.88,6.88,0,0,1,1-2.71c.64-1.22,1.08-2,1.31-2.36a1.25,1.25,0,0,1,.89-.39m0-4a5.23,5.23,0,0,0-3.71,1.56,4.08,4.08,0,0,0-.5.6c-.22.33-.59.94-1.53,2.74a9.9,9.9,0,0,0-1.42,4.56c0,.69,0,1.15,1.76,6.72A72,72,0,0,1,186.84,222a119.93,119.93,0,0,1,.07,20.64,99.68,99.68,0,0,1-2.55,15.9c-.24-1.3-.44-2.67-.6-4.09a107.24,107.24,0,0,1-.67-10.72c-.06-3.71,0-7.27.17-10.58s.37-6.27.6-8.67c.29-3.16.43-4.19.48-4.52.52-3.29.28-5.61-.77-7.36l-.36-.59-.86-1.43A4.78,4.78,0,0,0,178,208a7.49,7.49,0,0,0-2.76.6l-.31.14c-.58.29-1.2.63-1.84,1a4.11,4.11,0,0,0-.54.39c-.8.69-1.55,1.32-2.23,1.89a2.16,2.16,0,0,0-.27.25l-.88.87-.79.79a6.23,6.23,0,0,0-1.87,3.09,18.23,18.23,0,0,0-.4,2.07c-.12.84-.23,1.64-.35,2.45v.05c-.12,1-.24,2-.36,3,0,0,0,.07,0,.1-.13,1.49-.19,3.2-.19,5.06V235c0,1.87.05,3.88.16,6-.58,3.43-1.2,6.94-1.84,10.44s-1.36,6.81-2.11,9.88c-.23-2.56-.45-5.55-.64-8.91-.23-5.89-.2-11.4.09-16.38s.71-9.39,1.27-13.1c0,0,0-.05,0-.08a106.77,106.77,0,0,1,2.16-11.68,13,13,0,0,0,.5-3.89,12.74,12.74,0,0,0-.25-2.52,1.6,1.6,0,0,0-.05-.21,9.15,9.15,0,0,0-1.75-3.29l-1.86-2.4a32.34,32.34,0,0,0-2.24-2.54,14.45,14.45,0,0,0-2.09-1.81,3.3,3.3,0,0,0-.45-.26,10.23,10.23,0,0,0-4.67-1,18.58,18.58,0,0,0-3.49.25,4.67,4.67,0,0,0-.5.14,7.62,7.62,0,0,0-3.6,2.52,2.48,2.48,0,0,0-.19.26,8.24,8.24,0,0,0-.62,1.07,6.48,6.48,0,0,0-1.29,4.14v.84a148.11,148.11,0,0,0-2.08,15.78A174.74,174.74,0,0,0,139,236a165.63,165.63,0,0,0,1.85,22.3,27.63,27.63,0,0,0,.79,4.22c.49,2.09,1.18,4.42,2,6.94a43.3,43.3,0,0,0,3.29,7.34,13.74,13.74,0,0,0,5.53,5.71l.26.11a13.12,13.12,0,0,0,4.68,1.18c.22,0,.43,0,.65,0,4,0,7.46-2.47,10.13-7.35a37.24,37.24,0,0,0,2.32-5.33c2.84,6.47,7.2,8,10.38,8.11h.15a12,12,0,0,0,2.34-.25l.22,0,1.73-.46a9.15,9.15,0,0,0,3.17-1.61c1.23-.88,2.41-2.5,4.31-7.35a105.19,105.19,0,0,0,3.92-12.74c1.24-5,2.36-10.5,3.31-16.44a128.42,128.42,0,0,0,1.62-17.52,69.89,69.89,0,0,0-1.4-16.06c-1.16-5.39-3.34-9.64-6.48-12.64a3.82,3.82,0,0,0-1.52-.91,1.91,1.91,0,0,1-.31-.12,4.22,4.22,0,0,0-.86-.32,5.61,5.61,0,0,0-1.29-.15Z" transform="translate(-32.9 -157.69)"/>
      </g>
      <g>
        <path class="cls-3" d="M302.35,278.57a5.59,5.59,0,0,1-.91-.08,12.65,12.65,0,0,1-5.1-2.34,14.5,14.5,0,0,1-4.76-5.18,21.66,21.66,0,0,1-1.67-4.86c-.42-1.79-.78-3.73-1.08-5.76l0-.3a4.58,4.58,0,0,1-1.32,1.54l-.58.58a3.54,3.54,0,0,1-2.53,1.15,3.36,3.36,0,0,1-.71-.08l-2.36-.42a4.53,4.53,0,0,1-3.55-2.39,2.54,2.54,0,0,0-.9-1,11.85,11.85,0,0,1-1.71-1.3l-.87-.88c-1.12-1.12-.94-2.93-.56-4.74.11-.76.22-1.9.33-3.38s.23-3.2.35-4.89.17-3.25.17-4.85a37.73,37.73,0,0,0-.16-3.8,1.79,1.79,0,0,1,0-.23V231.8c0-1.36.06-2.85.18-4.44s.17-2.84.17-4.14v-3.59c0-2.9.06-5.59.18-8,.11-1.88.2-3.77.26-5.66a25.11,25.11,0,0,1,.3-3.91,9.6,9.6,0,0,0,.23-1.6c.06-.76.12-1.5.18-2.2a6.79,6.79,0,0,1,.64-2.48,3.11,3.11,0,0,1,2.84-1.8c.36,0,1.1,0,2.52-.17.48,0,.92-.06,1.31-.06a5.54,5.54,0,0,1,4.33,1.7l1.84,1.67a14.73,14.73,0,0,1,1.94,2.14c.49.68.85,1.19,1.09,1.55a2.68,2.68,0,0,1,.18.33,17.17,17.17,0,0,1,1,4,33,33,0,0,1,0,7.12c-.12,1.31-.32,3.36-.61,6.17s-.65,5.94-1.06,9.39c0,.22-.05.44-.08.65a40.28,40.28,0,0,1,3.52-6.72c1.55-2.32,3.18-3.6,5-3.9a9.78,9.78,0,0,1,1.1-.34,4.19,4.19,0,0,1,1-.12,7.07,7.07,0,0,1,1.95.31,2.09,2.09,0,0,1,.81.45.52.52,0,0,0,.17.06,5.52,5.52,0,0,1,2.5,1.57,5.31,5.31,0,0,1,1.45,1.91s.12.29.68,1.41c2.13,4.52,2.14,9.41.07,14.59a11.19,11.19,0,0,1-2.51,3.7,9.86,9.86,0,0,1-3.14,2,12.33,12.33,0,0,1-3.69,1h-.22a3.5,3.5,0,0,1-1.6-.39l-.64-.28a3,3,0,0,1-.65-.36,89.26,89.26,0,0,0,2.93,9.88,51.06,51.06,0,0,0,4.19,9.08c1.64,2.58,2.43,3.2,2.63,3.33l.66.41a2.65,2.65,0,0,1,.5-.05,2.75,2.75,0,0,1,2,.87,5.47,5.47,0,0,1,1.08,1.39,3.55,3.55,0,0,1,.38,1.6,6.15,6.15,0,0,1-1.24,3.61c-.36.47-.63.85-.84,1.17a1.89,1.89,0,0,1-.25.31,11.39,11.39,0,0,1-3.11,2.32c-.8.37-1.5.67-2.11.92l-.12,0A6.21,6.21,0,0,1,302.35,278.57Z" transform="translate(-32.9 -157.69)"/>
        <path class="cls-2" d="M283.18,195.78a4.31,4.31,0,0,1,1.59.23,4.68,4.68,0,0,1,1.4,1l1.84,1.66a12.27,12.27,0,0,1,1.66,1.84c.47.64.82,1.14,1.05,1.49a15.42,15.42,0,0,1,.88,3.5,31.34,31.34,0,0,1,0,6.65q-.18,1.92-.61,6.12c-.3,2.8-.65,5.93-1.05,9.37s-.82,6.91-1.23,10.41-.73,6.53-1,9.1c.7-2.57,1.54-5.4,2.54-8.49s2-6,3.15-8.75a38.9,38.9,0,0,1,3.58-7q1.94-2.88,3.85-3.06a5.77,5.77,0,0,1,1.05-.35,2.15,2.15,0,0,1,.53-.06,5.47,5.47,0,0,1,1.4.23,2.16,2.16,0,0,0,1,.53,3.75,3.75,0,0,1,1.57,1.05,4.66,4.66,0,0,1,1,1.14c.05.17.32.73.78,1.66q2.8,6,0,13a9.07,9.07,0,0,1-2,3,7.68,7.68,0,0,1-2.54,1.58,10.32,10.32,0,0,1-3.15.87,1.53,1.53,0,0,1-.7-.17c-.23-.12-.49-.23-.78-.35a1.66,1.66,0,0,1-.79-.88,6.21,6.21,0,0,1-.53-1.48c-.11-.53-.23-1.08-.35-1.67a9.35,9.35,0,0,1-.17-1.75c.23-1.86.46-3.47.7-4.81s.46-2.48.7-3.41c-.59.93-1.26,2.1-2,3.5s-1.61,3.09-2.54,5.07a118.76,118.76,0,0,0,4.64,17.5,52.73,52.73,0,0,0,4.37,9.45,13.79,13.79,0,0,0,3.24,3.94,5.93,5.93,0,0,0,1.4.79,2.86,2.86,0,0,0,.7-.09l.14,0a.83.83,0,0,1,.56.28,3.71,3.71,0,0,1,.7.88,1.6,1.6,0,0,1,.17.7,4.24,4.24,0,0,1-.87,2.45c-.35.46-.64.87-.88,1.22a9.32,9.32,0,0,1-2.53,1.93c-.76.35-1.43.64-2,.87a4,4,0,0,1-1.32.24,3,3,0,0,1-.6-.06,10.87,10.87,0,0,1-4.29-2,12.47,12.47,0,0,1-4.11-4.47,19.63,19.63,0,0,1-1.49-4.37q-.62-2.62-1.05-5.6t-.87-5.78c-.3-1.86-.5-3.5-.62-4.9-.35,1.29-.7,2.63-1.05,4s-.64,2.86-.87,4.37a3,3,0,0,1-1.23,2.28l-.7.7a1.61,1.61,0,0,1-1.12.56,1,1,0,0,1-.28,0c-.58-.11-1.4-.26-2.45-.43a2.66,2.66,0,0,1-2.1-1.32,4.53,4.53,0,0,0-1.57-1.75,9.2,9.2,0,0,1-1.4-1l-.88-.87c-.35-.35-.35-1.34,0-3,.12-.81.24-2,.35-3.58s.24-3.21.35-4.9.18-3.36.18-5a36.82,36.82,0,0,0-.18-4V231.8q0-2,.18-4.29c.12-1.52.17-2.95.17-4.29v-3.59c0-2.91.06-5.54.18-7.87.12-2,.2-3.88.26-5.69a29.32,29.32,0,0,1,.26-3.59,10.93,10.93,0,0,0,.27-1.83c.05-.76.11-1.49.17-2.19a4.72,4.72,0,0,1,.44-1.75,1.11,1.11,0,0,1,1.05-.7c.58,0,1.49-.06,2.71-.18.41,0,.78-.05,1.12-.05m0-4c-.46,0-1,0-1.49.07-1.43.14-2.08.16-2.34.16a5.11,5.11,0,0,0-4.63,2.91,8.77,8.77,0,0,0-.85,3.21c-.05.7-.11,1.44-.17,2.21a7.73,7.73,0,0,1-.16,1.18c0,.06,0,.12,0,.18a27.37,27.37,0,0,0-.34,4.25c-.06,1.85-.14,3.73-.25,5.57-.12,2.46-.19,5.17-.19,8.11v3.59c0,1.25-.05,2.59-.16,4-.12,1.65-.19,3.19-.19,4.6v3.58a3.4,3.4,0,0,0,0,.45,33.59,33.59,0,0,1,.15,3.58c0,1.56-.06,3.14-.17,4.71s-.23,3.31-.34,4.88-.24,2.66-.31,3.19c-.32,1.53-.88,4.49,1.11,6.49l.65.65.23.23a13.18,13.18,0,0,0,2,1.56.47.47,0,0,1,.21.21,6.54,6.54,0,0,0,5,3.46l2.27.41a5.17,5.17,0,0,0,1.11.12,5.37,5.37,0,0,0,3.13-1c.15.78.31,1.54.49,2.28a23.53,23.53,0,0,0,1.8,5.26l.05.08a16.41,16.41,0,0,0,5.4,5.9,14.33,14.33,0,0,0,5.92,2.65,7,7,0,0,0,1.21.11,8.19,8.19,0,0,0,2.59-.44l.24-.09c.67-.27,1.41-.59,2.18-1a13.12,13.12,0,0,0,3.69-2.72,4.31,4.31,0,0,0,.51-.62c.19-.3.44-.64.73-1l.07-.09a8.15,8.15,0,0,0,1.61-4.77,5.45,5.45,0,0,0-.59-2.48,7.43,7.43,0,0,0-1.45-1.93,4.82,4.82,0,0,0-3.39-1.45h0l0,0a13.76,13.76,0,0,1-2.07-2.75,49.7,49.7,0,0,1-4-8.7c-.65-1.73-1.3-3.79-1.95-6.15h0a3.24,3.24,0,0,0,.44,0,14.71,14.71,0,0,0,4.24-1.15,11.82,11.82,0,0,0,3.72-2.33,12.86,12.86,0,0,0,2.94-4.26,1.42,1.42,0,0,0,.08-.18c2.28-5.71,2.25-11.14-.1-16.13l0-.1c-.46-.91-.59-1.21-.62-1.27a7.31,7.31,0,0,0-1.87-2.55,7.74,7.74,0,0,0-3.17-2,4.11,4.11,0,0,0-1.2-.56,9,9,0,0,0-2.49-.39,5.88,5.88,0,0,0-1.48.18,10,10,0,0,0-1.18.35,8.72,8.72,0,0,0-4.86,3.1l0-.38c.31-3,.51-4.92.62-6.18a33.62,33.62,0,0,0,0-7.62,18.29,18.29,0,0,0-1.15-4.46,3.82,3.82,0,0,0-.36-.66c-.25-.38-.61-.89-1.13-1.6a16.18,16.18,0,0,0-2.2-2.45l-.27-.25L288.85,194a7.46,7.46,0,0,0-5.67-2.22Z" transform="translate(-32.9 -157.69)"/>
      </g>
      <g>
        <path class="cls-3" d="M256.6,261a23.29,23.29,0,0,1-6.87-1.15,17.27,17.27,0,0,1-8-4.93,18.76,18.76,0,0,1-4.4-8.32,23.62,23.62,0,0,1-.2-9.93,24.83,24.83,0,0,1,4.55-10.19c3.27-4.28,6.1-7,8.66-8.3a13.12,13.12,0,0,1,5.94-1.67,8.22,8.22,0,0,1,1.12.07,9.64,9.64,0,0,1,6.09,3.42l.64.65a6.4,6.4,0,0,1,.92,1.17c.2.34.37.64.5.91a1.3,1.3,0,0,1,.08.17,8.66,8.66,0,0,1,.49,3.19,12.72,12.72,0,0,1-.21,2.66,26.17,26.17,0,0,1-4,10.35,43.17,43.17,0,0,1-4.75,6.2,23.41,23.41,0,0,1-2.82,2.73l-1.51,1.22a6.23,6.23,0,0,0,.29,1.71,10.24,10.24,0,0,0,.73,1.64,6.61,6.61,0,0,0,.67.71,12.19,12.19,0,0,0,2.7.33h0a7.28,7.28,0,0,0,2.66-.46,15.63,15.63,0,0,0,4.51-2.55,14.86,14.86,0,0,0,3.74-4.51,14.17,14.17,0,0,0,1.73-3.82c.33-1.25.72-3.39,1.17-6.39a11.61,11.61,0,0,1,.21-2.34,15.6,15.6,0,0,1,.41-1.64,2.38,2.38,0,0,1,2.26-1.76,2.25,2.25,0,0,1,1,.25,1.83,1.83,0,0,1,.54.38c.38.38.77.8,1.15,1.25a3.72,3.72,0,0,1,.61,3.59c-.05.31-.18,1.3-.39,4.49a31,31,0,0,1-3.07,10.41l-.06.14a19.4,19.4,0,0,1-5.66,6.43,22.78,22.78,0,0,1-7.47,3.37A15.66,15.66,0,0,1,256.6,261Zm1.11-31.42a34.44,34.44,0,0,0-1.66,3.93c-.32.89-.66,1.9-1,3a23.52,23.52,0,0,0,1.06-2.14,32.44,32.44,0,0,0,1.31-3.61C257.57,230.23,257.66,229.84,257.71,229.6Z" transform="translate(-32.9 -157.69)"/>
        <path class="cls-2" d="M256.31,218.53a5.75,5.75,0,0,1,.84.05,7.66,7.66,0,0,1,4.9,2.8l.7.7a4.27,4.27,0,0,1,.61.79c.18.29.32.56.44.79a6.88,6.88,0,0,1,.35,2.45,10.05,10.05,0,0,1-.18,2.27A24.06,24.06,0,0,1,260.3,238a42.66,42.66,0,0,1-4.55,6,22.38,22.38,0,0,1-2.62,2.54l-2.28,1.83a10,10,0,0,0,.44,3.33,11.5,11.5,0,0,0,1,2.1,7.7,7.7,0,0,0,1.4,1.4,14.69,14.69,0,0,0,3.62.5,9.27,9.27,0,0,0,3.38-.59,17.74,17.74,0,0,0,5.07-2.89,16.33,16.33,0,0,0,4.2-5.07,15.91,15.91,0,0,0,1.93-4.29q.52-2,1.22-6.74a10.67,10.67,0,0,1,.18-2.1,10.47,10.47,0,0,1,.35-1.4q.13-.39.36-.39a.38.38,0,0,1,.17,0c.34.35.69.73,1,1.14a1.93,1.93,0,0,1,.18,1.84c-.12.58-.26,2.19-.44,4.81a29.14,29.14,0,0,1-2.89,9.71,17.24,17.24,0,0,1-5.07,5.78,20.75,20.75,0,0,1-6.82,3.06,13.44,13.44,0,0,1-3.53.45,21.12,21.12,0,0,1-6.28-1.06,15.18,15.18,0,0,1-7.08-4.38,16.61,16.61,0,0,1-3.94-7.43,21.53,21.53,0,0,1-.17-9.1,22.81,22.81,0,0,1,4.19-9.37q4.56-5.94,8-7.7a11.28,11.28,0,0,1,5-1.45M251,244.66a24.57,24.57,0,0,0,4.29-4.73,28,28,0,0,0,2.63-4.72,34.87,34.87,0,0,0,1.4-3.85,10,10,0,0,0,.43-2.1,12.18,12.18,0,0,0-.17-2.45,5.07,5.07,0,0,1-.18-1.23,2.84,2.84,0,0,0-1.57.62,6.35,6.35,0,0,0-1.75,2.18,32.58,32.58,0,0,0-1.93,4.47q-1,2.88-2.27,7.43a17.21,17.21,0,0,0-.52,2.37q-.18,1.14-.36,2m5.29-30.13a15.15,15.15,0,0,0-6.85,1.89c-2.83,1.46-5.88,4.35-9.31,8.83l-.06.07a26.82,26.82,0,0,0-4.9,11,25.77,25.77,0,0,0,.22,10.77,20.78,20.78,0,0,0,4.88,9.19,19.18,19.18,0,0,0,8.88,5.5A25,25,0,0,0,256.6,263a17.5,17.5,0,0,0,4.57-.59,24.49,24.49,0,0,0,8.15-3.7,21.32,21.32,0,0,0,6.21-7.07l.14-.27a32.77,32.77,0,0,0,3.23-11.1c.2-3,.32-3.94.36-4.22a5.7,5.7,0,0,0-1-5.29c-.43-.5-.85-1-1.26-1.37a3.88,3.88,0,0,0-1.08-.77,4.33,4.33,0,0,0-1.92-.45,4.38,4.38,0,0,0-4.16,3.14,15.83,15.83,0,0,0-.48,1.88,13.85,13.85,0,0,0-.24,2.56c-.53,3.55-.89,5.24-1.1,6a12.24,12.24,0,0,1-1.46,3.2l-.09.15a12.6,12.6,0,0,1-3.18,3.88l-.09.07a13.61,13.61,0,0,1-3.94,2.22,5.18,5.18,0,0,1-2,.33,8.74,8.74,0,0,1-1.7-.17h0a8.1,8.1,0,0,1-.49-1.16l-.06-.19.65-.53a26,26,0,0,0,3-2.91,46.61,46.61,0,0,0,4.95-6.46,28.15,28.15,0,0,0,4.27-11.08,14.44,14.44,0,0,0,.25-3,10.72,10.72,0,0,0-.63-3.93l-.15-.33c-.17-.33-.36-.68-.57-1a8.77,8.77,0,0,0-1.2-1.55l-.62-.62a11.51,11.51,0,0,0-7.3-4,10.39,10.39,0,0,0-1.37-.09Z" transform="translate(-32.9 -157.69)"/>
      </g>
      <g>
        <path class="cls-3" d="M218.87,261a23.4,23.4,0,0,1-6.87-1.15,17.29,17.29,0,0,1-8-4.93,18.78,18.78,0,0,1-4.41-8.32,23.79,23.79,0,0,1-.2-9.93A25,25,0,0,1,204,226.5c3.28-4.28,6.1-7,8.67-8.3a13.11,13.11,0,0,1,5.93-1.67,8.36,8.36,0,0,1,1.13.07,9.59,9.59,0,0,1,6.08,3.42l.65.65a6.35,6.35,0,0,1,.91,1.17c.21.34.37.64.51.91a1.22,1.22,0,0,1,.07.17,8.66,8.66,0,0,1,.49,3.19,12.07,12.07,0,0,1-.21,2.66,26.15,26.15,0,0,1-4,10.35,43.91,43.91,0,0,1-4.75,6.2,24.25,24.25,0,0,1-2.83,2.73l-1.51,1.22a6.66,6.66,0,0,0,.29,1.71,11.21,11.21,0,0,0,.73,1.64,7.78,7.78,0,0,0,.67.71,12.27,12.27,0,0,0,2.71.33h0a7.32,7.32,0,0,0,2.66-.46,15.63,15.63,0,0,0,4.51-2.55,19.12,19.12,0,0,0,5.47-8.33c.32-1.25.71-3.39,1.16-6.39a12.55,12.55,0,0,1,.63-4,2.36,2.36,0,0,1,2.26-1.76,2.31,2.31,0,0,1,1,.25,1.83,1.83,0,0,1,.54.38c.38.38.76.8,1.15,1.25a3.74,3.74,0,0,1,.61,3.59c-.06.31-.18,1.3-.4,4.49a30.74,30.74,0,0,1-3.06,10.41.91.91,0,0,1-.07.14,19.28,19.28,0,0,1-5.66,6.43,22.59,22.59,0,0,1-7.47,3.37A15.6,15.6,0,0,1,218.87,261ZM220,229.6a34.44,34.44,0,0,0-1.66,3.93c-.32.89-.66,1.9-1,3a21,21,0,0,0,1.05-2.14,30.85,30.85,0,0,0,1.32-3.61C219.85,230.23,219.94,229.84,220,229.6Z" transform="translate(-32.9 -157.69)"/>
        <path class="cls-2" d="M218.58,218.53a5.75,5.75,0,0,1,.84.05,7.68,7.68,0,0,1,4.91,2.8l.7.7a4.75,4.75,0,0,1,.61.79c.17.29.32.56.44.79a6.91,6.91,0,0,1,.34,2.45,10.2,10.2,0,0,1-.17,2.27,24.06,24.06,0,0,1-3.67,9.63,42.66,42.66,0,0,1-4.55,6,22.46,22.46,0,0,1-2.63,2.54l-2.27,1.83a10.3,10.3,0,0,0,.43,3.33,10.85,10.85,0,0,0,1,2.1,8,8,0,0,0,1.39,1.4,14.7,14.7,0,0,0,3.63.5,9.22,9.22,0,0,0,3.37-.59,17.66,17.66,0,0,0,5.08-2.89,16.61,16.61,0,0,0,4.2-5.07,16.23,16.23,0,0,0,1.93-4.29q.51-2,1.22-6.74a10.67,10.67,0,0,1,.18-2.1,10.47,10.47,0,0,1,.35-1.4q.12-.39.36-.39a.34.34,0,0,1,.16,0q.53.53,1,1.14a1.93,1.93,0,0,1,.18,1.84c-.12.58-.27,2.19-.44,4.81a29.38,29.38,0,0,1-2.89,9.71,17.27,17.27,0,0,1-5.08,5.78,20.65,20.65,0,0,1-6.82,3.06,13.39,13.39,0,0,1-3.53.45A21,21,0,0,1,212.6,258a15.26,15.26,0,0,1-7.09-4.38,16.69,16.69,0,0,1-3.93-7.43,21.69,21.69,0,0,1-.18-9.1,22.83,22.83,0,0,1,4.2-9.37q4.54-5.94,8-7.7a11.32,11.32,0,0,1,5-1.45m-5.28,26.13a24.57,24.57,0,0,0,4.29-4.73,27.18,27.18,0,0,0,2.62-4.72,32.92,32.92,0,0,0,1.4-3.85,10.23,10.23,0,0,0,.44-2.1,12.18,12.18,0,0,0-.17-2.45,5.07,5.07,0,0,1-.18-1.23,2.82,2.82,0,0,0-1.57.62,6.35,6.35,0,0,0-1.75,2.18,31.38,31.38,0,0,0-1.93,4.47q-1,2.88-2.28,7.43a18.81,18.81,0,0,0-.52,2.37c-.12.76-.23,1.43-.35,2m5.28-30.13a15.08,15.08,0,0,0-6.84,1.89c-2.84,1.46-5.89,4.35-9.32,8.83l0,.07a26.82,26.82,0,0,0-4.9,11,25.6,25.6,0,0,0,.22,10.77,20.87,20.87,0,0,0,4.87,9.19,19.18,19.18,0,0,0,8.88,5.5,25.13,25.13,0,0,0,7.43,1.23,17.53,17.53,0,0,0,4.58-.59,24.53,24.53,0,0,0,8.14-3.7,21.1,21.1,0,0,0,6.21-7.07c0-.09.1-.18.14-.27a32.82,32.82,0,0,0,3.24-11.1c.2-3,.31-3.94.35-4.22a5.64,5.64,0,0,0-1-5.29c-.43-.5-.85-1-1.26-1.37a3.74,3.74,0,0,0-1.08-.77,4.29,4.29,0,0,0-1.91-.45,4.37,4.37,0,0,0-4.16,3.14,14.1,14.1,0,0,0-.48,1.88,14.7,14.7,0,0,0-.25,2.56c-.53,3.55-.89,5.24-1.1,6a11.62,11.62,0,0,1-1.46,3.2l-.09.15a12.72,12.72,0,0,1-3.17,3.88l-.09.07a13.75,13.75,0,0,1-3.94,2.22,5.22,5.22,0,0,1-1.95.33,8.84,8.84,0,0,1-1.71-.17h0a9.36,9.36,0,0,1-.5-1.16,1.47,1.47,0,0,1-.05-.19l.64-.53a25.18,25.18,0,0,0,3-2.91,45.84,45.84,0,0,0,5-6.46,28.16,28.16,0,0,0,4.28-11.08,14.55,14.55,0,0,0,.24-3,10.51,10.51,0,0,0-.63-3.93,2.41,2.41,0,0,0-.15-.33c-.17-.33-.36-.68-.57-1a7.93,7.93,0,0,0-1.2-1.55l-.62-.62a11.48,11.48,0,0,0-7.3-4,10.17,10.17,0,0,0-1.37-.09Z" transform="translate(-32.9 -157.69)"/>
      </g>
      <g>
        <path class="cls-3" d="M401.91,209.68a5.54,5.54,0,0,1-1.32-.16,9.43,9.43,0,0,1-5.87-4.44,23.38,23.38,0,0,1-3.05-7.83,35,35,0,0,1-.57-9.61,32.48,32.48,0,0,1,2.31-10,23.57,23.57,0,0,1,2.07-4.21,12.27,12.27,0,0,1,2.71-2.9,4.82,4.82,0,0,1,3-1.06,5,5,0,0,1,1.51.23,8.68,8.68,0,0,1,2.6.49l.1,0a8.72,8.72,0,0,1,2.37,1.52,6.29,6.29,0,0,1,1.9,3.35,28.74,28.74,0,0,1,1,4.16,40.22,40.22,0,0,1,.6,4.61,39.77,39.77,0,0,1,0,5.86l-.27,2.47c-.14,1.19-.32,2.51-.55,3.94a43.29,43.29,0,0,1-1,4.55,23.06,23.06,0,0,1-1.67,4.38,10.3,10.3,0,0,1-2.65,3.42A5,5,0,0,1,401.91,209.68Zm1.94-30.79-.1.15a8.58,8.58,0,0,0-.76,1.73,14,14,0,0,0-.57,2.32,44.52,44.52,0,0,0-.82,7.5,51.45,51.45,0,0,0,.47,7.75,21.81,21.81,0,0,0,1,4.08c0,.09.07.18.1.26a14.12,14.12,0,0,0,.6-2.41c.18-1,.34-2.07.49-3.16.29-2.49.49-5.45.59-8.78,0-2.42-.15-4.44-.3-5.9a15.27,15.27,0,0,0-.51-3Z" transform="translate(-32.9 -157.69)"/>
        <path class="cls-2" d="M401.19,171.5a3.3,3.3,0,0,1,1.16.22,6.82,6.82,0,0,1,2.28.38,7,7,0,0,1,1.83,1.18,4.47,4.47,0,0,1,1.29,2.4,27.28,27.28,0,0,1,1,4,38.58,38.58,0,0,1,.57,4.41,35.82,35.82,0,0,1,0,5.56c0,.46-.14,1.26-.26,2.4s-.31,2.42-.54,3.84a37.19,37.19,0,0,1-1,4.34,20.67,20.67,0,0,1-1.52,4,8.55,8.55,0,0,1-2.13,2.78,3.07,3.07,0,0,1-2,.71,3.73,3.73,0,0,1-.86-.1,7.49,7.49,0,0,1-4.64-3.58,21,21,0,0,1-2.78-7.16,33,33,0,0,1-.53-9.06,30.12,30.12,0,0,1,2.17-9.36,20.92,20.92,0,0,1,1.9-3.88,10.4,10.4,0,0,1,2.24-2.4,2.86,2.86,0,0,1,1.78-.64m2,34.16a1.22,1.22,0,0,0,.91-.48,5.56,5.56,0,0,0,1-1.83,15.66,15.66,0,0,0,.68-2.74c.18-1,.35-2.12.5-3.23q.45-3.88.61-9c0-2.58-.16-4.64-.31-6.16a16.4,16.4,0,0,0-.61-3.43A3.85,3.85,0,0,0,405,177a2.37,2.37,0,0,0-1-.27,1.68,1.68,0,0,0-.63.12A2.8,2.8,0,0,0,402,178a11.2,11.2,0,0,0-1,2.13,18.38,18.38,0,0,0-.65,2.63,47.59,47.59,0,0,0-.84,7.77,52,52,0,0,0,.5,8.14,23.36,23.36,0,0,0,1.1,4.49,5,5,0,0,0,1.6,2.44,1.12,1.12,0,0,0,.35.06m-2-38.16h0A6.89,6.89,0,0,0,397,169a14.22,14.22,0,0,0-3.13,3.35l0,.07a25,25,0,0,0-2.26,4.57,34.36,34.36,0,0,0-2.43,10.54,37.05,37.05,0,0,0,.6,10.16,25.14,25.14,0,0,0,3.33,8.5,11.39,11.39,0,0,0,7.12,5.32,8,8,0,0,0,1.75.2,7,7,0,0,0,4.48-1.61,12.4,12.4,0,0,0,3.17-4.06,25.09,25.09,0,0,0,1.82-4.75,46,46,0,0,0,1-4.77c.24-1.47.43-2.82.56-4s.22-1.93.27-2.39c0-.05,0-.1,0-.15a41.09,41.09,0,0,0,0-6.16,42.26,42.26,0,0,0-.63-4.86,34.53,34.53,0,0,0-1.07-4.32,8.3,8.3,0,0,0-2.51-4.3,10.8,10.8,0,0,0-2.92-1.86l-.2-.08a10.66,10.66,0,0,0-3-.59,7.19,7.19,0,0,0-1.83-.24Z" transform="translate(-32.9 -157.69)"/>
      </g>
      <g>
        <path class="cls-3" d="M355.57,281.83a2.06,2.06,0,0,1-.7-.12,9.23,9.23,0,0,1-3.25-2.12A21.42,21.42,0,0,1,349.4,277a18.54,18.54,0,0,1-1.57-2.54,14.75,14.75,0,0,1-.81-1.85,2,2,0,0,1-.06-1,14,14,0,0,0,.14-2.42c0-.93,0-2.69-.09-5.3s-.18-5.67-.35-9-.35-7.12-.52-11-.35-7.61-.53-11.11-.32-6.66-.44-9.47-.17-4.8-.17-6a57.4,57.4,0,0,1,.19-8.47,21,21,0,0,1,1-4.65,14.13,14.13,0,0,1,3.24-4.45,24.91,24.91,0,0,1,3.76-3.36,4.62,4.62,0,0,1,2.33-1.06,21.09,21.09,0,0,1,3.29-.39l3.6-.18c1.26-.06,2.44-.09,3.51-.09s2.32,0,3.84.09l4.29.18c1.33,0,2.59.08,3.77.08h2.27a1.84,1.84,0,0,1,.33,0,3.67,3.67,0,0,1,3,2.56,6.19,6.19,0,0,1,.28,1.77c.12,1.66-.83,3.54-3.9,4a31.24,31.24,0,0,1-4.4.37h-2.54a17.24,17.24,0,0,0-2.12.16h-.24c-.38,0-1.06,0-2.06-.09-.74,0-1.56-.07-2.45-.08-.27.16-.57.32-.9.49l-.17.09c0,.2-.08.54-.13,1.11-.11,1.12-.2,2.52-.26,4.16s-.11,3.47-.17,5.33c0,1.06-.06,2.1-.07,3.11l5.63-.18c2.36-.06,3.78-.09,4.25-.09a3.39,3.39,0,0,1,3.32,2.67,5,5,0,0,1,.25,1.43,2.83,2.83,0,0,1-1.81,3.19,7.35,7.35,0,0,1-2.55.39h-9.11v3.95c0,2.76,0,5.72.09,8.8A57.3,57.3,0,0,1,364,246c-.11,1.19-.22,3-.34,5.19s-.23,4.66-.35,7.16-.2,4.88-.26,7.05S363,269.11,363,270s-.06,2-.16,3.08l2.43-.33c.93-.12,2.08-.29,3.45-.52s2.77-.44,4.18-.62,2.53-.33,3.53-.44a18.54,18.54,0,0,1,1.89-.19,3.57,3.57,0,0,1,2.33.9c.42.35.7.59.84.73a9,9,0,0,1,1.19,1.83c1.51,2.63,0,3.9-.44,4.22a1.34,1.34,0,0,1-.23.13,14.08,14.08,0,0,1-3.28,1c-1.45.3-2.68.51-3.66.64h-.25c-.16,0-1.06.06-5.75.52-3.64.35-8,.64-13.41.88Z" transform="translate(-32.9 -157.69)"/>
        <path class="cls-2" d="M365.9,196.53c1.05,0,2.3,0,3.76.09l4.29.18c1.4.06,2.68.08,3.85.08h2.27a1.69,1.69,0,0,1,1.4,1.23,3.78,3.78,0,0,1,.18,1.22c.11,1-.62,1.7-2.19,1.93a29.16,29.16,0,0,1-4.11.35h-2.54a20.83,20.83,0,0,0-2.36.17c-.35,0-1,0-1.93-.08s-2-.09-3.15-.09a12,12,0,0,1-1.22.7,2.56,2.56,0,0,0-1,.87,5.54,5.54,0,0,0-.35,1.93q-.18,1.75-.27,4.29c-.06,1.69-.11,3.47-.17,5.33s-.09,3.62-.09,5.25q4.2-.16,7.7-.26t4.2-.09a1.42,1.42,0,0,1,1.4,1.23,3.22,3.22,0,0,1,.18,1,.89.89,0,0,1-.53,1.14,5.49,5.49,0,0,1-1.84.26H362.22v5.95q0,4,.09,8.84a56.67,56.67,0,0,1-.26,7.61c-.12,1.28-.24,3.06-.35,5.34s-.24,4.66-.35,7.17-.21,4.87-.27,7.09S361,269.1,361,270a27.72,27.72,0,0,1-.18,3.15,10.06,10.06,0,0,1-.52,2.45,23.42,23.42,0,0,1,2.71-.52l2.54-.35c.93-.12,2.1-.29,3.5-.53s2.77-.43,4.11-.61l3.5-.44c1-.11,1.54-.17,1.66-.17a1.6,1.6,0,0,1,1.05.44c.35.29.58.49.7.61a9.77,9.77,0,0,1,.88,1.4c.46.81.52,1.34.17,1.57a13.09,13.09,0,0,1-2.8.79c-1.4.29-2.57.5-3.5.61q-.52,0-5.95.53t-13.3.87a7.11,7.11,0,0,1-2.54-1.66,18.93,18.93,0,0,1-2-2.36,17.87,17.87,0,0,1-1.4-2.28,14.12,14.12,0,0,1-.7-1.57,15.5,15.5,0,0,0,.18-2.8c0-.94,0-2.71-.09-5.34s-.18-5.66-.35-9.1-.35-7.11-.53-11-.35-7.62-.52-11.12-.32-6.65-.44-9.45-.17-4.78-.17-5.95a57,57,0,0,1,.17-8.22,19.36,19.36,0,0,1,.88-4.2,12.79,12.79,0,0,1,2.8-3.76,21.3,21.3,0,0,1,3.67-3.24c.12-.23.58-.44,1.4-.61a18.66,18.66,0,0,1,3-.35l3.58-.18q1.84-.09,3.42-.09m0-4c-1.1,0-2.31,0-3.6.1l-1.83.08-1.77.09a22.67,22.67,0,0,0-3.62.44,6.66,6.66,0,0,0-3.17,1.45,28.59,28.59,0,0,0-4,3.53,16.15,16.15,0,0,0-3.66,5.13,24,24,0,0,0-1.1,5.11,58.73,58.73,0,0,0-.2,8.79c0,1.26.06,3.3.18,6.05.1,2.58.24,5.6.43,9.48.18,3.5.35,7.19.53,11.09s.35,7.61.52,11,.29,6.37.35,9,.09,4.38.09,5.25a12.55,12.55,0,0,1-.1,2,4,4,0,0,0,.12,2,15,15,0,0,0,.93,2.13,20.23,20.23,0,0,0,1.72,2.8A23.24,23.24,0,0,0,350.2,281a11.2,11.2,0,0,0,4,2.58,3.94,3.94,0,0,0,1.4.25h.18c5.42-.24,9.84-.53,13.51-.89,4.48-.43,5.43-.5,5.62-.51a3.25,3.25,0,0,0,.44,0c1-.13,2.29-.35,3.82-.66a16.18,16.18,0,0,0,3.76-1.12,4.83,4.83,0,0,0,.45-.26c1.67-1.12,2.95-3.59,1.07-6.88a10.17,10.17,0,0,0-1.52-2.25c-.15-.15-.39-.38-1-.86a5.56,5.56,0,0,0-3.61-1.36,19.34,19.34,0,0,0-2.13.2l-3.55.45c-1.43.18-2.86.39-4.26.63s-2.45.39-3.33.5H365c0-.26,0-.51,0-.77,0-.65,0-2,.08-4.61.06-2.17.15-4.52.26-7s.23-4.89.35-7.16.22-3.88.33-5.11a59,59,0,0,0,.29-8.11c-.06-3.07-.09-6-.09-8.77v-1.95h7.11a9.12,9.12,0,0,0,3.25-.52,4.8,4.8,0,0,0,3.11-5.24,7.1,7.1,0,0,0-.35-1.87,5.36,5.36,0,0,0-5.22-4.05c-.48,0-1.77,0-4.3.09l-3.54.11,0-1c.05-1.86.11-3.64.17-5.32s.13-2.87.24-3.92l1.56.07c1,.06,1.7.09,2.17.09l.49,0a17.51,17.51,0,0,1,1.87-.14h2.54a31.24,31.24,0,0,0,4.7-.4c4.12-.6,5.76-3.44,5.59-6.06a7.63,7.63,0,0,0-.37-2.29,5.66,5.66,0,0,0-4.54-3.92,3.6,3.6,0,0,0-.66-.06H377.8c-1.15,0-2.39,0-3.68-.08l-1.53-.06-2.77-.12c-1.55-.06-2.83-.09-3.92-.09Z" transform="translate(-32.9 -157.69)"/>
      </g>
    </g>
  </g>
</svg>
